%TF.GenerationSoftware,KiCad,Pcbnew,10.0.4*%
%TF.CreationDate,2026-08-17T23:14:09+07:00*%
%TF.ProjectId,smarthome_v0.1,736d6172-7468-46f6-9d65-5f76302e312e,rev?*%
%TF.SameCoordinates,Original*%
%TF.FileFunction,Legend,Bot*%
%TF.FilePolarity,Positive*%
%FSLAX46Y46*%
G04 Gerber Fmt 4.6, Leading zero omitted, Abs format (unit mm)*
G04 Created by KiCad (PCBNEW 10.0.4) date 2026-08-17 23:14:09*
%MOMM*%
%LPD*%
G01*
G04 APERTURE LIST*
%ADD10C,0.200000*%
%ADD11C,0.500000*%
%ADD12C,0.010000*%
G04 APERTURE END LIST*
D10*
G36*
X63556293Y-80331049D02*
G01*
X63559876Y-80331303D01*
X63563197Y-80332679D01*
X63582706Y-80334600D01*
X63916242Y-80334600D01*
X64008170Y-80380563D01*
X64054134Y-80472491D01*
X64054134Y-80568135D01*
X64008170Y-80660064D01*
X63916242Y-80706028D01*
X63606313Y-80706028D01*
X63539849Y-80672796D01*
X63539849Y-80324756D01*
X63556293Y-80331049D01*
G37*
G36*
X67222456Y-79951993D02*
G01*
X67268420Y-80043920D01*
X67268420Y-80184047D01*
X66754135Y-80081190D01*
X66754135Y-80043920D01*
X66800098Y-79951992D01*
X66892027Y-79906028D01*
X67130527Y-79906028D01*
X67222456Y-79951993D01*
G37*
G36*
X69880615Y-79959644D02*
G01*
X69929092Y-80008120D01*
X69982706Y-80115348D01*
X69982706Y-80496707D01*
X69929092Y-80603934D01*
X69880612Y-80652414D01*
X69773385Y-80706028D01*
X69606313Y-80706028D01*
X69499084Y-80652414D01*
X69450608Y-80603937D01*
X69396992Y-80496705D01*
X69396992Y-80115350D01*
X69450607Y-80008120D01*
X69499083Y-79959643D01*
X69606313Y-79906028D01*
X69773384Y-79906028D01*
X69880615Y-79959644D01*
G37*
G36*
X71237758Y-79959644D02*
G01*
X71286235Y-80008120D01*
X71339849Y-80115348D01*
X71339849Y-80496707D01*
X71286235Y-80603934D01*
X71237755Y-80652414D01*
X71130528Y-80706028D01*
X70892028Y-80706028D01*
X70825564Y-80672796D01*
X70825564Y-79939260D01*
X70892028Y-79906028D01*
X71130527Y-79906028D01*
X71237758Y-79959644D01*
G37*
G36*
X79008171Y-79951993D02*
G01*
X79054135Y-80043920D01*
X79054135Y-80184047D01*
X78539850Y-80081190D01*
X78539850Y-80043920D01*
X78585813Y-79951992D01*
X78677742Y-79906028D01*
X78916242Y-79906028D01*
X79008171Y-79951993D01*
G37*
G36*
X80309187Y-79959644D02*
G01*
X80357664Y-80008120D01*
X80411278Y-80115348D01*
X80411278Y-80496707D01*
X80357664Y-80603934D01*
X80309184Y-80652414D01*
X80201957Y-80706028D01*
X79963457Y-80706028D01*
X79896993Y-80672796D01*
X79896993Y-79939260D01*
X79963457Y-79906028D01*
X80201956Y-79906028D01*
X80309187Y-79959644D01*
G37*
G36*
X81270580Y-80331049D02*
G01*
X81274163Y-80331303D01*
X81277484Y-80332679D01*
X81296993Y-80334600D01*
X81630529Y-80334600D01*
X81722457Y-80380563D01*
X81768421Y-80472491D01*
X81768421Y-80568135D01*
X81722457Y-80660064D01*
X81630529Y-80706028D01*
X81320600Y-80706028D01*
X81254136Y-80672796D01*
X81254136Y-80324756D01*
X81270580Y-80331049D01*
G37*
G36*
X83777946Y-81072695D02*
G01*
X62387812Y-81072695D01*
X62387812Y-80715091D01*
X62556055Y-80715091D01*
X62556055Y-80754109D01*
X62558338Y-80759620D01*
X62570987Y-80790158D01*
X62583424Y-80805311D01*
X62654853Y-80876739D01*
X62670006Y-80889176D01*
X62695496Y-80899733D01*
X62706054Y-80904107D01*
X62706055Y-80904107D01*
X62745072Y-80904107D01*
X62772118Y-80892904D01*
X62781121Y-80889175D01*
X62781125Y-80889170D01*
X62796274Y-80876739D01*
X62867701Y-80805311D01*
X62880138Y-80790158D01*
X62891641Y-80762386D01*
X62895069Y-80754110D01*
X62895070Y-80715092D01*
X62880139Y-80679043D01*
X62867702Y-80663890D01*
X62796274Y-80592461D01*
X62781121Y-80580024D01*
X62766189Y-80573839D01*
X62745072Y-80565092D01*
X62706054Y-80565092D01*
X62695496Y-80569465D01*
X62670006Y-80580023D01*
X62670000Y-80580028D01*
X62654852Y-80592460D01*
X62583423Y-80663889D01*
X62570991Y-80679037D01*
X62570986Y-80679043D01*
X62569480Y-80682680D01*
X62556055Y-80715091D01*
X62387812Y-80715091D01*
X62387812Y-79385762D01*
X62554479Y-79385762D01*
X62625908Y-80242905D01*
X62626180Y-80244390D01*
X62626203Y-80245897D01*
X62626797Y-80247754D01*
X62626929Y-80248475D01*
X62627484Y-80254109D01*
X62628341Y-80256179D01*
X62629443Y-80262187D01*
X62634635Y-80272263D01*
X62638089Y-80283060D01*
X62640806Y-80286271D01*
X62642416Y-80290157D01*
X62645390Y-80293131D01*
X62647317Y-80296870D01*
X62655969Y-80304191D01*
X62663293Y-80312846D01*
X62667031Y-80314772D01*
X62670006Y-80317747D01*
X62673893Y-80319357D01*
X62677103Y-80322073D01*
X62687896Y-80325525D01*
X62697976Y-80330720D01*
X62702167Y-80331069D01*
X62706054Y-80332679D01*
X62710261Y-80332679D01*
X62714266Y-80333960D01*
X62725563Y-80333018D01*
X62736860Y-80333960D01*
X62740865Y-80332679D01*
X62745072Y-80332679D01*
X62748958Y-80331069D01*
X62753150Y-80330720D01*
X62763226Y-80325527D01*
X62774023Y-80322074D01*
X62777234Y-80319356D01*
X62781120Y-80317747D01*
X62784094Y-80314772D01*
X62787833Y-80312846D01*
X62795155Y-80304192D01*
X62803809Y-80296870D01*
X62805735Y-80293131D01*
X62808710Y-80290157D01*
X62810319Y-80286271D01*
X62813037Y-80283060D01*
X62816489Y-80272263D01*
X62821683Y-80262187D01*
X62822784Y-80256179D01*
X62823642Y-80254109D01*
X62824196Y-80248474D01*
X62824329Y-80247753D01*
X62824923Y-80245896D01*
X62824945Y-80244389D01*
X62825218Y-80242904D01*
X62843767Y-80020314D01*
X63339849Y-80020314D01*
X63339849Y-80806028D01*
X63341770Y-80825537D01*
X63356702Y-80861585D01*
X63384292Y-80889175D01*
X63420340Y-80904107D01*
X63459358Y-80904107D01*
X63495406Y-80889175D01*
X63505401Y-80879179D01*
X63537985Y-80895471D01*
X63556294Y-80902477D01*
X63559876Y-80902731D01*
X63563197Y-80904107D01*
X63582706Y-80906028D01*
X63939849Y-80906028D01*
X63959358Y-80904107D01*
X63962678Y-80902731D01*
X63966262Y-80902477D01*
X63984570Y-80895471D01*
X64127427Y-80824043D01*
X64130689Y-80821989D01*
X64132230Y-80821476D01*
X64134147Y-80819812D01*
X64144018Y-80813600D01*
X64152234Y-80804125D01*
X64161706Y-80795911D01*
X64167919Y-80786039D01*
X64169582Y-80784123D01*
X64170095Y-80782584D01*
X64172149Y-80779321D01*
X64243577Y-80636463D01*
X64250584Y-80618154D01*
X64250838Y-80614568D01*
X64252213Y-80611251D01*
X64254134Y-80591742D01*
X64254134Y-80448885D01*
X64252213Y-80429376D01*
X64250837Y-80426055D01*
X64250583Y-80422473D01*
X64243577Y-80404164D01*
X64172149Y-80261307D01*
X64170095Y-80258043D01*
X64169582Y-80256505D01*
X64167919Y-80254588D01*
X64161706Y-80244717D01*
X64152235Y-80236503D01*
X64144018Y-80227028D01*
X64134144Y-80220813D01*
X64132229Y-80219152D01*
X64130690Y-80218639D01*
X64127427Y-80216585D01*
X63984570Y-80145157D01*
X63966262Y-80138151D01*
X63962678Y-80137896D01*
X63959358Y-80136521D01*
X63939849Y-80134600D01*
X63606313Y-80134600D01*
X63539849Y-80101367D01*
X63539849Y-80043920D01*
X63585812Y-79951992D01*
X63677741Y-79906028D01*
X63916241Y-79906028D01*
X64037984Y-79966900D01*
X64056293Y-79973906D01*
X64095213Y-79976672D01*
X64132229Y-79964333D01*
X64161705Y-79938769D01*
X64179155Y-79903870D01*
X64181921Y-79864950D01*
X64169582Y-79827934D01*
X64150584Y-79806028D01*
X64696992Y-79806028D01*
X64696992Y-80806028D01*
X64698913Y-80825537D01*
X64713845Y-80861585D01*
X64741435Y-80889175D01*
X64777483Y-80904107D01*
X64816501Y-80904107D01*
X64852549Y-80889175D01*
X64880139Y-80861585D01*
X64895071Y-80825537D01*
X64896992Y-80806028D01*
X64896992Y-80520314D01*
X65339849Y-80520314D01*
X65339849Y-80591742D01*
X65341770Y-80611251D01*
X65343145Y-80614571D01*
X65343400Y-80618155D01*
X65350406Y-80636463D01*
X65421835Y-80779321D01*
X65423889Y-80782584D01*
X65424402Y-80784123D01*
X65426063Y-80786038D01*
X65432278Y-80795912D01*
X65441753Y-80804129D01*
X65449967Y-80813600D01*
X65459838Y-80819813D01*
X65461755Y-80821476D01*
X65463293Y-80821989D01*
X65466557Y-80824043D01*
X65609414Y-80895471D01*
X65627723Y-80902477D01*
X65631305Y-80902731D01*
X65634626Y-80904107D01*
X65654135Y-80906028D01*
X65939849Y-80906028D01*
X65959358Y-80904107D01*
X65962678Y-80902731D01*
X65966262Y-80902477D01*
X65984570Y-80895471D01*
X66127427Y-80824043D01*
X66144018Y-80813600D01*
X66169582Y-80784123D01*
X66181921Y-80747107D01*
X66179156Y-80708187D01*
X66161706Y-80673288D01*
X66132230Y-80647724D01*
X66095214Y-80635385D01*
X66056294Y-80638151D01*
X66037985Y-80645157D01*
X65916242Y-80706028D01*
X65677742Y-80706028D01*
X65585813Y-80660064D01*
X65539849Y-80568135D01*
X65539849Y-80543922D01*
X65585814Y-80451992D01*
X65677742Y-80406028D01*
X65868421Y-80406028D01*
X65887930Y-80404107D01*
X65891250Y-80402731D01*
X65894834Y-80402477D01*
X65913142Y-80395471D01*
X66055999Y-80324043D01*
X66059261Y-80321989D01*
X66060802Y-80321476D01*
X66062719Y-80319812D01*
X66072590Y-80313600D01*
X66080806Y-80304125D01*
X66090278Y-80295911D01*
X66096491Y-80286039D01*
X66098154Y-80284123D01*
X66098667Y-80282584D01*
X66100721Y-80279321D01*
X66172149Y-80136463D01*
X66179156Y-80118154D01*
X66179410Y-80114568D01*
X66180785Y-80111251D01*
X66182706Y-80091742D01*
X66182706Y-80020314D01*
X66554135Y-80020314D01*
X66554135Y-80163171D01*
X66556056Y-80182680D01*
X66559805Y-80191732D01*
X66561707Y-80201343D01*
X66567198Y-80209579D01*
X66570988Y-80218728D01*
X66577914Y-80225654D01*
X66583350Y-80233808D01*
X66591578Y-80239318D01*
X66598578Y-80246318D01*
X66607629Y-80250067D01*
X66615770Y-80255519D01*
X66634523Y-80261229D01*
X66634624Y-80261249D01*
X66634626Y-80261250D01*
X66634628Y-80261250D01*
X67268420Y-80388008D01*
X67268420Y-80568135D01*
X67222456Y-80660064D01*
X67130528Y-80706028D01*
X66892027Y-80706028D01*
X66770284Y-80645157D01*
X66751976Y-80638151D01*
X66713055Y-80635385D01*
X66676040Y-80647724D01*
X66646563Y-80673289D01*
X66629114Y-80708187D01*
X66626348Y-80747108D01*
X66638687Y-80784123D01*
X66664252Y-80813600D01*
X66680842Y-80824043D01*
X66823699Y-80895471D01*
X66842008Y-80902477D01*
X66845590Y-80902731D01*
X66848911Y-80904107D01*
X66868420Y-80906028D01*
X67154135Y-80906028D01*
X67173644Y-80904107D01*
X67176964Y-80902731D01*
X67180548Y-80902477D01*
X67198856Y-80895471D01*
X67341713Y-80824043D01*
X67344975Y-80821989D01*
X67346516Y-80821476D01*
X67348433Y-80819812D01*
X67358304Y-80813600D01*
X67366520Y-80804125D01*
X67375992Y-80795911D01*
X67382205Y-80786039D01*
X67383868Y-80784123D01*
X67384381Y-80782584D01*
X67386435Y-80779321D01*
X67457863Y-80636463D01*
X67464870Y-80618154D01*
X67465124Y-80614568D01*
X67466499Y-80611251D01*
X67468420Y-80591742D01*
X67468420Y-80306138D01*
X67468421Y-80306133D01*
X67468420Y-80306127D01*
X67468420Y-80020314D01*
X67911278Y-80020314D01*
X67911278Y-80806028D01*
X67913199Y-80825537D01*
X67928131Y-80861585D01*
X67955721Y-80889175D01*
X67991769Y-80904107D01*
X68030787Y-80904107D01*
X68066835Y-80889175D01*
X68094425Y-80861585D01*
X68109357Y-80825537D01*
X68111278Y-80806028D01*
X68111278Y-80043920D01*
X68157241Y-79951992D01*
X68249170Y-79906028D01*
X68416241Y-79906028D01*
X68523472Y-79959644D01*
X68554135Y-79990306D01*
X68554135Y-80806028D01*
X68556056Y-80825537D01*
X68570988Y-80861585D01*
X68598578Y-80889175D01*
X68634626Y-80904107D01*
X68673644Y-80904107D01*
X68709692Y-80889175D01*
X68737282Y-80861585D01*
X68752214Y-80825537D01*
X68754135Y-80806028D01*
X68754135Y-80091742D01*
X69196992Y-80091742D01*
X69196992Y-80520314D01*
X69198913Y-80539823D01*
X69200288Y-80543143D01*
X69200543Y-80546727D01*
X69207549Y-80565036D01*
X69278978Y-80707892D01*
X69284261Y-80716286D01*
X69285273Y-80718728D01*
X69287527Y-80721475D01*
X69289421Y-80724483D01*
X69291417Y-80726214D01*
X69297710Y-80733881D01*
X69369138Y-80805310D01*
X69376807Y-80811605D01*
X69378538Y-80813600D01*
X69381543Y-80815491D01*
X69384291Y-80817747D01*
X69386732Y-80818758D01*
X69395128Y-80824043D01*
X69537985Y-80895471D01*
X69556294Y-80902477D01*
X69559876Y-80902731D01*
X69563197Y-80904107D01*
X69582706Y-80906028D01*
X69796992Y-80906028D01*
X69816501Y-80904107D01*
X69819821Y-80902731D01*
X69823405Y-80902477D01*
X69841713Y-80895471D01*
X69984570Y-80824043D01*
X69992968Y-80818756D01*
X69995406Y-80817747D01*
X69998149Y-80815495D01*
X70001161Y-80813600D01*
X70002893Y-80811602D01*
X70010560Y-80805311D01*
X70081989Y-80733882D01*
X70088283Y-80726211D01*
X70090278Y-80724482D01*
X70092171Y-80721474D01*
X70094425Y-80718728D01*
X70095435Y-80716288D01*
X70100721Y-80707892D01*
X70172149Y-80565035D01*
X70179155Y-80546726D01*
X70179409Y-80543143D01*
X70180785Y-80539823D01*
X70182706Y-80520314D01*
X70182706Y-80091742D01*
X70180785Y-80072233D01*
X70179409Y-80068912D01*
X70179155Y-80065330D01*
X70172149Y-80047021D01*
X70100721Y-79904164D01*
X70095436Y-79895768D01*
X70094425Y-79893327D01*
X70092169Y-79890579D01*
X70090278Y-79887574D01*
X70088283Y-79885843D01*
X70081988Y-79878174D01*
X70010559Y-79806746D01*
X70002892Y-79800453D01*
X70001161Y-79798457D01*
X69998153Y-79796563D01*
X69995406Y-79794309D01*
X69992964Y-79793297D01*
X69984570Y-79788014D01*
X69841714Y-79716585D01*
X69823405Y-79709579D01*
X69819821Y-79709324D01*
X69816501Y-79707949D01*
X69796992Y-79706028D01*
X69582706Y-79706028D01*
X69563197Y-79707949D01*
X69559876Y-79709324D01*
X69556293Y-79709579D01*
X69537984Y-79716585D01*
X69395127Y-79788014D01*
X69386729Y-79793299D01*
X69384291Y-79794310D01*
X69381546Y-79796562D01*
X69378537Y-79798457D01*
X69376804Y-79800454D01*
X69369138Y-79806747D01*
X69297710Y-79878174D01*
X69291418Y-79885840D01*
X69289421Y-79887573D01*
X69287525Y-79890584D01*
X69285274Y-79893328D01*
X69284264Y-79895765D01*
X69278978Y-79904164D01*
X69207549Y-80047020D01*
X69200543Y-80065329D01*
X69200288Y-80068912D01*
X69198913Y-80072233D01*
X69196992Y-80091742D01*
X68754135Y-80091742D01*
X68754135Y-79806028D01*
X68752214Y-79786519D01*
X68737282Y-79750471D01*
X68709692Y-79722881D01*
X68673644Y-79707949D01*
X68634626Y-79707949D01*
X68598578Y-79722881D01*
X68570988Y-79750471D01*
X68567788Y-79758194D01*
X68484571Y-79716585D01*
X68466262Y-79709579D01*
X68462678Y-79709324D01*
X68459358Y-79707949D01*
X68439849Y-79706028D01*
X68225563Y-79706028D01*
X68206054Y-79707949D01*
X68202733Y-79709324D01*
X68199150Y-79709579D01*
X68180841Y-79716585D01*
X68037984Y-79788014D01*
X68034719Y-79790068D01*
X68033183Y-79790581D01*
X68031268Y-79792240D01*
X68021394Y-79798457D01*
X68013178Y-79807929D01*
X68003706Y-79816145D01*
X67997491Y-79826018D01*
X67995830Y-79827934D01*
X67995317Y-79829472D01*
X67993263Y-79832736D01*
X67921835Y-79975593D01*
X67914829Y-79993901D01*
X67914574Y-79997484D01*
X67913199Y-80000805D01*
X67911278Y-80020314D01*
X67468420Y-80020314D01*
X67466499Y-80000805D01*
X67465123Y-79997484D01*
X67464869Y-79993902D01*
X67457863Y-79975593D01*
X67386435Y-79832736D01*
X67384381Y-79829472D01*
X67383868Y-79827934D01*
X67382205Y-79826017D01*
X67375992Y-79816146D01*
X67366521Y-79807932D01*
X67358304Y-79798457D01*
X67348430Y-79792242D01*
X67346515Y-79790581D01*
X67344976Y-79790068D01*
X67341713Y-79788014D01*
X67198857Y-79716585D01*
X67180548Y-79709579D01*
X67176964Y-79709324D01*
X67173644Y-79707949D01*
X67154135Y-79706028D01*
X66868420Y-79706028D01*
X66848911Y-79707949D01*
X66845590Y-79709324D01*
X66842007Y-79709579D01*
X66823698Y-79716585D01*
X66680841Y-79788014D01*
X66677576Y-79790068D01*
X66676040Y-79790581D01*
X66674125Y-79792240D01*
X66664251Y-79798457D01*
X66656035Y-79807929D01*
X66646563Y-79816145D01*
X66640348Y-79826018D01*
X66638687Y-79827934D01*
X66638174Y-79829472D01*
X66636120Y-79832736D01*
X66564692Y-79975593D01*
X66557686Y-79993901D01*
X66557431Y-79997484D01*
X66556056Y-80000805D01*
X66554135Y-80020314D01*
X66182706Y-80020314D01*
X66180785Y-80000805D01*
X66179409Y-79997484D01*
X66179155Y-79993902D01*
X66172149Y-79975593D01*
X66100721Y-79832736D01*
X66098667Y-79829472D01*
X66098154Y-79827934D01*
X66096491Y-79826017D01*
X66090278Y-79816146D01*
X66080807Y-79807932D01*
X66072590Y-79798457D01*
X66062716Y-79792242D01*
X66060801Y-79790581D01*
X66059262Y-79790068D01*
X66055999Y-79788014D01*
X65913143Y-79716585D01*
X65894834Y-79709579D01*
X65891250Y-79709324D01*
X65887930Y-79707949D01*
X65868421Y-79706028D01*
X65654135Y-79706028D01*
X65634626Y-79707949D01*
X65631305Y-79709324D01*
X65627722Y-79709579D01*
X65609413Y-79716585D01*
X65466556Y-79788014D01*
X65449966Y-79798457D01*
X65424402Y-79827934D01*
X65412063Y-79864950D01*
X65414829Y-79903870D01*
X65432278Y-79938769D01*
X65461755Y-79964333D01*
X65498771Y-79976672D01*
X65537691Y-79973906D01*
X65556000Y-79966900D01*
X65677742Y-79906028D01*
X65844813Y-79906028D01*
X65936742Y-79951993D01*
X65982706Y-80043920D01*
X65982706Y-80068135D01*
X65936742Y-80160064D01*
X65844814Y-80206028D01*
X65654135Y-80206028D01*
X65634626Y-80207949D01*
X65631305Y-80209324D01*
X65627722Y-80209579D01*
X65609413Y-80216585D01*
X65466556Y-80288014D01*
X65463291Y-80290068D01*
X65461755Y-80290581D01*
X65459840Y-80292240D01*
X65449966Y-80298457D01*
X65441750Y-80307929D01*
X65432278Y-80316145D01*
X65426063Y-80326018D01*
X65424402Y-80327934D01*
X65423889Y-80329472D01*
X65421835Y-80332736D01*
X65350406Y-80475592D01*
X65343400Y-80493901D01*
X65343145Y-80497484D01*
X65341770Y-80500805D01*
X65339849Y-80520314D01*
X64896992Y-80520314D01*
X64896992Y-79806028D01*
X64895071Y-79786519D01*
X64880139Y-79750471D01*
X64852549Y-79722881D01*
X64816501Y-79707949D01*
X64777483Y-79707949D01*
X64741435Y-79722881D01*
X64713845Y-79750471D01*
X64698913Y-79786519D01*
X64696992Y-79806028D01*
X64150584Y-79806028D01*
X64144018Y-79798457D01*
X64127427Y-79788014D01*
X63984571Y-79716585D01*
X63966262Y-79709579D01*
X63962678Y-79709324D01*
X63959358Y-79707949D01*
X63939849Y-79706028D01*
X63654134Y-79706028D01*
X63634625Y-79707949D01*
X63631304Y-79709324D01*
X63627721Y-79709579D01*
X63609412Y-79716585D01*
X63466555Y-79788014D01*
X63463290Y-79790068D01*
X63461754Y-79790581D01*
X63459839Y-79792240D01*
X63449965Y-79798457D01*
X63441749Y-79807929D01*
X63432277Y-79816145D01*
X63426062Y-79826018D01*
X63424401Y-79827934D01*
X63423888Y-79829472D01*
X63421834Y-79832736D01*
X63350406Y-79975593D01*
X63343400Y-79993901D01*
X63343145Y-79997484D01*
X63341770Y-80000805D01*
X63339849Y-80020314D01*
X62843767Y-80020314D01*
X62896646Y-79385761D01*
X62896351Y-79366160D01*
X62895069Y-79362154D01*
X62895070Y-79357949D01*
X62895070Y-79357948D01*
X64627484Y-79357948D01*
X64627484Y-79396966D01*
X64636231Y-79418083D01*
X64642416Y-79433015D01*
X64654853Y-79448168D01*
X64726282Y-79519596D01*
X64741435Y-79532033D01*
X64766925Y-79542590D01*
X64777483Y-79546964D01*
X64777484Y-79546964D01*
X64816501Y-79546964D01*
X64837618Y-79538216D01*
X64852550Y-79532032D01*
X64852554Y-79532027D01*
X64867703Y-79519596D01*
X64939130Y-79448168D01*
X64951567Y-79433015D01*
X64966498Y-79396966D01*
X64966498Y-79378174D01*
X64966499Y-79357949D01*
X64951568Y-79321900D01*
X64939131Y-79306747D01*
X64938412Y-79306028D01*
X70625564Y-79306028D01*
X70625564Y-80806028D01*
X70627485Y-80825537D01*
X70642417Y-80861585D01*
X70670007Y-80889175D01*
X70706055Y-80904107D01*
X70745073Y-80904107D01*
X70781121Y-80889175D01*
X70791116Y-80879179D01*
X70823700Y-80895471D01*
X70842009Y-80902477D01*
X70845591Y-80902731D01*
X70848912Y-80904107D01*
X70868421Y-80906028D01*
X71154135Y-80906028D01*
X71173644Y-80904107D01*
X71176964Y-80902731D01*
X71180548Y-80902477D01*
X71198856Y-80895471D01*
X71341713Y-80824043D01*
X71350111Y-80818756D01*
X71352549Y-80817747D01*
X71355292Y-80815495D01*
X71358304Y-80813600D01*
X71360036Y-80811602D01*
X71367703Y-80805311D01*
X71439132Y-80733882D01*
X71445426Y-80726211D01*
X71447421Y-80724482D01*
X71449314Y-80721474D01*
X71451568Y-80718728D01*
X71452578Y-80716288D01*
X71457864Y-80707892D01*
X71529292Y-80565035D01*
X71536298Y-80546726D01*
X71536552Y-80543143D01*
X71537928Y-80539823D01*
X71539849Y-80520314D01*
X71539849Y-80091742D01*
X71537928Y-80072233D01*
X71536552Y-80068912D01*
X71536298Y-80065330D01*
X71529292Y-80047021D01*
X71515939Y-80020314D01*
X71982707Y-80020314D01*
X71982707Y-80806028D01*
X71984628Y-80825537D01*
X71999560Y-80861585D01*
X72027150Y-80889175D01*
X72063198Y-80904107D01*
X72102216Y-80904107D01*
X72138264Y-80889175D01*
X72165854Y-80861585D01*
X72180786Y-80825537D01*
X72182707Y-80806028D01*
X72182707Y-80043920D01*
X72228670Y-79951992D01*
X72320599Y-79906028D01*
X72487670Y-79906028D01*
X72594901Y-79959644D01*
X72625564Y-79990306D01*
X72625564Y-80806028D01*
X72627485Y-80825537D01*
X72642417Y-80861585D01*
X72670007Y-80889175D01*
X72706055Y-80904107D01*
X72745073Y-80904107D01*
X72781121Y-80889175D01*
X72808711Y-80861585D01*
X72823643Y-80825537D01*
X72825564Y-80806028D01*
X72825564Y-79806028D01*
X72823643Y-79786519D01*
X72808711Y-79750471D01*
X72781121Y-79722881D01*
X72745073Y-79707949D01*
X72706055Y-79707949D01*
X72670007Y-79722881D01*
X72642417Y-79750471D01*
X72639217Y-79758194D01*
X72556000Y-79716585D01*
X72537691Y-79709579D01*
X72534107Y-79709324D01*
X72530787Y-79707949D01*
X72511278Y-79706028D01*
X72296992Y-79706028D01*
X72277483Y-79707949D01*
X72274162Y-79709324D01*
X72270579Y-79709579D01*
X72252270Y-79716585D01*
X72109413Y-79788014D01*
X72106148Y-79790068D01*
X72104612Y-79790581D01*
X72102697Y-79792240D01*
X72092823Y-79798457D01*
X72084607Y-79807929D01*
X72075135Y-79816145D01*
X72068920Y-79826018D01*
X72067259Y-79827934D01*
X72066746Y-79829472D01*
X72064692Y-79832736D01*
X71993264Y-79975593D01*
X71986258Y-79993901D01*
X71986003Y-79997484D01*
X71984628Y-80000805D01*
X71982707Y-80020314D01*
X71515939Y-80020314D01*
X71457864Y-79904164D01*
X71452579Y-79895768D01*
X71451568Y-79893327D01*
X71449312Y-79890579D01*
X71447421Y-79887574D01*
X71445426Y-79885843D01*
X71439131Y-79878174D01*
X71367702Y-79806746D01*
X71360035Y-79800453D01*
X71358304Y-79798457D01*
X71355296Y-79796563D01*
X71352549Y-79794309D01*
X71350107Y-79793297D01*
X71341713Y-79788014D01*
X71198857Y-79716585D01*
X71180548Y-79709579D01*
X71176964Y-79709324D01*
X71173644Y-79707949D01*
X71154135Y-79706028D01*
X70868421Y-79706028D01*
X70848912Y-79707949D01*
X70845591Y-79709324D01*
X70842008Y-79709579D01*
X70825564Y-79715871D01*
X70825564Y-79306028D01*
X73339850Y-79306028D01*
X73339850Y-80806028D01*
X73341771Y-80825537D01*
X73356703Y-80861585D01*
X73384293Y-80889175D01*
X73420341Y-80904107D01*
X73459359Y-80904107D01*
X73495407Y-80889175D01*
X73522997Y-80861585D01*
X73537929Y-80825537D01*
X73539850Y-80806028D01*
X73539850Y-80020314D01*
X75196993Y-80020314D01*
X75196993Y-80806028D01*
X75198914Y-80825537D01*
X75213846Y-80861585D01*
X75241436Y-80889175D01*
X75277484Y-80904107D01*
X75316502Y-80904107D01*
X75352550Y-80889175D01*
X75380140Y-80861585D01*
X75395072Y-80825537D01*
X75396993Y-80806028D01*
X75396993Y-80043920D01*
X75442956Y-79951992D01*
X75534885Y-79906028D01*
X75701956Y-79906028D01*
X75809187Y-79959644D01*
X75839850Y-79990306D01*
X75839850Y-80806028D01*
X75841771Y-80825537D01*
X75856703Y-80861585D01*
X75884293Y-80889175D01*
X75920341Y-80904107D01*
X75959359Y-80904107D01*
X75995407Y-80889175D01*
X76022997Y-80861585D01*
X76037929Y-80825537D01*
X76039850Y-80806028D01*
X76039850Y-79806028D01*
X76037929Y-79786519D01*
X76022997Y-79750471D01*
X75995407Y-79722881D01*
X75959359Y-79707949D01*
X75920341Y-79707949D01*
X75884293Y-79722881D01*
X75856703Y-79750471D01*
X75853503Y-79758194D01*
X75770286Y-79716585D01*
X75751977Y-79709579D01*
X75748393Y-79709324D01*
X75745073Y-79707949D01*
X75725564Y-79706028D01*
X75511278Y-79706028D01*
X75491769Y-79707949D01*
X75488448Y-79709324D01*
X75484865Y-79709579D01*
X75466556Y-79716585D01*
X75323699Y-79788014D01*
X75320434Y-79790068D01*
X75318898Y-79790581D01*
X75316983Y-79792240D01*
X75307109Y-79798457D01*
X75298893Y-79807929D01*
X75289421Y-79816145D01*
X75283206Y-79826018D01*
X75281545Y-79827934D01*
X75281032Y-79829472D01*
X75278978Y-79832736D01*
X75207550Y-79975593D01*
X75200544Y-79993901D01*
X75200289Y-79997484D01*
X75198914Y-80000805D01*
X75196993Y-80020314D01*
X73539850Y-80020314D01*
X73539850Y-79306028D01*
X76554136Y-79306028D01*
X76554136Y-80806028D01*
X76556057Y-80825537D01*
X76570989Y-80861585D01*
X76598579Y-80889175D01*
X76634627Y-80904107D01*
X76673645Y-80904107D01*
X76709693Y-80889175D01*
X76737283Y-80861585D01*
X76752215Y-80825537D01*
X76754136Y-80806028D01*
X76754136Y-80020314D01*
X78339850Y-80020314D01*
X78339850Y-80163171D01*
X78341771Y-80182680D01*
X78345520Y-80191732D01*
X78347422Y-80201343D01*
X78352913Y-80209579D01*
X78356703Y-80218728D01*
X78363629Y-80225654D01*
X78369065Y-80233808D01*
X78377293Y-80239318D01*
X78384293Y-80246318D01*
X78393344Y-80250067D01*
X78401485Y-80255519D01*
X78420238Y-80261229D01*
X78420339Y-80261249D01*
X78420341Y-80261250D01*
X78420343Y-80261250D01*
X79054135Y-80388008D01*
X79054135Y-80568135D01*
X79008171Y-80660064D01*
X78916243Y-80706028D01*
X78677742Y-80706028D01*
X78555999Y-80645157D01*
X78537691Y-80638151D01*
X78498770Y-80635385D01*
X78461755Y-80647724D01*
X78432278Y-80673289D01*
X78414829Y-80708187D01*
X78412063Y-80747108D01*
X78424402Y-80784123D01*
X78449967Y-80813600D01*
X78466557Y-80824043D01*
X78609414Y-80895471D01*
X78627723Y-80902477D01*
X78631305Y-80902731D01*
X78634626Y-80904107D01*
X78654135Y-80906028D01*
X78939850Y-80906028D01*
X78959359Y-80904107D01*
X78962679Y-80902731D01*
X78966263Y-80902477D01*
X78984571Y-80895471D01*
X79127428Y-80824043D01*
X79130690Y-80821989D01*
X79132231Y-80821476D01*
X79134148Y-80819812D01*
X79144019Y-80813600D01*
X79152235Y-80804125D01*
X79161707Y-80795911D01*
X79167920Y-80786039D01*
X79169583Y-80784123D01*
X79170096Y-80782584D01*
X79172150Y-80779321D01*
X79243578Y-80636463D01*
X79250585Y-80618154D01*
X79250839Y-80614568D01*
X79252214Y-80611251D01*
X79254135Y-80591742D01*
X79254135Y-80306138D01*
X79254136Y-80306133D01*
X79254135Y-80306127D01*
X79254135Y-80020314D01*
X79252214Y-80000805D01*
X79250838Y-79997484D01*
X79250584Y-79993902D01*
X79243578Y-79975593D01*
X79172150Y-79832736D01*
X79170096Y-79829472D01*
X79169583Y-79827934D01*
X79167920Y-79826017D01*
X79161707Y-79816146D01*
X79152236Y-79807932D01*
X79144019Y-79798457D01*
X79134145Y-79792242D01*
X79132230Y-79790581D01*
X79130691Y-79790068D01*
X79127428Y-79788014D01*
X78984572Y-79716585D01*
X78966263Y-79709579D01*
X78962679Y-79709324D01*
X78959359Y-79707949D01*
X78939850Y-79706028D01*
X78654135Y-79706028D01*
X78634626Y-79707949D01*
X78631305Y-79709324D01*
X78627722Y-79709579D01*
X78609413Y-79716585D01*
X78466556Y-79788014D01*
X78463291Y-79790068D01*
X78461755Y-79790581D01*
X78459840Y-79792240D01*
X78449966Y-79798457D01*
X78441750Y-79807929D01*
X78432278Y-79816145D01*
X78426063Y-79826018D01*
X78424402Y-79827934D01*
X78423889Y-79829472D01*
X78421835Y-79832736D01*
X78350407Y-79975593D01*
X78343401Y-79993901D01*
X78343146Y-79997484D01*
X78341771Y-80000805D01*
X78339850Y-80020314D01*
X76754136Y-80020314D01*
X76754136Y-79306028D01*
X79696993Y-79306028D01*
X79696993Y-80806028D01*
X79698914Y-80825537D01*
X79713846Y-80861585D01*
X79741436Y-80889175D01*
X79777484Y-80904107D01*
X79816502Y-80904107D01*
X79852550Y-80889175D01*
X79862545Y-80879179D01*
X79895129Y-80895471D01*
X79913438Y-80902477D01*
X79917020Y-80902731D01*
X79920341Y-80904107D01*
X79939850Y-80906028D01*
X80225564Y-80906028D01*
X80245073Y-80904107D01*
X80248393Y-80902731D01*
X80251977Y-80902477D01*
X80270285Y-80895471D01*
X80413142Y-80824043D01*
X80421540Y-80818756D01*
X80423978Y-80817747D01*
X80426721Y-80815495D01*
X80429733Y-80813600D01*
X80431465Y-80811602D01*
X80439132Y-80805311D01*
X80510561Y-80733882D01*
X80516855Y-80726211D01*
X80518850Y-80724482D01*
X80520743Y-80721474D01*
X80522997Y-80718728D01*
X80524007Y-80716288D01*
X80529293Y-80707892D01*
X80600721Y-80565035D01*
X80607727Y-80546726D01*
X80607981Y-80543143D01*
X80609357Y-80539823D01*
X80611278Y-80520314D01*
X80611278Y-80091742D01*
X80609357Y-80072233D01*
X80607981Y-80068912D01*
X80607727Y-80065330D01*
X80600721Y-80047021D01*
X80587368Y-80020314D01*
X81054136Y-80020314D01*
X81054136Y-80806028D01*
X81056057Y-80825537D01*
X81070989Y-80861585D01*
X81098579Y-80889175D01*
X81134627Y-80904107D01*
X81173645Y-80904107D01*
X81209693Y-80889175D01*
X81219688Y-80879179D01*
X81252272Y-80895471D01*
X81270581Y-80902477D01*
X81274163Y-80902731D01*
X81277484Y-80904107D01*
X81296993Y-80906028D01*
X81654136Y-80906028D01*
X81673645Y-80904107D01*
X81676965Y-80902731D01*
X81680549Y-80902477D01*
X81698857Y-80895471D01*
X81841714Y-80824043D01*
X81844976Y-80821989D01*
X81846517Y-80821476D01*
X81848434Y-80819812D01*
X81858305Y-80813600D01*
X81866521Y-80804125D01*
X81875993Y-80795911D01*
X81882206Y-80786039D01*
X81883869Y-80784123D01*
X81884382Y-80782584D01*
X81886436Y-80779321D01*
X81957864Y-80636463D01*
X81964871Y-80618154D01*
X81965125Y-80614568D01*
X81966500Y-80611251D01*
X81968421Y-80591742D01*
X81968421Y-80448885D01*
X81966500Y-80429376D01*
X81965124Y-80426055D01*
X81964870Y-80422473D01*
X81957864Y-80404164D01*
X81886436Y-80261307D01*
X81884382Y-80258043D01*
X81883869Y-80256505D01*
X81882206Y-80254588D01*
X81875993Y-80244717D01*
X81866522Y-80236503D01*
X81858305Y-80227028D01*
X81848431Y-80220813D01*
X81846516Y-80219152D01*
X81844977Y-80218639D01*
X81841714Y-80216585D01*
X81698857Y-80145157D01*
X81680549Y-80138151D01*
X81676965Y-80137896D01*
X81673645Y-80136521D01*
X81654136Y-80134600D01*
X81320600Y-80134600D01*
X81254136Y-80101367D01*
X81254136Y-80043920D01*
X81300099Y-79951992D01*
X81392028Y-79906028D01*
X81630528Y-79906028D01*
X81752271Y-79966900D01*
X81770580Y-79973906D01*
X81809500Y-79976672D01*
X81846516Y-79964333D01*
X81875992Y-79938769D01*
X81893442Y-79903870D01*
X81896208Y-79864950D01*
X81883869Y-79827934D01*
X81858305Y-79798457D01*
X81841714Y-79788014D01*
X81698858Y-79716585D01*
X81680549Y-79709579D01*
X81676965Y-79709324D01*
X81673645Y-79707949D01*
X81654136Y-79706028D01*
X81368421Y-79706028D01*
X81348912Y-79707949D01*
X81345591Y-79709324D01*
X81342008Y-79709579D01*
X81323699Y-79716585D01*
X81180842Y-79788014D01*
X81177577Y-79790068D01*
X81176041Y-79790581D01*
X81174126Y-79792240D01*
X81164252Y-79798457D01*
X81156036Y-79807929D01*
X81146564Y-79816145D01*
X81140349Y-79826018D01*
X81138688Y-79827934D01*
X81138175Y-79829472D01*
X81136121Y-79832736D01*
X81064693Y-79975593D01*
X81057687Y-79993901D01*
X81057432Y-79997484D01*
X81056057Y-80000805D01*
X81054136Y-80020314D01*
X80587368Y-80020314D01*
X80529293Y-79904164D01*
X80524008Y-79895768D01*
X80522997Y-79893327D01*
X80520741Y-79890579D01*
X80518850Y-79887574D01*
X80516855Y-79885843D01*
X80510560Y-79878174D01*
X80439131Y-79806746D01*
X80431464Y-79800453D01*
X80429733Y-79798457D01*
X80426725Y-79796563D01*
X80423978Y-79794309D01*
X80421536Y-79793297D01*
X80413142Y-79788014D01*
X80270286Y-79716585D01*
X80251977Y-79709579D01*
X80248393Y-79709324D01*
X80245073Y-79707949D01*
X80225564Y-79706028D01*
X79939850Y-79706028D01*
X79920341Y-79707949D01*
X79917020Y-79709324D01*
X79913437Y-79709579D01*
X79896993Y-79715871D01*
X79896993Y-79306028D01*
X82411279Y-79306028D01*
X82411279Y-80806028D01*
X82413200Y-80825537D01*
X82428132Y-80861585D01*
X82455722Y-80889175D01*
X82491770Y-80904107D01*
X82530788Y-80904107D01*
X82566836Y-80889175D01*
X82594426Y-80861585D01*
X82609358Y-80825537D01*
X82611279Y-80806028D01*
X82611279Y-79756784D01*
X82920661Y-80419746D01*
X82924893Y-80426891D01*
X82925773Y-80429309D01*
X82927338Y-80431018D01*
X82930652Y-80436612D01*
X82941862Y-80446878D01*
X82952124Y-80458084D01*
X82956149Y-80459962D01*
X82959427Y-80462964D01*
X82973709Y-80468157D01*
X82987482Y-80474585D01*
X82991921Y-80474780D01*
X82996096Y-80476298D01*
X83011279Y-80475630D01*
X83026462Y-80476298D01*
X83030635Y-80474780D01*
X83035077Y-80474585D01*
X83048861Y-80468152D01*
X83063131Y-80462963D01*
X83066404Y-80459965D01*
X83070434Y-80458085D01*
X83080706Y-80446868D01*
X83091906Y-80436612D01*
X83095215Y-80431024D01*
X83096786Y-80429310D01*
X83097667Y-80426885D01*
X83101897Y-80419746D01*
X83411279Y-79756783D01*
X83411279Y-80806028D01*
X83413200Y-80825537D01*
X83428132Y-80861585D01*
X83455722Y-80889175D01*
X83491770Y-80904107D01*
X83530788Y-80904107D01*
X83566836Y-80889175D01*
X83594426Y-80861585D01*
X83609358Y-80825537D01*
X83611279Y-80806028D01*
X83611279Y-79306028D01*
X83610016Y-79293204D01*
X83610120Y-79290844D01*
X83609659Y-79289576D01*
X83609358Y-79286519D01*
X83602720Y-79270495D01*
X83596786Y-79254175D01*
X83595278Y-79252528D01*
X83594426Y-79250471D01*
X83582168Y-79238213D01*
X83570434Y-79225400D01*
X83568410Y-79224455D01*
X83566836Y-79222881D01*
X83550820Y-79216246D01*
X83535077Y-79208900D01*
X83532847Y-79208802D01*
X83530788Y-79207949D01*
X83513436Y-79207949D01*
X83496096Y-79207187D01*
X83494000Y-79207949D01*
X83491770Y-79207949D01*
X83475739Y-79214589D01*
X83459427Y-79220521D01*
X83457781Y-79222027D01*
X83455722Y-79222881D01*
X83443454Y-79235148D01*
X83430652Y-79246873D01*
X83429085Y-79249517D01*
X83428132Y-79250471D01*
X83427228Y-79252652D01*
X83420661Y-79263739D01*
X83011278Y-80140986D01*
X82601897Y-79263739D01*
X82595329Y-79252652D01*
X82594426Y-79250471D01*
X82593472Y-79249517D01*
X82591906Y-79246873D01*
X82579109Y-79235154D01*
X82566836Y-79222881D01*
X82564774Y-79222027D01*
X82563131Y-79220522D01*
X82546829Y-79214593D01*
X82530788Y-79207949D01*
X82528557Y-79207949D01*
X82526462Y-79207187D01*
X82509122Y-79207949D01*
X82491770Y-79207949D01*
X82489710Y-79208802D01*
X82487482Y-79208900D01*
X82471751Y-79216241D01*
X82455722Y-79222881D01*
X82454145Y-79224457D01*
X82452124Y-79225401D01*
X82440405Y-79238197D01*
X82428132Y-79250471D01*
X82427278Y-79252532D01*
X82425773Y-79254176D01*
X82419844Y-79270477D01*
X82413200Y-79286519D01*
X82412898Y-79289577D01*
X82412438Y-79290845D01*
X82412541Y-79293204D01*
X82411279Y-79306028D01*
X79896993Y-79306028D01*
X79895072Y-79286519D01*
X79880140Y-79250471D01*
X79852550Y-79222881D01*
X79816502Y-79207949D01*
X79777484Y-79207949D01*
X79741436Y-79222881D01*
X79713846Y-79250471D01*
X79698914Y-79286519D01*
X79696993Y-79306028D01*
X76754136Y-79306028D01*
X76752215Y-79286519D01*
X76737283Y-79250471D01*
X76709693Y-79222881D01*
X76673645Y-79207949D01*
X76634627Y-79207949D01*
X76598579Y-79222881D01*
X76570989Y-79250471D01*
X76556057Y-79286519D01*
X76554136Y-79306028D01*
X73539850Y-79306028D01*
X73537929Y-79286519D01*
X73522997Y-79250471D01*
X73495407Y-79222881D01*
X73459359Y-79207949D01*
X73420341Y-79207949D01*
X73384293Y-79222881D01*
X73356703Y-79250471D01*
X73341771Y-79286519D01*
X73339850Y-79306028D01*
X70825564Y-79306028D01*
X70823643Y-79286519D01*
X70808711Y-79250471D01*
X70781121Y-79222881D01*
X70745073Y-79207949D01*
X70706055Y-79207949D01*
X70670007Y-79222881D01*
X70642417Y-79250471D01*
X70627485Y-79286519D01*
X70625564Y-79306028D01*
X64938412Y-79306028D01*
X64867703Y-79235318D01*
X64852550Y-79222881D01*
X64837618Y-79216696D01*
X64816501Y-79207949D01*
X64777483Y-79207949D01*
X64766925Y-79212322D01*
X64741435Y-79222880D01*
X64741429Y-79222885D01*
X64726281Y-79235317D01*
X64654852Y-79306746D01*
X64642420Y-79321894D01*
X64642415Y-79321900D01*
X64640909Y-79325537D01*
X64627484Y-79357948D01*
X62895070Y-79357948D01*
X62889165Y-79343692D01*
X62884465Y-79328997D01*
X62881749Y-79325787D01*
X62880139Y-79321900D01*
X62867702Y-79306747D01*
X62796274Y-79235318D01*
X62781121Y-79222881D01*
X62766189Y-79216696D01*
X62745072Y-79207949D01*
X62706054Y-79207949D01*
X62695496Y-79212322D01*
X62670006Y-79222880D01*
X62670000Y-79222885D01*
X62654852Y-79235317D01*
X62583423Y-79306746D01*
X62570987Y-79321900D01*
X62569377Y-79325785D01*
X62566660Y-79328997D01*
X62561959Y-79343693D01*
X62556055Y-79357948D01*
X62556055Y-79362154D01*
X62554774Y-79366160D01*
X62554479Y-79385762D01*
X62387812Y-79385762D01*
X62387812Y-79040520D01*
X83777946Y-79040520D01*
X83777946Y-81072695D01*
G37*
D11*
G36*
X87206878Y-74521318D02*
G01*
X87486388Y-74707657D01*
X87672727Y-74987167D01*
X87766115Y-75360713D01*
X87672727Y-75734259D01*
X87486388Y-76013769D01*
X87206878Y-76200108D01*
X86833331Y-76293495D01*
X86459786Y-76200108D01*
X86283300Y-76082451D01*
X86286868Y-76082100D01*
X86354306Y-76054165D01*
X86364386Y-76060511D01*
X86602482Y-76179559D01*
X86648254Y-76197074D01*
X86657213Y-76197710D01*
X86665512Y-76201148D01*
X86714285Y-76205952D01*
X86952380Y-76205952D01*
X87001153Y-76201148D01*
X87009451Y-76197710D01*
X87018411Y-76197074D01*
X87064183Y-76179559D01*
X87302279Y-76060511D01*
X87323271Y-76047296D01*
X87329368Y-76044771D01*
X87336234Y-76039136D01*
X87343755Y-76034402D01*
X87348080Y-76029415D01*
X87367253Y-76013681D01*
X87486300Y-75894634D01*
X87502035Y-75875459D01*
X87507021Y-75871136D01*
X87511752Y-75863619D01*
X87517391Y-75856749D01*
X87519917Y-75850648D01*
X87533130Y-75829660D01*
X87652178Y-75591565D01*
X87669693Y-75545792D01*
X87670329Y-75536832D01*
X87673767Y-75528534D01*
X87678571Y-75479761D01*
X87678571Y-75241666D01*
X87673767Y-75192893D01*
X87670329Y-75184594D01*
X87669693Y-75175635D01*
X87652178Y-75129863D01*
X87533130Y-74891767D01*
X87519916Y-74870776D01*
X87517391Y-74864680D01*
X87511755Y-74857812D01*
X87507021Y-74850292D01*
X87502034Y-74845967D01*
X87486301Y-74826795D01*
X87367253Y-74707747D01*
X87348080Y-74692011D01*
X87343754Y-74687024D01*
X87336235Y-74682290D01*
X87329369Y-74676656D01*
X87323270Y-74674129D01*
X87302279Y-74660916D01*
X87064183Y-74541869D01*
X87018410Y-74524354D01*
X87009451Y-74523717D01*
X87001153Y-74520280D01*
X86952380Y-74515476D01*
X86714285Y-74515476D01*
X86665512Y-74520280D01*
X86657213Y-74523717D01*
X86648254Y-74524354D01*
X86602482Y-74541869D01*
X86521023Y-74582597D01*
X86496035Y-74557609D01*
X86440102Y-74534440D01*
X86459786Y-74521318D01*
X86833332Y-74427932D01*
X87206878Y-74521318D01*
G37*
G36*
X87042386Y-75089987D02*
G01*
X87104058Y-75151658D01*
X87178571Y-75300682D01*
X87178571Y-75420744D01*
X87104060Y-75569766D01*
X87042385Y-75631440D01*
X86893363Y-75705952D01*
X86773302Y-75705952D01*
X86624277Y-75631439D01*
X86607142Y-75614303D01*
X86607142Y-75107124D01*
X86624279Y-75089986D01*
X86773302Y-75015476D01*
X86893363Y-75015476D01*
X87042386Y-75089987D01*
G37*
G36*
X86107142Y-75551443D02*
G01*
X86067291Y-75531518D01*
X86011904Y-75420743D01*
X86011904Y-74960216D01*
X86107142Y-74817359D01*
X86107142Y-75551443D01*
G37*
G36*
X63590004Y-74851891D02*
G01*
X63651676Y-74913563D01*
X63726189Y-75062587D01*
X63726189Y-75658840D01*
X63651676Y-75807864D01*
X63590004Y-75869536D01*
X63440982Y-75944047D01*
X63201873Y-75944047D01*
X63052850Y-75869536D01*
X62991177Y-75807863D01*
X62916665Y-75658839D01*
X62916665Y-75062589D01*
X62991177Y-74913565D01*
X63052851Y-74851891D01*
X63201873Y-74777380D01*
X63440981Y-74777380D01*
X63590004Y-74851891D01*
G37*
G36*
X72837468Y-75547052D02*
G01*
X72892856Y-75657825D01*
X72892856Y-75777887D01*
X72837469Y-75888660D01*
X72726696Y-75944047D01*
X72249492Y-75944047D01*
X72202380Y-75920491D01*
X72202380Y-75491666D01*
X72726695Y-75491666D01*
X72837468Y-75547052D01*
G37*
G36*
X84504135Y-75547052D02*
G01*
X84559523Y-75657825D01*
X84559523Y-75777887D01*
X84504136Y-75888660D01*
X84393363Y-75944047D01*
X83916159Y-75944047D01*
X83869047Y-75920491D01*
X83869047Y-75491666D01*
X84393362Y-75491666D01*
X84504135Y-75547052D01*
G37*
G36*
X62161433Y-69993699D02*
G01*
X62223106Y-70055372D01*
X62311736Y-70232633D01*
X62416665Y-70652343D01*
X62416665Y-71186030D01*
X62311736Y-71605740D01*
X62223106Y-71783002D01*
X62161431Y-71844676D01*
X62012410Y-71919187D01*
X61892349Y-71919187D01*
X61743326Y-71844676D01*
X61681653Y-71783003D01*
X61593021Y-71605739D01*
X61488094Y-71186028D01*
X61488094Y-70652345D01*
X61593021Y-70232634D01*
X61681652Y-70055372D01*
X61743327Y-69993698D01*
X61892349Y-69919187D01*
X62012409Y-69919187D01*
X62161433Y-69993699D01*
G37*
G36*
X68313658Y-70807906D02*
G01*
X68369046Y-70918679D01*
X68369046Y-71030903D01*
X67690329Y-70895160D01*
X67733956Y-70807906D01*
X67844730Y-70752520D01*
X68202885Y-70752520D01*
X68313658Y-70807906D01*
G37*
G36*
X74780481Y-70827031D02*
G01*
X74842153Y-70888703D01*
X74916666Y-71037727D01*
X74916666Y-71633980D01*
X74842153Y-71783004D01*
X74780481Y-71844676D01*
X74631459Y-71919187D01*
X74392350Y-71919187D01*
X74243327Y-71844676D01*
X74181654Y-71783003D01*
X74107142Y-71633979D01*
X74107142Y-71037729D01*
X74181654Y-70888705D01*
X74243328Y-70827031D01*
X74392350Y-70752520D01*
X74631458Y-70752520D01*
X74780481Y-70827031D01*
G37*
G36*
X82361278Y-71522192D02*
G01*
X82416666Y-71632965D01*
X82416666Y-71753027D01*
X82361279Y-71863800D01*
X82250506Y-71919187D01*
X81773302Y-71919187D01*
X81726190Y-71895631D01*
X81726190Y-71466806D01*
X82250505Y-71466806D01*
X82361278Y-71522192D01*
G37*
G36*
X88551587Y-77555158D02*
G01*
X57143692Y-77555158D01*
X57143692Y-75003571D01*
X62416665Y-75003571D01*
X62416665Y-75717857D01*
X62421469Y-75766630D01*
X62424906Y-75774928D01*
X62425543Y-75783888D01*
X62443058Y-75829661D01*
X62562107Y-76067756D01*
X62575319Y-76088745D01*
X62577845Y-76094843D01*
X62583478Y-76101707D01*
X62588215Y-76109232D01*
X62593205Y-76113560D01*
X62608936Y-76132728D01*
X62727983Y-76251776D01*
X62747155Y-76267511D01*
X62751482Y-76272499D01*
X62759000Y-76277232D01*
X62765867Y-76282867D01*
X62771965Y-76285393D01*
X62792957Y-76298607D01*
X63031053Y-76417654D01*
X63076826Y-76435169D01*
X63085784Y-76435805D01*
X63094083Y-76439243D01*
X63142856Y-76444047D01*
X63499999Y-76444047D01*
X63548772Y-76439243D01*
X63557070Y-76435805D01*
X63566030Y-76435169D01*
X63611802Y-76417654D01*
X63849897Y-76298607D01*
X63870886Y-76285394D01*
X63876987Y-76282867D01*
X63883857Y-76277228D01*
X63891372Y-76272498D01*
X63895695Y-76267513D01*
X63914871Y-76251776D01*
X64033919Y-76132728D01*
X64049652Y-76113555D01*
X64054639Y-76109231D01*
X64059373Y-76101710D01*
X64065009Y-76094843D01*
X64067534Y-76088746D01*
X64080748Y-76067756D01*
X64199796Y-75829660D01*
X64217311Y-75783888D01*
X64217947Y-75774928D01*
X64221385Y-75766630D01*
X64226189Y-75717857D01*
X64226189Y-75003571D01*
X64221385Y-74954798D01*
X64217947Y-74946499D01*
X64217311Y-74937540D01*
X64199796Y-74891768D01*
X64196173Y-74884523D01*
X64797618Y-74884523D01*
X64797618Y-76194047D01*
X64802422Y-76242820D01*
X64839751Y-76332940D01*
X64908725Y-76401914D01*
X64998845Y-76439243D01*
X65096391Y-76439243D01*
X65186511Y-76401914D01*
X65255485Y-76332940D01*
X65292814Y-76242820D01*
X65297618Y-76194047D01*
X65297618Y-74943539D01*
X65353004Y-74832766D01*
X65463778Y-74777380D01*
X65702886Y-74777380D01*
X65851909Y-74851891D01*
X65869046Y-74869028D01*
X65869046Y-76194047D01*
X65873850Y-76242820D01*
X65911179Y-76332940D01*
X65980153Y-76401914D01*
X66070273Y-76439243D01*
X66167819Y-76439243D01*
X66257939Y-76401914D01*
X66326913Y-76332940D01*
X66364242Y-76242820D01*
X66369046Y-76194047D01*
X66369046Y-74527380D01*
X67059522Y-74527380D01*
X67059522Y-76194047D01*
X67064326Y-76242820D01*
X67101655Y-76332940D01*
X67170629Y-76401914D01*
X67260749Y-76439243D01*
X67358295Y-76439243D01*
X67448415Y-76401914D01*
X67517389Y-76332940D01*
X67554718Y-76242820D01*
X67559522Y-76194047D01*
X67559522Y-76026229D01*
X68135754Y-76026229D01*
X68135755Y-76123773D01*
X68173084Y-76213893D01*
X68173088Y-76213897D01*
X68204174Y-76251777D01*
X68323221Y-76370824D01*
X68361106Y-76401915D01*
X68404744Y-76419990D01*
X68451225Y-76439243D01*
X68548769Y-76439244D01*
X68616384Y-76411237D01*
X68638890Y-76401915D01*
X68638894Y-76401910D01*
X68676774Y-76370824D01*
X68795822Y-76251777D01*
X68826913Y-76213893D01*
X68864242Y-76123773D01*
X68864243Y-76026229D01*
X68826914Y-75936109D01*
X68826912Y-75936107D01*
X68795822Y-75898223D01*
X68676775Y-75779175D01*
X68638895Y-75748089D01*
X68638891Y-75748085D01*
X68600892Y-75732345D01*
X68548769Y-75710755D01*
X68451225Y-75710756D01*
X68361105Y-75748085D01*
X68323221Y-75779176D01*
X68204174Y-75898224D01*
X68173083Y-75936109D01*
X68135754Y-76026229D01*
X67559522Y-76026229D01*
X67559522Y-74884523D01*
X69440475Y-74884523D01*
X69440475Y-76194047D01*
X69445279Y-76242820D01*
X69482608Y-76332940D01*
X69551582Y-76401914D01*
X69641702Y-76439243D01*
X69739248Y-76439243D01*
X69829368Y-76401914D01*
X69898342Y-76332940D01*
X69935671Y-76242820D01*
X69940475Y-76194047D01*
X69940475Y-74943539D01*
X69995861Y-74832766D01*
X70106635Y-74777380D01*
X70345743Y-74777380D01*
X70494766Y-74851891D01*
X70511903Y-74869028D01*
X70511903Y-76194047D01*
X70516707Y-76242820D01*
X70554036Y-76332940D01*
X70623010Y-76401914D01*
X70713130Y-76439243D01*
X70810676Y-76439243D01*
X70900796Y-76401914D01*
X70969770Y-76332940D01*
X71007099Y-76242820D01*
X71011903Y-76194047D01*
X71011903Y-74884523D01*
X71702380Y-74884523D01*
X71702380Y-76194047D01*
X71707184Y-76242820D01*
X71744513Y-76332940D01*
X71813487Y-76401914D01*
X71903607Y-76439243D01*
X72001153Y-76439243D01*
X72067164Y-76411900D01*
X72078672Y-76417654D01*
X72124444Y-76435169D01*
X72133403Y-76435805D01*
X72141702Y-76439243D01*
X72190475Y-76444047D01*
X72785713Y-76444047D01*
X72834486Y-76439243D01*
X72842784Y-76435805D01*
X72851744Y-76435169D01*
X72897516Y-76417654D01*
X73135611Y-76298607D01*
X73143763Y-76293474D01*
X73147615Y-76292191D01*
X73152412Y-76288030D01*
X73177086Y-76272498D01*
X73197621Y-76248820D01*
X73221306Y-76228279D01*
X73236842Y-76203598D01*
X73240998Y-76198807D01*
X73242280Y-76194959D01*
X73247415Y-76186803D01*
X73366463Y-75948708D01*
X73383978Y-75902935D01*
X73384614Y-75893975D01*
X73388052Y-75885677D01*
X73392856Y-75836904D01*
X73392856Y-75598809D01*
X73388052Y-75550036D01*
X73384614Y-75541737D01*
X73383978Y-75532778D01*
X73366463Y-75487006D01*
X73247415Y-75248910D01*
X73242281Y-75240755D01*
X73240999Y-75236908D01*
X73236842Y-75232115D01*
X73221306Y-75207435D01*
X73197626Y-75186898D01*
X73177088Y-75163216D01*
X73152410Y-75147682D01*
X73147615Y-75143523D01*
X73143763Y-75142239D01*
X73135612Y-75137108D01*
X72897517Y-75018059D01*
X72851744Y-75000544D01*
X72842784Y-74999907D01*
X72834486Y-74996470D01*
X72785713Y-74991666D01*
X72249492Y-74991666D01*
X72202380Y-74968110D01*
X72202380Y-74943539D01*
X72257766Y-74832766D01*
X72368540Y-74777380D01*
X72726695Y-74777380D01*
X72912005Y-74870035D01*
X72957777Y-74887550D01*
X73055077Y-74894465D01*
X73147615Y-74863619D01*
X73221306Y-74799707D01*
X73264930Y-74712460D01*
X73271845Y-74615160D01*
X73242585Y-74527380D01*
X73964284Y-74527380D01*
X73964284Y-76194047D01*
X73969088Y-76242820D01*
X74006417Y-76332940D01*
X74075391Y-76401914D01*
X74165511Y-76439243D01*
X74263057Y-76439243D01*
X74353177Y-76401914D01*
X74422151Y-76332940D01*
X74459480Y-76242820D01*
X74464284Y-76194047D01*
X74464284Y-76162778D01*
X74918629Y-76162778D01*
X74925544Y-76260078D01*
X74969168Y-76347326D01*
X75042859Y-76411237D01*
X75135397Y-76442084D01*
X75232697Y-76435169D01*
X75278469Y-76417654D01*
X75516564Y-76298607D01*
X75524718Y-76293473D01*
X75528569Y-76292190D01*
X75533364Y-76288030D01*
X75558039Y-76272498D01*
X75578574Y-76248820D01*
X75602260Y-76228278D01*
X75617795Y-76203598D01*
X75621951Y-76198807D01*
X75623233Y-76194959D01*
X75628368Y-76186803D01*
X75747415Y-75948707D01*
X75764930Y-75902934D01*
X75765566Y-75893975D01*
X75769004Y-75885677D01*
X75773808Y-75836904D01*
X75773808Y-74527380D01*
X76464285Y-74527380D01*
X76464285Y-76194047D01*
X76469089Y-76242820D01*
X76506418Y-76332940D01*
X76575392Y-76401914D01*
X76665512Y-76439243D01*
X76763058Y-76439243D01*
X76853178Y-76401914D01*
X76878166Y-76376925D01*
X76959625Y-76417654D01*
X77005398Y-76435169D01*
X77014356Y-76435805D01*
X77022655Y-76439243D01*
X77071428Y-76444047D01*
X77428571Y-76444047D01*
X77477344Y-76439243D01*
X77485642Y-76435805D01*
X77494602Y-76435169D01*
X77540374Y-76417654D01*
X77778469Y-76298607D01*
X77786623Y-76293473D01*
X77790474Y-76292190D01*
X77795269Y-76288030D01*
X77819944Y-76272498D01*
X77840479Y-76248820D01*
X77864165Y-76228278D01*
X77879700Y-76203598D01*
X77883856Y-76198807D01*
X77885138Y-76194959D01*
X77890273Y-76186803D01*
X78009320Y-75948707D01*
X78026835Y-75902934D01*
X78027471Y-75893975D01*
X78030909Y-75885677D01*
X78035713Y-75836904D01*
X78035713Y-74527380D01*
X78726189Y-74527380D01*
X78726189Y-76670238D01*
X78730993Y-76719011D01*
X78734430Y-76727309D01*
X78735067Y-76736269D01*
X78752582Y-76782042D01*
X78871631Y-77020137D01*
X78876764Y-77028291D01*
X78878047Y-77032140D01*
X78882202Y-77036931D01*
X78897739Y-77061613D01*
X78921422Y-77082152D01*
X78941958Y-77105831D01*
X78966637Y-77121366D01*
X78971431Y-77125524D01*
X78975279Y-77126806D01*
X78983434Y-77131940D01*
X79221529Y-77250987D01*
X79267301Y-77268502D01*
X79276260Y-77269138D01*
X79284559Y-77272576D01*
X79333332Y-77277380D01*
X79452380Y-77277380D01*
X79501153Y-77272576D01*
X79591273Y-77235247D01*
X79660247Y-77166273D01*
X79697576Y-77076153D01*
X79697576Y-76978607D01*
X79660247Y-76888487D01*
X79591273Y-76819513D01*
X79501153Y-76782184D01*
X79452380Y-76777380D01*
X79392349Y-76777380D01*
X79281575Y-76721993D01*
X79226189Y-76611220D01*
X79226189Y-74527380D01*
X79221385Y-74478607D01*
X79564327Y-74478607D01*
X79564327Y-74576153D01*
X79601656Y-74666273D01*
X79670630Y-74735247D01*
X79760750Y-74772576D01*
X79809523Y-74777380D01*
X79988600Y-74777380D01*
X80137622Y-74851891D01*
X80199297Y-74913565D01*
X80273808Y-75062587D01*
X80273808Y-76194047D01*
X80278612Y-76242820D01*
X80315941Y-76332940D01*
X80384915Y-76401914D01*
X80475035Y-76439243D01*
X80572581Y-76439243D01*
X80662701Y-76401914D01*
X80731675Y-76332940D01*
X80769004Y-76242820D01*
X80773808Y-76194047D01*
X80773808Y-74563917D01*
X81228874Y-74563917D01*
X81240754Y-74611464D01*
X81835993Y-76278131D01*
X81856921Y-76322447D01*
X81865340Y-76331747D01*
X81870713Y-76343089D01*
X81897834Y-76367640D01*
X81922386Y-76394762D01*
X81933727Y-76400134D01*
X81943028Y-76408554D01*
X81977472Y-76420855D01*
X82010540Y-76436519D01*
X82023075Y-76437142D01*
X82034891Y-76441362D01*
X82071421Y-76439546D01*
X82107965Y-76441363D01*
X82119783Y-76437141D01*
X82132316Y-76436519D01*
X82165380Y-76420857D01*
X82199828Y-76408554D01*
X82209128Y-76400134D01*
X82220470Y-76394762D01*
X82245021Y-76367640D01*
X82272143Y-76343089D01*
X82277515Y-76331747D01*
X82285935Y-76322447D01*
X82306863Y-76278131D01*
X82804580Y-74884523D01*
X83369047Y-74884523D01*
X83369047Y-76194047D01*
X83373851Y-76242820D01*
X83411180Y-76332940D01*
X83480154Y-76401914D01*
X83570274Y-76439243D01*
X83667820Y-76439243D01*
X83733831Y-76411900D01*
X83745339Y-76417654D01*
X83791111Y-76435169D01*
X83800070Y-76435805D01*
X83808369Y-76439243D01*
X83857142Y-76444047D01*
X84452380Y-76444047D01*
X84501153Y-76439243D01*
X84509451Y-76435805D01*
X84518411Y-76435169D01*
X84564183Y-76417654D01*
X84802278Y-76298607D01*
X84810430Y-76293474D01*
X84814282Y-76292191D01*
X84819079Y-76288030D01*
X84843753Y-76272498D01*
X84864288Y-76248820D01*
X84887973Y-76228279D01*
X84903509Y-76203598D01*
X84907665Y-76198807D01*
X84908947Y-76194959D01*
X84914082Y-76186803D01*
X85033130Y-75948708D01*
X85050645Y-75902935D01*
X85051281Y-75893975D01*
X85054719Y-75885677D01*
X85059523Y-75836904D01*
X85059523Y-75598809D01*
X85054719Y-75550036D01*
X85051281Y-75541737D01*
X85050645Y-75532778D01*
X85033130Y-75487006D01*
X84914082Y-75248910D01*
X84908948Y-75240755D01*
X84907666Y-75236908D01*
X84903509Y-75232115D01*
X84887973Y-75207435D01*
X84864293Y-75186898D01*
X84843755Y-75163216D01*
X84819077Y-75147682D01*
X84814282Y-75143523D01*
X84810430Y-75142239D01*
X84802279Y-75137108D01*
X84564184Y-75018059D01*
X84518411Y-75000544D01*
X84509451Y-74999907D01*
X84501153Y-74996470D01*
X84452380Y-74991666D01*
X83916159Y-74991666D01*
X83869047Y-74968110D01*
X83869047Y-74943539D01*
X83924433Y-74832766D01*
X84035207Y-74777380D01*
X84393362Y-74777380D01*
X84578672Y-74870035D01*
X84624444Y-74887550D01*
X84721744Y-74894465D01*
X84751570Y-74884523D01*
X85511904Y-74884523D01*
X85511904Y-75479761D01*
X85516708Y-75528534D01*
X85520145Y-75536832D01*
X85520782Y-75545792D01*
X85538297Y-75591564D01*
X85657345Y-75829660D01*
X85662479Y-75837816D01*
X85663762Y-75841664D01*
X85667918Y-75846456D01*
X85683454Y-75871136D01*
X85707134Y-75891674D01*
X85727673Y-75915355D01*
X85752352Y-75930890D01*
X85757145Y-75935047D01*
X85760992Y-75936329D01*
X85769149Y-75941464D01*
X85864969Y-75989374D01*
X85823039Y-76017455D01*
X85768930Y-76098618D01*
X85750000Y-76194309D01*
X85769130Y-76289959D01*
X85823408Y-76371008D01*
X85861325Y-76402059D01*
X86218466Y-76640154D01*
X86245390Y-76654508D01*
X86250356Y-76658188D01*
X86256224Y-76660284D01*
X86261713Y-76663211D01*
X86267765Y-76664408D01*
X86296508Y-76674678D01*
X86772699Y-76793726D01*
X86821181Y-76800894D01*
X86833333Y-76799085D01*
X86845485Y-76800894D01*
X86893967Y-76793726D01*
X87370158Y-76674677D01*
X87398891Y-76664410D01*
X87404952Y-76663212D01*
X87410446Y-76660282D01*
X87416309Y-76658188D01*
X87421271Y-76654511D01*
X87448198Y-76640155D01*
X87805341Y-76402060D01*
X87843258Y-76371008D01*
X87843406Y-76370787D01*
X87843627Y-76370639D01*
X87874679Y-76332722D01*
X88112774Y-75975579D01*
X88127130Y-75948652D01*
X88130807Y-75943690D01*
X88132901Y-75937826D01*
X88135831Y-75932333D01*
X88137029Y-75926274D01*
X88147297Y-75897538D01*
X88266345Y-75421348D01*
X88273513Y-75372866D01*
X88271704Y-75360714D01*
X88273513Y-75348562D01*
X88266345Y-75300080D01*
X88147297Y-74823889D01*
X88137029Y-74795152D01*
X88135831Y-74789094D01*
X88132901Y-74783600D01*
X88130807Y-74777737D01*
X88127130Y-74772774D01*
X88112774Y-74745848D01*
X87874679Y-74388705D01*
X87843627Y-74350788D01*
X87843406Y-74350639D01*
X87843258Y-74350419D01*
X87805341Y-74319367D01*
X87448198Y-74081272D01*
X87421267Y-74066913D01*
X87416308Y-74063239D01*
X87410447Y-74061145D01*
X87404952Y-74058215D01*
X87398891Y-74057016D01*
X87370156Y-74046749D01*
X86893967Y-73927702D01*
X86845485Y-73920534D01*
X86833333Y-73922342D01*
X86821181Y-73920534D01*
X86772699Y-73927702D01*
X86296508Y-74046749D01*
X86267767Y-74057018D01*
X86261713Y-74058216D01*
X86256222Y-74061143D01*
X86250357Y-74063239D01*
X86245393Y-74066916D01*
X86218466Y-74081273D01*
X85861325Y-74319368D01*
X85823408Y-74350419D01*
X85823259Y-74350640D01*
X85823039Y-74350788D01*
X85791988Y-74388705D01*
X85553892Y-74745848D01*
X85530834Y-74789094D01*
X85526080Y-74813122D01*
X85516708Y-74835750D01*
X85511904Y-74884523D01*
X84751570Y-74884523D01*
X84814282Y-74863619D01*
X84887973Y-74799707D01*
X84931597Y-74712460D01*
X84938512Y-74615160D01*
X84907666Y-74522622D01*
X84843755Y-74448930D01*
X84802279Y-74422822D01*
X84564184Y-74303773D01*
X84518411Y-74286258D01*
X84509451Y-74285621D01*
X84501153Y-74282184D01*
X84452380Y-74277380D01*
X83976190Y-74277380D01*
X83927417Y-74282184D01*
X83919118Y-74285621D01*
X83910159Y-74286258D01*
X83864386Y-74303773D01*
X83626291Y-74422821D01*
X83618134Y-74427955D01*
X83614287Y-74429238D01*
X83609495Y-74433393D01*
X83584815Y-74448930D01*
X83564273Y-74472614D01*
X83540596Y-74493150D01*
X83525063Y-74517823D01*
X83520903Y-74522621D01*
X83519619Y-74526472D01*
X83514487Y-74534625D01*
X83395440Y-74772720D01*
X83377925Y-74818492D01*
X83377288Y-74827451D01*
X83373851Y-74835750D01*
X83369047Y-74884523D01*
X82804580Y-74884523D01*
X82902101Y-74611464D01*
X82913981Y-74563917D01*
X82909138Y-74466492D01*
X82867380Y-74378338D01*
X82795066Y-74312873D01*
X82703203Y-74280065D01*
X82605778Y-74284909D01*
X82517624Y-74326666D01*
X82452159Y-74398980D01*
X82431230Y-74443296D01*
X82071427Y-75450743D01*
X81711624Y-74443296D01*
X81690696Y-74398980D01*
X81625231Y-74326665D01*
X81537077Y-74284908D01*
X81439652Y-74280065D01*
X81347789Y-74312873D01*
X81275474Y-74378338D01*
X81233717Y-74466492D01*
X81228874Y-74563917D01*
X80773808Y-74563917D01*
X80773808Y-74527380D01*
X80769004Y-74478607D01*
X80731675Y-74388487D01*
X80662701Y-74319513D01*
X80572581Y-74282184D01*
X80475035Y-74282184D01*
X80384915Y-74319513D01*
X80320243Y-74384184D01*
X80159422Y-74303773D01*
X80113649Y-74286258D01*
X80104689Y-74285621D01*
X80096391Y-74282184D01*
X80047618Y-74277380D01*
X79809523Y-74277380D01*
X79760750Y-74282184D01*
X79670630Y-74319513D01*
X79601656Y-74388487D01*
X79564327Y-74478607D01*
X79221385Y-74478607D01*
X79184056Y-74388487D01*
X79115082Y-74319513D01*
X79024962Y-74282184D01*
X78927416Y-74282184D01*
X78837296Y-74319513D01*
X78768322Y-74388487D01*
X78730993Y-74478607D01*
X78726189Y-74527380D01*
X78035713Y-74527380D01*
X78030909Y-74478607D01*
X77993580Y-74388487D01*
X77924606Y-74319513D01*
X77834486Y-74282184D01*
X77736940Y-74282184D01*
X77646820Y-74319513D01*
X77577846Y-74388487D01*
X77540517Y-74478607D01*
X77535713Y-74527380D01*
X77535713Y-75777887D01*
X77480326Y-75888660D01*
X77369554Y-75944047D01*
X77130445Y-75944047D01*
X76981422Y-75869536D01*
X76964285Y-75852399D01*
X76964285Y-74527380D01*
X76959481Y-74478607D01*
X76922152Y-74388487D01*
X76853178Y-74319513D01*
X76763058Y-74282184D01*
X76665512Y-74282184D01*
X76575392Y-74319513D01*
X76506418Y-74388487D01*
X76469089Y-74478607D01*
X76464285Y-74527380D01*
X75773808Y-74527380D01*
X75773808Y-73764324D01*
X78611945Y-73764324D01*
X78611946Y-73861868D01*
X78649275Y-73951988D01*
X78649279Y-73951992D01*
X78680365Y-73989872D01*
X78799412Y-74108919D01*
X78837297Y-74140010D01*
X78890088Y-74161876D01*
X78927416Y-74177338D01*
X79024960Y-74177339D01*
X79077752Y-74155471D01*
X79115081Y-74140010D01*
X79115085Y-74140005D01*
X79152965Y-74108919D01*
X79272013Y-73989872D01*
X79303104Y-73951988D01*
X79340433Y-73861868D01*
X79340434Y-73764324D01*
X79303105Y-73674204D01*
X79303103Y-73674202D01*
X79272013Y-73636318D01*
X79152966Y-73517270D01*
X79115086Y-73486184D01*
X79115082Y-73486180D01*
X79024962Y-73448851D01*
X79024960Y-73448850D01*
X78927416Y-73448851D01*
X78837296Y-73486180D01*
X78799412Y-73517271D01*
X78680365Y-73636319D01*
X78649274Y-73674204D01*
X78611945Y-73764324D01*
X75773808Y-73764324D01*
X75773808Y-73694047D01*
X75769004Y-73645274D01*
X75731675Y-73555154D01*
X75662701Y-73486180D01*
X75572581Y-73448851D01*
X75475035Y-73448851D01*
X75384915Y-73486180D01*
X75315941Y-73555154D01*
X75278612Y-73645274D01*
X75273808Y-73694047D01*
X75273808Y-75777887D01*
X75218421Y-75888660D01*
X75054863Y-75970440D01*
X75013387Y-75996549D01*
X74949476Y-76070240D01*
X74918629Y-76162778D01*
X74464284Y-76162778D01*
X74464284Y-74527380D01*
X74459480Y-74478607D01*
X74422151Y-74388487D01*
X74353177Y-74319513D01*
X74263057Y-74282184D01*
X74165511Y-74282184D01*
X74075391Y-74319513D01*
X74006417Y-74388487D01*
X73969088Y-74478607D01*
X73964284Y-74527380D01*
X73242585Y-74527380D01*
X73240999Y-74522622D01*
X73177088Y-74448930D01*
X73135612Y-74422822D01*
X72897517Y-74303773D01*
X72851744Y-74286258D01*
X72842784Y-74285621D01*
X72834486Y-74282184D01*
X72785713Y-74277380D01*
X72309523Y-74277380D01*
X72260750Y-74282184D01*
X72252451Y-74285621D01*
X72243492Y-74286258D01*
X72197719Y-74303773D01*
X71959624Y-74422821D01*
X71951467Y-74427955D01*
X71947620Y-74429238D01*
X71942828Y-74433393D01*
X71918148Y-74448930D01*
X71897606Y-74472614D01*
X71873929Y-74493150D01*
X71858396Y-74517823D01*
X71854236Y-74522621D01*
X71852952Y-74526472D01*
X71847820Y-74534625D01*
X71728773Y-74772720D01*
X71711258Y-74818492D01*
X71710621Y-74827451D01*
X71707184Y-74835750D01*
X71702380Y-74884523D01*
X71011903Y-74884523D01*
X71011903Y-74527380D01*
X71007099Y-74478607D01*
X70969770Y-74388487D01*
X70900796Y-74319513D01*
X70810676Y-74282184D01*
X70713130Y-74282184D01*
X70623010Y-74319513D01*
X70598021Y-74344501D01*
X70516565Y-74303773D01*
X70470792Y-74286258D01*
X70461832Y-74285621D01*
X70453534Y-74282184D01*
X70404761Y-74277380D01*
X70047618Y-74277380D01*
X69998845Y-74282184D01*
X69990546Y-74285621D01*
X69981587Y-74286258D01*
X69935814Y-74303773D01*
X69697719Y-74422821D01*
X69689562Y-74427955D01*
X69685715Y-74429238D01*
X69680923Y-74433393D01*
X69656243Y-74448930D01*
X69635701Y-74472614D01*
X69612024Y-74493150D01*
X69596491Y-74517823D01*
X69592331Y-74522621D01*
X69591047Y-74526472D01*
X69585915Y-74534625D01*
X69466868Y-74772720D01*
X69449353Y-74818492D01*
X69448716Y-74827451D01*
X69445279Y-74835750D01*
X69440475Y-74884523D01*
X67559522Y-74884523D01*
X67559522Y-74527380D01*
X67554718Y-74478607D01*
X67517389Y-74388487D01*
X67448415Y-74319513D01*
X67358295Y-74282184D01*
X67260749Y-74282184D01*
X67170629Y-74319513D01*
X67101655Y-74388487D01*
X67064326Y-74478607D01*
X67059522Y-74527380D01*
X66369046Y-74527380D01*
X66364242Y-74478607D01*
X66326913Y-74388487D01*
X66257939Y-74319513D01*
X66167819Y-74282184D01*
X66070273Y-74282184D01*
X65980153Y-74319513D01*
X65955164Y-74344501D01*
X65873708Y-74303773D01*
X65827935Y-74286258D01*
X65818975Y-74285621D01*
X65810677Y-74282184D01*
X65761904Y-74277380D01*
X65404761Y-74277380D01*
X65355988Y-74282184D01*
X65347689Y-74285621D01*
X65338730Y-74286258D01*
X65292957Y-74303773D01*
X65054862Y-74422821D01*
X65046705Y-74427955D01*
X65042858Y-74429238D01*
X65038066Y-74433393D01*
X65013386Y-74448930D01*
X64992844Y-74472614D01*
X64969167Y-74493150D01*
X64953634Y-74517823D01*
X64949474Y-74522621D01*
X64948190Y-74526472D01*
X64943058Y-74534625D01*
X64824011Y-74772720D01*
X64806496Y-74818492D01*
X64805859Y-74827451D01*
X64802422Y-74835750D01*
X64797618Y-74884523D01*
X64196173Y-74884523D01*
X64080748Y-74653672D01*
X64067534Y-74632681D01*
X64065009Y-74626585D01*
X64059373Y-74619717D01*
X64054639Y-74612197D01*
X64049652Y-74607872D01*
X64033919Y-74588700D01*
X63914871Y-74469652D01*
X63895701Y-74453919D01*
X63891374Y-74448930D01*
X63883852Y-74444195D01*
X63876987Y-74438561D01*
X63870888Y-74436034D01*
X63849898Y-74422822D01*
X63611803Y-74303773D01*
X63566030Y-74286258D01*
X63557070Y-74285621D01*
X63548772Y-74282184D01*
X63499999Y-74277380D01*
X63142856Y-74277380D01*
X63094083Y-74282184D01*
X63085784Y-74285621D01*
X63076825Y-74286258D01*
X63031052Y-74303773D01*
X62792957Y-74422821D01*
X62771966Y-74436034D01*
X62765867Y-74438561D01*
X62758999Y-74444197D01*
X62751481Y-74448930D01*
X62747155Y-74453917D01*
X62727983Y-74469652D01*
X62608936Y-74588700D01*
X62593205Y-74607867D01*
X62588215Y-74612196D01*
X62583478Y-74619720D01*
X62577845Y-74626585D01*
X62575319Y-74632682D01*
X62562107Y-74653672D01*
X62443058Y-74891767D01*
X62425543Y-74937540D01*
X62424906Y-74946499D01*
X62421469Y-74954798D01*
X62416665Y-75003571D01*
X57143692Y-75003571D01*
X57143692Y-73764324D01*
X66945278Y-73764324D01*
X66945279Y-73861868D01*
X66982608Y-73951988D01*
X66982612Y-73951992D01*
X67013698Y-73989872D01*
X67132745Y-74108919D01*
X67170630Y-74140010D01*
X67223421Y-74161876D01*
X67260749Y-74177338D01*
X67358293Y-74177339D01*
X67411085Y-74155471D01*
X67448414Y-74140010D01*
X67448418Y-74140005D01*
X67486298Y-74108919D01*
X67605346Y-73989872D01*
X67636437Y-73951988D01*
X67673766Y-73861868D01*
X67673767Y-73764324D01*
X73850040Y-73764324D01*
X73850041Y-73861868D01*
X73887370Y-73951988D01*
X73887374Y-73951992D01*
X73918460Y-73989872D01*
X74037507Y-74108919D01*
X74075392Y-74140010D01*
X74128183Y-74161876D01*
X74165511Y-74177338D01*
X74263055Y-74177339D01*
X74315847Y-74155471D01*
X74353176Y-74140010D01*
X74353180Y-74140005D01*
X74391060Y-74108919D01*
X74510108Y-73989872D01*
X74541199Y-73951988D01*
X74578528Y-73861868D01*
X74578529Y-73764324D01*
X74541200Y-73674204D01*
X74541198Y-73674202D01*
X74510108Y-73636318D01*
X74391061Y-73517270D01*
X74353181Y-73486184D01*
X74353177Y-73486180D01*
X74263057Y-73448851D01*
X74263055Y-73448850D01*
X74165511Y-73448851D01*
X74075391Y-73486180D01*
X74037507Y-73517271D01*
X73918460Y-73636319D01*
X73887369Y-73674204D01*
X73850040Y-73764324D01*
X67673767Y-73764324D01*
X67636438Y-73674204D01*
X67636436Y-73674202D01*
X67605346Y-73636318D01*
X67486299Y-73517270D01*
X67448419Y-73486184D01*
X67448415Y-73486180D01*
X67358295Y-73448851D01*
X67358293Y-73448850D01*
X67260749Y-73448851D01*
X67170629Y-73486180D01*
X67132745Y-73517271D01*
X67013698Y-73636319D01*
X66982607Y-73674204D01*
X66945278Y-73764324D01*
X57143692Y-73764324D01*
X57143692Y-72120414D01*
X57421470Y-72120414D01*
X57421470Y-72217960D01*
X57458799Y-72308080D01*
X57527773Y-72377054D01*
X57617893Y-72414383D01*
X57666666Y-72419187D01*
X59095237Y-72419187D01*
X59144010Y-72414383D01*
X59234130Y-72377054D01*
X59303104Y-72308080D01*
X59340433Y-72217960D01*
X59340433Y-72120414D01*
X59303104Y-72030294D01*
X59274179Y-72001369D01*
X59802421Y-72001369D01*
X59802422Y-72098913D01*
X59839751Y-72189033D01*
X59839755Y-72189037D01*
X59870841Y-72226917D01*
X59989888Y-72345964D01*
X60027773Y-72377055D01*
X60080564Y-72398921D01*
X60117892Y-72414383D01*
X60215436Y-72414384D01*
X60283051Y-72386377D01*
X60305557Y-72377055D01*
X60305561Y-72377050D01*
X60343441Y-72345964D01*
X60462489Y-72226917D01*
X60493580Y-72189033D01*
X60530909Y-72098913D01*
X60530910Y-72001369D01*
X60493581Y-71911249D01*
X60493579Y-71911247D01*
X60462489Y-71873363D01*
X60343442Y-71754315D01*
X60305562Y-71723229D01*
X60305558Y-71723225D01*
X60232582Y-71692997D01*
X60215436Y-71685895D01*
X60117892Y-71685896D01*
X60027772Y-71723225D01*
X59989888Y-71754316D01*
X59870841Y-71873364D01*
X59839750Y-71911249D01*
X59802421Y-72001369D01*
X59274179Y-72001369D01*
X59234130Y-71961320D01*
X59144010Y-71923991D01*
X59095237Y-71919187D01*
X58630951Y-71919187D01*
X58630951Y-70391788D01*
X58680365Y-70441202D01*
X58699537Y-70456935D01*
X58703863Y-70461923D01*
X58711384Y-70466657D01*
X58718250Y-70472292D01*
X58724344Y-70474816D01*
X58745338Y-70488032D01*
X58983434Y-70607080D01*
X59029206Y-70624595D01*
X59126506Y-70631510D01*
X59156332Y-70621568D01*
X60988094Y-70621568D01*
X60988094Y-71216806D01*
X60988932Y-71225314D01*
X60988390Y-71228958D01*
X60991089Y-71247213D01*
X60992898Y-71265579D01*
X60994307Y-71268981D01*
X60995558Y-71277440D01*
X61114605Y-71753630D01*
X61115891Y-71757229D01*
X61116019Y-71759028D01*
X61123787Y-71779330D01*
X61131095Y-71799782D01*
X61132167Y-71801229D01*
X61133534Y-71804801D01*
X61252583Y-72042896D01*
X61265795Y-72063885D01*
X61268321Y-72069983D01*
X61273954Y-72076847D01*
X61278691Y-72084372D01*
X61283681Y-72088700D01*
X61299412Y-72107868D01*
X61418459Y-72226916D01*
X61437631Y-72242651D01*
X61441958Y-72247639D01*
X61449476Y-72252372D01*
X61456343Y-72258007D01*
X61462441Y-72260533D01*
X61483433Y-72273747D01*
X61721529Y-72392794D01*
X61767302Y-72410309D01*
X61776260Y-72410945D01*
X61784559Y-72414383D01*
X61833332Y-72419187D01*
X62071427Y-72419187D01*
X62120200Y-72414383D01*
X62128498Y-72410945D01*
X62137458Y-72410309D01*
X62183230Y-72392794D01*
X62421325Y-72273747D01*
X62442316Y-72260532D01*
X62448414Y-72258007D01*
X62455282Y-72252370D01*
X62462800Y-72247638D01*
X62467122Y-72242653D01*
X62486299Y-72226917D01*
X62605346Y-72107869D01*
X62621079Y-72088697D01*
X62626068Y-72084371D01*
X62630802Y-72076849D01*
X62636437Y-72069984D01*
X62638962Y-72063887D01*
X62652177Y-72042895D01*
X62771224Y-71804800D01*
X62772589Y-71801232D01*
X62773663Y-71799783D01*
X62780978Y-71779309D01*
X62788739Y-71759028D01*
X62788866Y-71757231D01*
X62790153Y-71753631D01*
X62909201Y-71277440D01*
X62910451Y-71268981D01*
X62911861Y-71265579D01*
X62913669Y-71247213D01*
X62916369Y-71228958D01*
X62915826Y-71225314D01*
X62916665Y-71216806D01*
X62916665Y-70621568D01*
X62915826Y-70613059D01*
X62916369Y-70609416D01*
X62913669Y-70591160D01*
X62911861Y-70572795D01*
X62910451Y-70569392D01*
X62909201Y-70560934D01*
X62903732Y-70539057D01*
X63252683Y-70539057D01*
X63264563Y-70586604D01*
X63859802Y-72253271D01*
X63880730Y-72297587D01*
X63889149Y-72306887D01*
X63894522Y-72318229D01*
X63921643Y-72342780D01*
X63946195Y-72369902D01*
X63957536Y-72375274D01*
X63966837Y-72383694D01*
X64001281Y-72395995D01*
X64034349Y-72411659D01*
X64046884Y-72412282D01*
X64058700Y-72416502D01*
X64095230Y-72414686D01*
X64131774Y-72416503D01*
X64143592Y-72412281D01*
X64156125Y-72411659D01*
X64189189Y-72395997D01*
X64223637Y-72383694D01*
X64232937Y-72375274D01*
X64244279Y-72369902D01*
X64268830Y-72342780D01*
X64295952Y-72318229D01*
X64301324Y-72306887D01*
X64309744Y-72297587D01*
X64330672Y-72253271D01*
X64828389Y-70859663D01*
X67178570Y-70859663D01*
X67178570Y-71097759D01*
X67183374Y-71146532D01*
X67192746Y-71169158D01*
X67197500Y-71193189D01*
X67211231Y-71213786D01*
X67220703Y-71236652D01*
X67238021Y-71253970D01*
X67251608Y-71274350D01*
X67272173Y-71288122D01*
X67289677Y-71305626D01*
X67312306Y-71314999D01*
X67332657Y-71328628D01*
X67379541Y-71342904D01*
X68369046Y-71540804D01*
X68369046Y-71753027D01*
X68313659Y-71863800D01*
X68202886Y-71919187D01*
X67844730Y-71919187D01*
X67659420Y-71826533D01*
X67613647Y-71809018D01*
X67516347Y-71802103D01*
X67423809Y-71832950D01*
X67350118Y-71896862D01*
X67306495Y-71984110D01*
X67299580Y-72081410D01*
X67330427Y-72173948D01*
X67394339Y-72247639D01*
X67435814Y-72273747D01*
X67673910Y-72392794D01*
X67719683Y-72410309D01*
X67728641Y-72410945D01*
X67736940Y-72414383D01*
X67785713Y-72419187D01*
X68261903Y-72419187D01*
X68310676Y-72414383D01*
X68318974Y-72410945D01*
X68327934Y-72410309D01*
X68373706Y-72392794D01*
X68611801Y-72273747D01*
X68619953Y-72268614D01*
X68623805Y-72267331D01*
X68628602Y-72263170D01*
X68653276Y-72247638D01*
X68673811Y-72223960D01*
X68697496Y-72203419D01*
X68713032Y-72178738D01*
X68717188Y-72173947D01*
X68718470Y-72170099D01*
X68723605Y-72161943D01*
X68842653Y-71923848D01*
X68860168Y-71878075D01*
X68860804Y-71869115D01*
X68864242Y-71860817D01*
X68869046Y-71812044D01*
X68869046Y-71692997D01*
X69321427Y-71692997D01*
X69321427Y-71812044D01*
X69326231Y-71860817D01*
X69329668Y-71869115D01*
X69330305Y-71878075D01*
X69347820Y-71923847D01*
X69466868Y-72161943D01*
X69472002Y-72170099D01*
X69473285Y-72173947D01*
X69477441Y-72178739D01*
X69492977Y-72203419D01*
X69516657Y-72223957D01*
X69537196Y-72247638D01*
X69561875Y-72263173D01*
X69566668Y-72267330D01*
X69570515Y-72268612D01*
X69578672Y-72273747D01*
X69816767Y-72392794D01*
X69862539Y-72410309D01*
X69871498Y-72410945D01*
X69879797Y-72414383D01*
X69928570Y-72419187D01*
X70404761Y-72419187D01*
X70453534Y-72414383D01*
X70461832Y-72410945D01*
X70470792Y-72410309D01*
X70516564Y-72392794D01*
X70754659Y-72273747D01*
X70796134Y-72247638D01*
X70860046Y-72173947D01*
X70890893Y-72081409D01*
X70883978Y-71984109D01*
X70840354Y-71896861D01*
X70766663Y-71832950D01*
X70674125Y-71802103D01*
X70576825Y-71809018D01*
X70531053Y-71826533D01*
X70345744Y-71919187D01*
X69987587Y-71919187D01*
X69876814Y-71863801D01*
X69821427Y-71753026D01*
X69821427Y-71752014D01*
X69876814Y-71641239D01*
X69987587Y-71585854D01*
X70285713Y-71585854D01*
X70334486Y-71581050D01*
X70342784Y-71577612D01*
X70351744Y-71576976D01*
X70397517Y-71559461D01*
X70635612Y-71440412D01*
X70643763Y-71435280D01*
X70647615Y-71433997D01*
X70652410Y-71429837D01*
X70677088Y-71414304D01*
X70697626Y-71390621D01*
X70721306Y-71370085D01*
X70736842Y-71345404D01*
X70740999Y-71340612D01*
X70742281Y-71336764D01*
X70747415Y-71328610D01*
X70866463Y-71090514D01*
X70883978Y-71044742D01*
X70884614Y-71035782D01*
X70888052Y-71027484D01*
X70892856Y-70978711D01*
X70892856Y-70859663D01*
X70888052Y-70810890D01*
X70884614Y-70802591D01*
X70883978Y-70793632D01*
X70866463Y-70747860D01*
X70747415Y-70509764D01*
X70742855Y-70502520D01*
X71464285Y-70502520D01*
X71464285Y-72169187D01*
X71469089Y-72217960D01*
X71506418Y-72308080D01*
X71575392Y-72377054D01*
X71665512Y-72414383D01*
X71763058Y-72414383D01*
X71853178Y-72377054D01*
X71878166Y-72352065D01*
X71959625Y-72392794D01*
X72005398Y-72410309D01*
X72014356Y-72410945D01*
X72022655Y-72414383D01*
X72071428Y-72419187D01*
X72428571Y-72419187D01*
X72477344Y-72414383D01*
X72485642Y-72410945D01*
X72494602Y-72410309D01*
X72540374Y-72392794D01*
X72778469Y-72273747D01*
X72786623Y-72268613D01*
X72790474Y-72267330D01*
X72795269Y-72263170D01*
X72819944Y-72247638D01*
X72840479Y-72223960D01*
X72864165Y-72203418D01*
X72879700Y-72178738D01*
X72883856Y-72173947D01*
X72885138Y-72170099D01*
X72890273Y-72161943D01*
X73009320Y-71923847D01*
X73026835Y-71878074D01*
X73027471Y-71869115D01*
X73030909Y-71860817D01*
X73035713Y-71812044D01*
X73035713Y-70978711D01*
X73607142Y-70978711D01*
X73607142Y-71692997D01*
X73611946Y-71741770D01*
X73615383Y-71750068D01*
X73616020Y-71759028D01*
X73633535Y-71804801D01*
X73752584Y-72042896D01*
X73765796Y-72063885D01*
X73768322Y-72069983D01*
X73773955Y-72076847D01*
X73778692Y-72084372D01*
X73783682Y-72088700D01*
X73799413Y-72107868D01*
X73918460Y-72226916D01*
X73937632Y-72242651D01*
X73941959Y-72247639D01*
X73949477Y-72252372D01*
X73956344Y-72258007D01*
X73962442Y-72260533D01*
X73983434Y-72273747D01*
X74221530Y-72392794D01*
X74267303Y-72410309D01*
X74276261Y-72410945D01*
X74284560Y-72414383D01*
X74333333Y-72419187D01*
X74690476Y-72419187D01*
X74739249Y-72414383D01*
X74747547Y-72410945D01*
X74756507Y-72410309D01*
X74802279Y-72392794D01*
X75040374Y-72273747D01*
X75061363Y-72260534D01*
X75067464Y-72258007D01*
X75074334Y-72252368D01*
X75081849Y-72247638D01*
X75086172Y-72242653D01*
X75105348Y-72226916D01*
X75224396Y-72107868D01*
X75240129Y-72088695D01*
X75245116Y-72084371D01*
X75249850Y-72076850D01*
X75255486Y-72069983D01*
X75258011Y-72063886D01*
X75271225Y-72042896D01*
X75390273Y-71804800D01*
X75407788Y-71759028D01*
X75408424Y-71750068D01*
X75411862Y-71741770D01*
X75416666Y-71692997D01*
X75416666Y-70978711D01*
X75411862Y-70929938D01*
X75408424Y-70921639D01*
X75407788Y-70912680D01*
X75390273Y-70866908D01*
X75386650Y-70859663D01*
X75988095Y-70859663D01*
X75988095Y-72169187D01*
X75992899Y-72217960D01*
X76030228Y-72308080D01*
X76099202Y-72377054D01*
X76189322Y-72414383D01*
X76286868Y-72414383D01*
X76376988Y-72377054D01*
X76445962Y-72308080D01*
X76483291Y-72217960D01*
X76488095Y-72169187D01*
X76488095Y-70918679D01*
X76543481Y-70807906D01*
X76654255Y-70752520D01*
X76893363Y-70752520D01*
X77042386Y-70827031D01*
X77059523Y-70844168D01*
X77059523Y-72169187D01*
X77064327Y-72217960D01*
X77101656Y-72308080D01*
X77170630Y-72377054D01*
X77260750Y-72414383D01*
X77358296Y-72414383D01*
X77448416Y-72377054D01*
X77517390Y-72308080D01*
X77554719Y-72217960D01*
X77559523Y-72169187D01*
X77559523Y-70453747D01*
X77897660Y-70453747D01*
X77897660Y-70551293D01*
X77934989Y-70641413D01*
X78003963Y-70710387D01*
X78094083Y-70747716D01*
X78142856Y-70752520D01*
X78488094Y-70752520D01*
X78488094Y-71753027D01*
X78432707Y-71863800D01*
X78321935Y-71919187D01*
X78142856Y-71919187D01*
X78094083Y-71923991D01*
X78003963Y-71961320D01*
X77934989Y-72030294D01*
X77897660Y-72120414D01*
X77897660Y-72217960D01*
X77934989Y-72308080D01*
X78003963Y-72377054D01*
X78094083Y-72414383D01*
X78142856Y-72419187D01*
X78380952Y-72419187D01*
X78429725Y-72414383D01*
X78438023Y-72410945D01*
X78446983Y-72410309D01*
X78492755Y-72392794D01*
X78730850Y-72273747D01*
X78739004Y-72268613D01*
X78742855Y-72267330D01*
X78747650Y-72263170D01*
X78772325Y-72247638D01*
X78792860Y-72223960D01*
X78816546Y-72203418D01*
X78832081Y-72178738D01*
X78836237Y-72173947D01*
X78837519Y-72170099D01*
X78842654Y-72161943D01*
X78961701Y-71923847D01*
X78979216Y-71878074D01*
X78979852Y-71869115D01*
X78983290Y-71860817D01*
X78988094Y-71812044D01*
X78988094Y-70752520D01*
X79095237Y-70752520D01*
X79144010Y-70747716D01*
X79234130Y-70710387D01*
X79303104Y-70641413D01*
X79333332Y-70568435D01*
X79363561Y-70641413D01*
X79432535Y-70710387D01*
X79522655Y-70747716D01*
X79571428Y-70752520D01*
X79750505Y-70752520D01*
X79899527Y-70827031D01*
X79961202Y-70888705D01*
X80035713Y-71037727D01*
X80035713Y-72169187D01*
X80040517Y-72217960D01*
X80077846Y-72308080D01*
X80146820Y-72377054D01*
X80236940Y-72414383D01*
X80334486Y-72414383D01*
X80424606Y-72377054D01*
X80493580Y-72308080D01*
X80530909Y-72217960D01*
X80535713Y-72169187D01*
X80535713Y-70859663D01*
X81226190Y-70859663D01*
X81226190Y-72169187D01*
X81230994Y-72217960D01*
X81268323Y-72308080D01*
X81337297Y-72377054D01*
X81427417Y-72414383D01*
X81524963Y-72414383D01*
X81590974Y-72387040D01*
X81602482Y-72392794D01*
X81648254Y-72410309D01*
X81657213Y-72410945D01*
X81665512Y-72414383D01*
X81714285Y-72419187D01*
X82309523Y-72419187D01*
X82358296Y-72414383D01*
X82366594Y-72410945D01*
X82375554Y-72410309D01*
X82421326Y-72392794D01*
X82659421Y-72273747D01*
X82667573Y-72268614D01*
X82671425Y-72267331D01*
X82676222Y-72263170D01*
X82700896Y-72247638D01*
X82721431Y-72223960D01*
X82745116Y-72203419D01*
X82760652Y-72178738D01*
X82764808Y-72173947D01*
X82766090Y-72170099D01*
X82771225Y-72161943D01*
X82890273Y-71923848D01*
X82907788Y-71878075D01*
X82908424Y-71869115D01*
X82911862Y-71860817D01*
X82916666Y-71812044D01*
X82916666Y-71573949D01*
X82911862Y-71525176D01*
X82908424Y-71516877D01*
X82907788Y-71507918D01*
X82890273Y-71462146D01*
X82771225Y-71224050D01*
X82766091Y-71215895D01*
X82764809Y-71212048D01*
X82760652Y-71207255D01*
X82745116Y-71182575D01*
X82721436Y-71162038D01*
X82700898Y-71138356D01*
X82676220Y-71122822D01*
X82671425Y-71118663D01*
X82667573Y-71117379D01*
X82659422Y-71112248D01*
X82421327Y-70993199D01*
X82375554Y-70975684D01*
X82366594Y-70975047D01*
X82358296Y-70971610D01*
X82309523Y-70966806D01*
X81773302Y-70966806D01*
X81726190Y-70943250D01*
X81726190Y-70918679D01*
X81781576Y-70807906D01*
X81892350Y-70752520D01*
X82250505Y-70752520D01*
X82435815Y-70845175D01*
X82481587Y-70862690D01*
X82578887Y-70869605D01*
X82608713Y-70859663D01*
X83488094Y-70859663D01*
X83488094Y-72169187D01*
X83492898Y-72217960D01*
X83530227Y-72308080D01*
X83599201Y-72377054D01*
X83689321Y-72414383D01*
X83786867Y-72414383D01*
X83876987Y-72377054D01*
X83945961Y-72308080D01*
X83983290Y-72217960D01*
X83988094Y-72169187D01*
X83988094Y-70918681D01*
X84043480Y-70807907D01*
X84154254Y-70752520D01*
X84393362Y-70752520D01*
X84504135Y-70807906D01*
X84559523Y-70918679D01*
X84559523Y-72169187D01*
X84564327Y-72217960D01*
X84601656Y-72308080D01*
X84670630Y-72377054D01*
X84760750Y-72414383D01*
X84858296Y-72414383D01*
X84948416Y-72377054D01*
X85017390Y-72308080D01*
X85054719Y-72217960D01*
X85059523Y-72169187D01*
X85059523Y-70918679D01*
X85114909Y-70807906D01*
X85225683Y-70752520D01*
X85464791Y-70752520D01*
X85613814Y-70827031D01*
X85630951Y-70844168D01*
X85630951Y-72169187D01*
X85635755Y-72217960D01*
X85673084Y-72308080D01*
X85742058Y-72377054D01*
X85832178Y-72414383D01*
X85929724Y-72414383D01*
X86019844Y-72377054D01*
X86088818Y-72308080D01*
X86126147Y-72217960D01*
X86130951Y-72169187D01*
X86130951Y-71692997D01*
X86702380Y-71692997D01*
X86702380Y-71812044D01*
X86707184Y-71860817D01*
X86710621Y-71869115D01*
X86711258Y-71878075D01*
X86728773Y-71923847D01*
X86847821Y-72161943D01*
X86852955Y-72170099D01*
X86854238Y-72173947D01*
X86858394Y-72178739D01*
X86873930Y-72203419D01*
X86897610Y-72223957D01*
X86918149Y-72247638D01*
X86942828Y-72263173D01*
X86947621Y-72267330D01*
X86951468Y-72268612D01*
X86959625Y-72273747D01*
X87197720Y-72392794D01*
X87243492Y-72410309D01*
X87252451Y-72410945D01*
X87260750Y-72414383D01*
X87309523Y-72419187D01*
X87785714Y-72419187D01*
X87834487Y-72414383D01*
X87842785Y-72410945D01*
X87851745Y-72410309D01*
X87897517Y-72392794D01*
X88135612Y-72273747D01*
X88177087Y-72247638D01*
X88240999Y-72173947D01*
X88271846Y-72081409D01*
X88264931Y-71984109D01*
X88221307Y-71896861D01*
X88147616Y-71832950D01*
X88055078Y-71802103D01*
X87957778Y-71809018D01*
X87912006Y-71826533D01*
X87726697Y-71919187D01*
X87368540Y-71919187D01*
X87257767Y-71863801D01*
X87202380Y-71753026D01*
X87202380Y-71752014D01*
X87257767Y-71641239D01*
X87368540Y-71585854D01*
X87666666Y-71585854D01*
X87715439Y-71581050D01*
X87723737Y-71577612D01*
X87732697Y-71576976D01*
X87778470Y-71559461D01*
X88016565Y-71440412D01*
X88024716Y-71435280D01*
X88028568Y-71433997D01*
X88033363Y-71429837D01*
X88058041Y-71414304D01*
X88078579Y-71390621D01*
X88102259Y-71370085D01*
X88117795Y-71345404D01*
X88121952Y-71340612D01*
X88123234Y-71336764D01*
X88128368Y-71328610D01*
X88247416Y-71090514D01*
X88264931Y-71044742D01*
X88265567Y-71035782D01*
X88269005Y-71027484D01*
X88273809Y-70978711D01*
X88273809Y-70859663D01*
X88269005Y-70810890D01*
X88265567Y-70802591D01*
X88264931Y-70793632D01*
X88247416Y-70747860D01*
X88128368Y-70509764D01*
X88123234Y-70501609D01*
X88121952Y-70497762D01*
X88117795Y-70492969D01*
X88102259Y-70468289D01*
X88078579Y-70447752D01*
X88058041Y-70424070D01*
X88033363Y-70408536D01*
X88028568Y-70404377D01*
X88024716Y-70403093D01*
X88016565Y-70397962D01*
X87778470Y-70278913D01*
X87732697Y-70261398D01*
X87723737Y-70260761D01*
X87715439Y-70257324D01*
X87666666Y-70252520D01*
X87309523Y-70252520D01*
X87260750Y-70257324D01*
X87252451Y-70260761D01*
X87243492Y-70261398D01*
X87197720Y-70278913D01*
X86959624Y-70397961D01*
X86918149Y-70424070D01*
X86854237Y-70497761D01*
X86823391Y-70590300D01*
X86830306Y-70687599D01*
X86873930Y-70774847D01*
X86947621Y-70838759D01*
X87040160Y-70869605D01*
X87137459Y-70862690D01*
X87183232Y-70845175D01*
X87368540Y-70752520D01*
X87607648Y-70752520D01*
X87718421Y-70807906D01*
X87773809Y-70918679D01*
X87773809Y-70919694D01*
X87718421Y-71030467D01*
X87607648Y-71085854D01*
X87309523Y-71085854D01*
X87260750Y-71090658D01*
X87252451Y-71094095D01*
X87243492Y-71094732D01*
X87197720Y-71112247D01*
X86959625Y-71231294D01*
X86951468Y-71236428D01*
X86947621Y-71237711D01*
X86942828Y-71241867D01*
X86918149Y-71257403D01*
X86897610Y-71281083D01*
X86873930Y-71301622D01*
X86858394Y-71326301D01*
X86854238Y-71331094D01*
X86852955Y-71334941D01*
X86847821Y-71343098D01*
X86728773Y-71581194D01*
X86711258Y-71626966D01*
X86710621Y-71635925D01*
X86707184Y-71644224D01*
X86702380Y-71692997D01*
X86130951Y-71692997D01*
X86130951Y-70502520D01*
X86126147Y-70453747D01*
X86088818Y-70363627D01*
X86019844Y-70294653D01*
X85929724Y-70257324D01*
X85832178Y-70257324D01*
X85742058Y-70294653D01*
X85717069Y-70319641D01*
X85635613Y-70278913D01*
X85589840Y-70261398D01*
X85580880Y-70260761D01*
X85572582Y-70257324D01*
X85523809Y-70252520D01*
X85166666Y-70252520D01*
X85117893Y-70257324D01*
X85109594Y-70260761D01*
X85100635Y-70261398D01*
X85054862Y-70278913D01*
X84816767Y-70397961D01*
X84809522Y-70402521D01*
X84802279Y-70397962D01*
X84564184Y-70278913D01*
X84518411Y-70261398D01*
X84509451Y-70260761D01*
X84501153Y-70257324D01*
X84452380Y-70252520D01*
X84095237Y-70252520D01*
X84046464Y-70257324D01*
X84038165Y-70260761D01*
X84029206Y-70261398D01*
X83983434Y-70278913D01*
X83745338Y-70397961D01*
X83737183Y-70403094D01*
X83733336Y-70404377D01*
X83728543Y-70408533D01*
X83703863Y-70424070D01*
X83683326Y-70447749D01*
X83659644Y-70468288D01*
X83644110Y-70492965D01*
X83639951Y-70497761D01*
X83638667Y-70501612D01*
X83633536Y-70509764D01*
X83514487Y-70747859D01*
X83496972Y-70793632D01*
X83496335Y-70802591D01*
X83492898Y-70810890D01*
X83488094Y-70859663D01*
X82608713Y-70859663D01*
X82671425Y-70838759D01*
X82745116Y-70774847D01*
X82788740Y-70687600D01*
X82795655Y-70590300D01*
X82764809Y-70497762D01*
X82700898Y-70424070D01*
X82659422Y-70397962D01*
X82421327Y-70278913D01*
X82375554Y-70261398D01*
X82366594Y-70260761D01*
X82358296Y-70257324D01*
X82309523Y-70252520D01*
X81833333Y-70252520D01*
X81784560Y-70257324D01*
X81776261Y-70260761D01*
X81767302Y-70261398D01*
X81721529Y-70278913D01*
X81483434Y-70397961D01*
X81475277Y-70403095D01*
X81471430Y-70404378D01*
X81466638Y-70408533D01*
X81441958Y-70424070D01*
X81421416Y-70447754D01*
X81397739Y-70468290D01*
X81382206Y-70492963D01*
X81378046Y-70497761D01*
X81376762Y-70501612D01*
X81371630Y-70509765D01*
X81252583Y-70747860D01*
X81235068Y-70793632D01*
X81234431Y-70802591D01*
X81230994Y-70810890D01*
X81226190Y-70859663D01*
X80535713Y-70859663D01*
X80535713Y-70502520D01*
X80530909Y-70453747D01*
X80493580Y-70363627D01*
X80424606Y-70294653D01*
X80334486Y-70257324D01*
X80236940Y-70257324D01*
X80146820Y-70294653D01*
X80082148Y-70359324D01*
X79921327Y-70278913D01*
X79875554Y-70261398D01*
X79866594Y-70260761D01*
X79858296Y-70257324D01*
X79809523Y-70252520D01*
X79571428Y-70252520D01*
X79522655Y-70257324D01*
X79432535Y-70294653D01*
X79363561Y-70363627D01*
X79333332Y-70436604D01*
X79303104Y-70363627D01*
X79234130Y-70294653D01*
X79144010Y-70257324D01*
X79095237Y-70252520D01*
X78988094Y-70252520D01*
X78988094Y-69669187D01*
X78983290Y-69620414D01*
X78945961Y-69530294D01*
X78876987Y-69461320D01*
X78786867Y-69423991D01*
X78689321Y-69423991D01*
X78599201Y-69461320D01*
X78530227Y-69530294D01*
X78492898Y-69620414D01*
X78488094Y-69669187D01*
X78488094Y-70252520D01*
X78142856Y-70252520D01*
X78094083Y-70257324D01*
X78003963Y-70294653D01*
X77934989Y-70363627D01*
X77897660Y-70453747D01*
X77559523Y-70453747D01*
X77559523Y-69669187D01*
X77554719Y-69620414D01*
X77517390Y-69530294D01*
X77448416Y-69461320D01*
X77358296Y-69423991D01*
X77260750Y-69423991D01*
X77170630Y-69461320D01*
X77101656Y-69530294D01*
X77064327Y-69620414D01*
X77059523Y-69669187D01*
X77059523Y-70277129D01*
X77018412Y-70261398D01*
X77009452Y-70260761D01*
X77001154Y-70257324D01*
X76952381Y-70252520D01*
X76595238Y-70252520D01*
X76546465Y-70257324D01*
X76538166Y-70260761D01*
X76529207Y-70261398D01*
X76483434Y-70278913D01*
X76245339Y-70397961D01*
X76237182Y-70403095D01*
X76233335Y-70404378D01*
X76228543Y-70408533D01*
X76203863Y-70424070D01*
X76183321Y-70447754D01*
X76159644Y-70468290D01*
X76144111Y-70492963D01*
X76139951Y-70497761D01*
X76138667Y-70501612D01*
X76133535Y-70509765D01*
X76014488Y-70747860D01*
X75996973Y-70793632D01*
X75996336Y-70802591D01*
X75992899Y-70810890D01*
X75988095Y-70859663D01*
X75386650Y-70859663D01*
X75271225Y-70628812D01*
X75258011Y-70607821D01*
X75255486Y-70601725D01*
X75249850Y-70594857D01*
X75245116Y-70587337D01*
X75240129Y-70583012D01*
X75224396Y-70563840D01*
X75105348Y-70444792D01*
X75086178Y-70429059D01*
X75081851Y-70424070D01*
X75074329Y-70419335D01*
X75067464Y-70413701D01*
X75061365Y-70411174D01*
X75040375Y-70397962D01*
X74802280Y-70278913D01*
X74756507Y-70261398D01*
X74747547Y-70260761D01*
X74739249Y-70257324D01*
X74690476Y-70252520D01*
X74333333Y-70252520D01*
X74284560Y-70257324D01*
X74276261Y-70260761D01*
X74267302Y-70261398D01*
X74221529Y-70278913D01*
X73983434Y-70397961D01*
X73962443Y-70411174D01*
X73956344Y-70413701D01*
X73949476Y-70419337D01*
X73941958Y-70424070D01*
X73937632Y-70429057D01*
X73918460Y-70444792D01*
X73799413Y-70563840D01*
X73783682Y-70583007D01*
X73778692Y-70587336D01*
X73773955Y-70594860D01*
X73768322Y-70601725D01*
X73765796Y-70607822D01*
X73752584Y-70628812D01*
X73633535Y-70866907D01*
X73616020Y-70912680D01*
X73615383Y-70921639D01*
X73611946Y-70929938D01*
X73607142Y-70978711D01*
X73035713Y-70978711D01*
X73035713Y-70502520D01*
X73030909Y-70453747D01*
X72993580Y-70363627D01*
X72924606Y-70294653D01*
X72834486Y-70257324D01*
X72736940Y-70257324D01*
X72646820Y-70294653D01*
X72577846Y-70363627D01*
X72540517Y-70453747D01*
X72535713Y-70502520D01*
X72535713Y-71753027D01*
X72480326Y-71863800D01*
X72369554Y-71919187D01*
X72130445Y-71919187D01*
X71981422Y-71844676D01*
X71964285Y-71827539D01*
X71964285Y-70502520D01*
X71959481Y-70453747D01*
X71922152Y-70363627D01*
X71853178Y-70294653D01*
X71763058Y-70257324D01*
X71665512Y-70257324D01*
X71575392Y-70294653D01*
X71506418Y-70363627D01*
X71469089Y-70453747D01*
X71464285Y-70502520D01*
X70742855Y-70502520D01*
X70742281Y-70501609D01*
X70740999Y-70497762D01*
X70736842Y-70492969D01*
X70721306Y-70468289D01*
X70697626Y-70447752D01*
X70677088Y-70424070D01*
X70652410Y-70408536D01*
X70647615Y-70404377D01*
X70643763Y-70403093D01*
X70635612Y-70397962D01*
X70397517Y-70278913D01*
X70351744Y-70261398D01*
X70342784Y-70260761D01*
X70334486Y-70257324D01*
X70285713Y-70252520D01*
X69928570Y-70252520D01*
X69879797Y-70257324D01*
X69871498Y-70260761D01*
X69862539Y-70261398D01*
X69816767Y-70278913D01*
X69578671Y-70397961D01*
X69537196Y-70424070D01*
X69473284Y-70497761D01*
X69442438Y-70590300D01*
X69449353Y-70687599D01*
X69492977Y-70774847D01*
X69566668Y-70838759D01*
X69659207Y-70869605D01*
X69756506Y-70862690D01*
X69802279Y-70845175D01*
X69987587Y-70752520D01*
X70226695Y-70752520D01*
X70337468Y-70807906D01*
X70392856Y-70918679D01*
X70392856Y-70919694D01*
X70337468Y-71030467D01*
X70226695Y-71085854D01*
X69928570Y-71085854D01*
X69879797Y-71090658D01*
X69871498Y-71094095D01*
X69862539Y-71094732D01*
X69816767Y-71112247D01*
X69578672Y-71231294D01*
X69570515Y-71236428D01*
X69566668Y-71237711D01*
X69561875Y-71241867D01*
X69537196Y-71257403D01*
X69516657Y-71281083D01*
X69492977Y-71301622D01*
X69477441Y-71326301D01*
X69473285Y-71331094D01*
X69472002Y-71334941D01*
X69466868Y-71343098D01*
X69347820Y-71581194D01*
X69330305Y-71626966D01*
X69329668Y-71635925D01*
X69326231Y-71644224D01*
X69321427Y-71692997D01*
X68869046Y-71692997D01*
X68869046Y-70859663D01*
X68864242Y-70810890D01*
X68860804Y-70802591D01*
X68860168Y-70793632D01*
X68842653Y-70747860D01*
X68723605Y-70509764D01*
X68718471Y-70501609D01*
X68717189Y-70497762D01*
X68713032Y-70492969D01*
X68697496Y-70468289D01*
X68673816Y-70447752D01*
X68653278Y-70424070D01*
X68628600Y-70408536D01*
X68623805Y-70404377D01*
X68619953Y-70403093D01*
X68611802Y-70397962D01*
X68373707Y-70278913D01*
X68327934Y-70261398D01*
X68318974Y-70260761D01*
X68310676Y-70257324D01*
X68261903Y-70252520D01*
X67785713Y-70252520D01*
X67736940Y-70257324D01*
X67728641Y-70260761D01*
X67719682Y-70261398D01*
X67673909Y-70278913D01*
X67435814Y-70397961D01*
X67427657Y-70403095D01*
X67423810Y-70404378D01*
X67419018Y-70408533D01*
X67394338Y-70424070D01*
X67373796Y-70447754D01*
X67350119Y-70468290D01*
X67334586Y-70492963D01*
X67330426Y-70497761D01*
X67329142Y-70501612D01*
X67324010Y-70509765D01*
X67204963Y-70747860D01*
X67187448Y-70793632D01*
X67186811Y-70802591D01*
X67183374Y-70810890D01*
X67178570Y-70859663D01*
X64828389Y-70859663D01*
X64925910Y-70586604D01*
X64937790Y-70539057D01*
X64932947Y-70441632D01*
X64891189Y-70353478D01*
X64818875Y-70288013D01*
X64727012Y-70255205D01*
X64629587Y-70260049D01*
X64541433Y-70301806D01*
X64475968Y-70374120D01*
X64455039Y-70418436D01*
X64095236Y-71425883D01*
X63735433Y-70418436D01*
X63714505Y-70374120D01*
X63649040Y-70301805D01*
X63560886Y-70260048D01*
X63463461Y-70255205D01*
X63371598Y-70288013D01*
X63299283Y-70353478D01*
X63257526Y-70441632D01*
X63252683Y-70539057D01*
X62903732Y-70539057D01*
X62790153Y-70084744D01*
X62788866Y-70081143D01*
X62788739Y-70079348D01*
X62780981Y-70059073D01*
X62773663Y-70038592D01*
X62772589Y-70037142D01*
X62771224Y-70033575D01*
X62652177Y-69795479D01*
X62638963Y-69774487D01*
X62636437Y-69768389D01*
X62630802Y-69761522D01*
X62626069Y-69754004D01*
X62621081Y-69749677D01*
X62605346Y-69730505D01*
X62486298Y-69611458D01*
X62467130Y-69595727D01*
X62462802Y-69590737D01*
X62455277Y-69586000D01*
X62448413Y-69580367D01*
X62442315Y-69577841D01*
X62421326Y-69564629D01*
X62183231Y-69445580D01*
X62137458Y-69428065D01*
X62128498Y-69427428D01*
X62120200Y-69423991D01*
X62071427Y-69419187D01*
X61833332Y-69419187D01*
X61784559Y-69423991D01*
X61776260Y-69427428D01*
X61767301Y-69428065D01*
X61721528Y-69445580D01*
X61483433Y-69564628D01*
X61462444Y-69577840D01*
X61456344Y-69580367D01*
X61449473Y-69586005D01*
X61441957Y-69590737D01*
X61437633Y-69595722D01*
X61418459Y-69611458D01*
X61299412Y-69730505D01*
X61283677Y-69749677D01*
X61278691Y-69754003D01*
X61273956Y-69761523D01*
X61268322Y-69768390D01*
X61265796Y-69774486D01*
X61252582Y-69795479D01*
X61133534Y-70033575D01*
X61132167Y-70037144D01*
X61131095Y-70038593D01*
X61123785Y-70059051D01*
X61116019Y-70079347D01*
X61115891Y-70081145D01*
X61114605Y-70084745D01*
X60995558Y-70560934D01*
X60994307Y-70569392D01*
X60992898Y-70572795D01*
X60991089Y-70591160D01*
X60988390Y-70609416D01*
X60988932Y-70613059D01*
X60988094Y-70621568D01*
X59156332Y-70621568D01*
X59219044Y-70600664D01*
X59292735Y-70536752D01*
X59336359Y-70449505D01*
X59343274Y-70352205D01*
X59312428Y-70259667D01*
X59248517Y-70185975D01*
X59207041Y-70159867D01*
X59005232Y-70058961D01*
X58813324Y-69867053D01*
X58588963Y-69530512D01*
X58588852Y-69530376D01*
X58588818Y-69530294D01*
X58588632Y-69530108D01*
X58557912Y-69492595D01*
X58537346Y-69478822D01*
X58519844Y-69461320D01*
X58497215Y-69451946D01*
X58476863Y-69438317D01*
X58452589Y-69433462D01*
X58429724Y-69423991D01*
X58405233Y-69423991D01*
X58381213Y-69419187D01*
X58356929Y-69423991D01*
X58332178Y-69423991D01*
X58309550Y-69433363D01*
X58285522Y-69438117D01*
X58264926Y-69451847D01*
X58242058Y-69461320D01*
X58224738Y-69478639D01*
X58204359Y-69492226D01*
X58190586Y-69512791D01*
X58173084Y-69530294D01*
X58163710Y-69552922D01*
X58150081Y-69573275D01*
X58145226Y-69597548D01*
X58135755Y-69620414D01*
X58131001Y-69668670D01*
X58130951Y-69668925D01*
X58130968Y-69669012D01*
X58130951Y-69669187D01*
X58130951Y-71919187D01*
X57666666Y-71919187D01*
X57617893Y-71923991D01*
X57527773Y-71961320D01*
X57458799Y-72030294D01*
X57421470Y-72120414D01*
X57143692Y-72120414D01*
X57143692Y-69141409D01*
X88551587Y-69141409D01*
X88551587Y-77555158D01*
G37*
D12*
%TO.C,REF\u002A\u002A*%
X110877237Y-86560526D02*
X115556184Y-86560526D01*
X115556184Y-85407500D01*
X110877237Y-85407500D01*
X110877237Y-86560526D01*
G36*
X115556184Y-86560526D02*
G01*
X110877237Y-86560526D01*
X110877237Y-85407500D01*
X115556184Y-85407500D01*
X115556184Y-86560526D01*
G37*
X110376744Y-78649337D02*
X110377567Y-78765066D01*
X110977885Y-79375000D01*
X111578204Y-79984934D01*
X111578641Y-80264835D01*
X111579079Y-80544737D01*
X111944663Y-80544737D01*
X111954083Y-80615756D01*
X111957650Y-80648127D01*
X111963662Y-80709087D01*
X111971799Y-80794998D01*
X111981738Y-80902226D01*
X111993157Y-81027133D01*
X112005736Y-81166083D01*
X112019153Y-81315441D01*
X112033085Y-81471568D01*
X112047212Y-81630830D01*
X112061212Y-81789590D01*
X112074763Y-81944211D01*
X112087544Y-82091057D01*
X112099233Y-82226493D01*
X112109508Y-82346880D01*
X112118048Y-82448584D01*
X112124531Y-82527967D01*
X112128636Y-82581394D01*
X112130041Y-82605229D01*
X112130040Y-82605342D01*
X112119796Y-82624466D01*
X112089026Y-82663955D01*
X112037311Y-82724266D01*
X111964233Y-82805861D01*
X111869373Y-82909198D01*
X111752313Y-83034738D01*
X111612633Y-83182940D01*
X111449916Y-83354263D01*
X111404179Y-83402237D01*
X110678805Y-84162566D01*
X110737449Y-84221052D01*
X110796092Y-84279539D01*
X110890974Y-84176310D01*
X110925685Y-84139003D01*
X110979906Y-84081311D01*
X111050059Y-84007013D01*
X111132568Y-83919889D01*
X111223855Y-83823718D01*
X111320342Y-83722280D01*
X111378065Y-83661695D01*
X111486434Y-83548197D01*
X111574028Y-83457285D01*
X111643080Y-83387307D01*
X111695824Y-83336610D01*
X111734494Y-83303540D01*
X111761323Y-83286444D01*
X111778544Y-83283669D01*
X111788392Y-83293563D01*
X111793099Y-83314471D01*
X111794899Y-83344741D01*
X111795141Y-83353002D01*
X111807658Y-83409909D01*
X111838497Y-83478693D01*
X111881503Y-83548475D01*
X111930520Y-83608378D01*
X111950134Y-83626882D01*
X112050770Y-83691628D01*
X112168327Y-83727854D01*
X112272262Y-83736447D01*
X112390049Y-83720239D01*
X112498831Y-83672712D01*
X112595110Y-83595511D01*
X112612875Y-83576295D01*
X112677832Y-83502500D01*
X113801579Y-83502500D01*
X113801579Y-83736447D01*
X114102368Y-83736447D01*
X114102368Y-83627152D01*
X114106143Y-83552539D01*
X114118825Y-83500750D01*
X114134237Y-83472580D01*
X114145250Y-83452424D01*
X114154679Y-83423200D01*
X114163151Y-83380575D01*
X114171290Y-83320217D01*
X114179721Y-83237793D01*
X114189068Y-83128972D01*
X114195469Y-83048017D01*
X114224831Y-82668732D01*
X114945659Y-83398938D01*
X115075992Y-83531066D01*
X115201108Y-83658096D01*
X115318721Y-83777695D01*
X115426545Y-83887528D01*
X115522295Y-83985263D01*
X115603683Y-84068566D01*
X115668423Y-84135104D01*
X115714230Y-84182542D01*
X115738792Y-84208520D01*
X115779145Y-84249649D01*
X115812805Y-84278335D01*
X115830910Y-84287895D01*
X115854035Y-84276697D01*
X115887743Y-84248719D01*
X115899169Y-84237326D01*
X115947617Y-84186757D01*
X115680881Y-83915702D01*
X115612831Y-83846652D01*
X115525085Y-83757774D01*
X115421492Y-83652959D01*
X115305900Y-83536097D01*
X115182159Y-83411079D01*
X115054119Y-83281795D01*
X114925628Y-83152136D01*
X114833454Y-83059179D01*
X114693342Y-82917520D01*
X114575632Y-82797591D01*
X114478820Y-82697768D01*
X114401399Y-82616428D01*
X114341864Y-82551948D01*
X114312358Y-82518277D01*
X114075409Y-82518277D01*
X114045743Y-82897592D01*
X114036797Y-83008777D01*
X114028142Y-83110453D01*
X114020271Y-83197304D01*
X114013672Y-83264018D01*
X114008836Y-83305279D01*
X114007280Y-83314506D01*
X113998482Y-83352105D01*
X112736681Y-83352105D01*
X112728258Y-83247173D01*
X112702828Y-83123195D01*
X112649611Y-83013524D01*
X112571963Y-82922156D01*
X112473237Y-82853083D01*
X112362428Y-82811620D01*
X112326480Y-82792171D01*
X112308483Y-82750430D01*
X112308106Y-82748589D01*
X112305947Y-82730967D01*
X112308616Y-82712922D01*
X112318720Y-82691108D01*
X112338863Y-82662177D01*
X112371651Y-82622783D01*
X112419690Y-82569577D01*
X112485584Y-82499214D01*
X112571940Y-82408346D01*
X112577520Y-82402493D01*
X112670405Y-82304956D01*
X112769155Y-82201067D01*
X112866984Y-82097977D01*
X112957107Y-82002839D01*
X113032738Y-81922804D01*
X113049605Y-81904911D01*
X113114265Y-81837444D01*
X113171705Y-81779709D01*
X113217801Y-81735675D01*
X113248431Y-81709314D01*
X113258715Y-81703521D01*
X113274052Y-81715646D01*
X113309917Y-81748910D01*
X113363488Y-81800542D01*
X113431940Y-81867775D01*
X113512447Y-81947837D01*
X113602187Y-82037961D01*
X113675532Y-82112198D01*
X114075409Y-82518277D01*
X114312358Y-82518277D01*
X114298709Y-82502703D01*
X114270429Y-82467071D01*
X114255517Y-82443429D01*
X114252199Y-82432480D01*
X114253456Y-82408586D01*
X114257274Y-82354501D01*
X114263407Y-82273338D01*
X114271607Y-82168210D01*
X114281627Y-82042228D01*
X114293220Y-81898505D01*
X114306140Y-81740154D01*
X114320138Y-81570287D01*
X114331419Y-81434528D01*
X114395250Y-80669106D01*
X114231004Y-80669106D01*
X114230297Y-80685624D01*
X114226969Y-80732145D01*
X114221290Y-80805378D01*
X114213526Y-80902028D01*
X114203943Y-81018805D01*
X114192811Y-81152414D01*
X114180395Y-81299563D01*
X114168480Y-81439271D01*
X114154984Y-81597787D01*
X114142413Y-81747421D01*
X114131055Y-81884602D01*
X114121198Y-82005759D01*
X114113130Y-82107320D01*
X114107140Y-82185712D01*
X114103515Y-82237363D01*
X114102509Y-82257423D01*
X114100940Y-82269908D01*
X114094722Y-82274862D01*
X114081459Y-82270218D01*
X114058753Y-82253909D01*
X114024208Y-82223868D01*
X113975427Y-82178027D01*
X113910013Y-82114320D01*
X113825569Y-82030679D01*
X113735971Y-81941299D01*
X113369574Y-81575186D01*
X113372141Y-81572434D01*
X113129951Y-81572434D01*
X113118913Y-81587550D01*
X113088013Y-81623142D01*
X113040347Y-81675941D01*
X112979013Y-81742673D01*
X112907107Y-81820070D01*
X112827727Y-81904858D01*
X112743969Y-81993767D01*
X112658930Y-82083526D01*
X112575708Y-82170864D01*
X112497399Y-82252509D01*
X112427100Y-82325191D01*
X112367909Y-82385637D01*
X112322922Y-82430578D01*
X112295236Y-82456742D01*
X112287686Y-82462072D01*
X112285197Y-82444867D01*
X112280030Y-82397348D01*
X112272470Y-82322489D01*
X112262800Y-82223264D01*
X112251305Y-82102649D01*
X112238269Y-81963618D01*
X112223976Y-81809145D01*
X112208710Y-81642206D01*
X112196521Y-81507597D01*
X112180929Y-81333054D01*
X112166523Y-81168627D01*
X112153547Y-81017299D01*
X112142241Y-80882053D01*
X112132848Y-80765870D01*
X112125611Y-80671735D01*
X112120772Y-80602630D01*
X112118573Y-80561538D01*
X112118824Y-80550868D01*
X112131970Y-80560372D01*
X112165446Y-80590920D01*
X112216326Y-80639556D01*
X112281683Y-80703323D01*
X112358591Y-80779265D01*
X112444124Y-80864424D01*
X112535354Y-80955845D01*
X112629356Y-81050569D01*
X112723202Y-81145641D01*
X112813967Y-81238103D01*
X112898723Y-81324999D01*
X112974544Y-81403372D01*
X113038503Y-81470265D01*
X113087674Y-81522722D01*
X113119131Y-81557785D01*
X113129951Y-81572434D01*
X113372141Y-81572434D01*
X113506202Y-81428760D01*
X113575784Y-81354448D01*
X113653881Y-81271483D01*
X113737406Y-81183102D01*
X113823270Y-81092541D01*
X113908385Y-81003036D01*
X113989664Y-80917823D01*
X114064019Y-80840139D01*
X114128363Y-80773220D01*
X114179606Y-80720303D01*
X114214663Y-80684623D01*
X114230444Y-80669416D01*
X114231004Y-80669106D01*
X114395250Y-80669106D01*
X114411204Y-80477807D01*
X115209286Y-79638485D01*
X116007368Y-78799164D01*
X116006781Y-78681852D01*
X116006194Y-78564539D01*
X115877275Y-78702253D01*
X115805124Y-78779063D01*
X115719940Y-78869304D01*
X115624021Y-78970575D01*
X115519666Y-79080476D01*
X115409174Y-79196604D01*
X115294844Y-79316558D01*
X115178975Y-79437936D01*
X115063865Y-79558338D01*
X114951814Y-79675362D01*
X114845119Y-79786606D01*
X114746080Y-79889669D01*
X114656997Y-79982150D01*
X114580166Y-80061647D01*
X114517888Y-80125758D01*
X114472462Y-80172083D01*
X114446185Y-80198219D01*
X114440426Y-80203233D01*
X114440030Y-80185791D01*
X114442208Y-80141135D01*
X114446583Y-80075340D01*
X114452775Y-79994483D01*
X114455433Y-79962183D01*
X114475228Y-79725921D01*
X114320242Y-79725921D01*
X114312240Y-79763520D01*
X114308160Y-79793255D01*
X114302425Y-79849203D01*
X114295701Y-79924236D01*
X114288648Y-80011225D01*
X114286207Y-80043421D01*
X114279008Y-80135861D01*
X114271742Y-80221707D01*
X114265136Y-80292847D01*
X114259916Y-80341169D01*
X114258739Y-80349939D01*
X114254298Y-80367942D01*
X114244687Y-80389017D01*
X114227860Y-80415525D01*
X114201775Y-80449828D01*
X114164387Y-80494289D01*
X114113654Y-80551271D01*
X114047530Y-80623136D01*
X113963974Y-80712246D01*
X113860940Y-80820964D01*
X113755833Y-80931275D01*
X113651262Y-81040441D01*
X113553649Y-81141540D01*
X113465422Y-81232115D01*
X113389012Y-81309708D01*
X113326849Y-81371862D01*
X113281363Y-81416118D01*
X113254983Y-81440018D01*
X113249357Y-81443574D01*
X113234557Y-81430681D01*
X113199961Y-81397060D01*
X113148929Y-81346082D01*
X113084817Y-81281120D01*
X113010984Y-81205548D01*
X112957589Y-81150493D01*
X112678827Y-80862237D01*
X113500790Y-80862237D01*
X113500790Y-80544737D01*
X112498158Y-80544737D01*
X112498158Y-80686206D01*
X112314342Y-80502960D01*
X112183948Y-80372971D01*
X111930000Y-80372971D01*
X111927571Y-80393477D01*
X111915276Y-80404902D01*
X111885604Y-80409880D01*
X111831045Y-80411044D01*
X111821382Y-80411052D01*
X111712763Y-80411052D01*
X111712763Y-80119584D01*
X111821382Y-80227237D01*
X111882654Y-80292687D01*
X111919301Y-80342829D01*
X111930000Y-80372971D01*
X112183948Y-80372971D01*
X112130526Y-80319715D01*
X112130526Y-80156502D01*
X112130015Y-80081414D01*
X112127672Y-80033645D01*
X112122289Y-80007098D01*
X112112656Y-79995679D01*
X112098129Y-79993289D01*
X112081973Y-79989780D01*
X112070031Y-79975711D01*
X112060861Y-79945769D01*
X112053018Y-79894642D01*
X112045058Y-79817017D01*
X112042504Y-79788585D01*
X112036974Y-79725921D01*
X114320242Y-79725921D01*
X114475228Y-79725921D01*
X114687237Y-79725921D01*
X114687237Y-79575526D01*
X114597141Y-79575526D01*
X114544445Y-79574083D01*
X114515812Y-79567116D01*
X114512309Y-79562970D01*
X114327766Y-79562970D01*
X114318054Y-79572442D01*
X114284412Y-79575366D01*
X114261706Y-79575526D01*
X114185921Y-79575526D01*
X113903306Y-79575526D01*
X112023481Y-79575526D01*
X112087062Y-79510413D01*
X112185814Y-79430062D01*
X112308032Y-79368089D01*
X112455787Y-79323646D01*
X112602599Y-79299065D01*
X112698684Y-79287596D01*
X112698684Y-79408421D01*
X113467368Y-79408421D01*
X113467368Y-79271345D01*
X113580165Y-79282776D01*
X113658975Y-79292425D01*
X113742943Y-79305214D01*
X113793224Y-79314348D01*
X113893487Y-79334488D01*
X113898397Y-79455007D01*
X113903306Y-79575526D01*
X114185921Y-79575526D01*
X114185921Y-79508684D01*
X114188131Y-79466810D01*
X114193650Y-79443536D01*
X114195874Y-79441842D01*
X114220613Y-79452560D01*
X114256757Y-79478563D01*
X114292990Y-79510623D01*
X114317999Y-79539511D01*
X114320227Y-79543267D01*
X114327766Y-79562970D01*
X114512309Y-79562970D01*
X114501919Y-79550674D01*
X114496311Y-79532762D01*
X114473422Y-79486279D01*
X114429460Y-79430400D01*
X114371989Y-79372960D01*
X114308573Y-79321793D01*
X114266918Y-79295143D01*
X114219466Y-79265972D01*
X114195141Y-79241467D01*
X114186595Y-79212572D01*
X114185938Y-79195362D01*
X114185937Y-79191184D01*
X113333684Y-79191184D01*
X113333684Y-79274737D01*
X112832368Y-79274737D01*
X112832368Y-79191184D01*
X113333684Y-79191184D01*
X114185937Y-79191184D01*
X114185921Y-79141052D01*
X114045274Y-79141052D01*
X113980564Y-79142617D01*
X113930130Y-79146785D01*
X113902094Y-79152773D01*
X113899057Y-79155197D01*
X113881273Y-79158918D01*
X113837992Y-79157394D01*
X113776651Y-79151075D01*
X113734737Y-79145240D01*
X113658737Y-79133778D01*
X113589230Y-79123430D01*
X113536997Y-79115796D01*
X113521678Y-79113627D01*
X113481653Y-79101232D01*
X113467368Y-79081808D01*
X113463025Y-79073898D01*
X113447490Y-79067863D01*
X113417001Y-79063466D01*
X113367800Y-79060469D01*
X113296126Y-79058635D01*
X113198219Y-79057725D01*
X113083026Y-79057500D01*
X112960086Y-79057628D01*
X112866559Y-79058230D01*
X112798440Y-79059639D01*
X112751719Y-79062181D01*
X112722391Y-79066189D01*
X112706449Y-79071991D01*
X112699885Y-79079917D01*
X112698684Y-79089133D01*
X112688460Y-79118385D01*
X112654970Y-79135031D01*
X112593988Y-79140968D01*
X112583017Y-79141052D01*
X112479746Y-79151706D01*
X112362453Y-79181033D01*
X112241715Y-79225084D01*
X112128111Y-79279911D01*
X112032219Y-79341564D01*
X112019799Y-79351332D01*
X111979318Y-79383115D01*
X111955345Y-79395844D01*
X111938604Y-79391729D01*
X111921419Y-79374750D01*
X111870664Y-79341492D01*
X111804607Y-79328725D01*
X111733474Y-79335365D01*
X111667486Y-79360327D01*
X111616868Y-79402529D01*
X111613203Y-79407434D01*
X111575328Y-79486211D01*
X111568281Y-79567754D01*
X111591285Y-79645487D01*
X111643563Y-79712835D01*
X111649956Y-79718396D01*
X111687073Y-79744813D01*
X111724733Y-79756447D01*
X111777676Y-79757287D01*
X111790902Y-79756542D01*
X111842703Y-79754641D01*
X111869386Y-79758996D01*
X111879045Y-79772138D01*
X111880037Y-79784408D01*
X111882061Y-79820002D01*
X111887086Y-79873533D01*
X111890697Y-79905559D01*
X111895934Y-79956427D01*
X111893756Y-79982468D01*
X111881125Y-79991986D01*
X111858625Y-79993289D01*
X111845282Y-79988986D01*
X111823756Y-79975057D01*
X111792452Y-79949977D01*
X111749776Y-79912219D01*
X111694132Y-79860256D01*
X111623925Y-79792562D01*
X111537560Y-79707611D01*
X111433442Y-79603875D01*
X111309975Y-79479828D01*
X111165564Y-79333944D01*
X111095969Y-79263449D01*
X110375921Y-78533610D01*
X110376744Y-78649337D01*
G36*
X114185938Y-79195362D02*
G01*
X114186595Y-79212572D01*
X114195141Y-79241467D01*
X114219466Y-79265972D01*
X114266918Y-79295143D01*
X114308573Y-79321793D01*
X114371989Y-79372960D01*
X114429460Y-79430400D01*
X114473422Y-79486279D01*
X114496311Y-79532762D01*
X114501919Y-79550674D01*
X114512309Y-79562970D01*
X114515812Y-79567116D01*
X114544445Y-79574083D01*
X114597141Y-79575526D01*
X114687237Y-79575526D01*
X114687237Y-79725921D01*
X114475228Y-79725921D01*
X114455433Y-79962183D01*
X114452775Y-79994483D01*
X114446583Y-80075340D01*
X114442208Y-80141135D01*
X114440030Y-80185791D01*
X114440426Y-80203233D01*
X114446185Y-80198219D01*
X114472462Y-80172083D01*
X114517888Y-80125758D01*
X114580166Y-80061647D01*
X114656997Y-79982150D01*
X114746080Y-79889669D01*
X114845119Y-79786606D01*
X114951814Y-79675362D01*
X115063865Y-79558338D01*
X115178975Y-79437936D01*
X115294844Y-79316558D01*
X115409174Y-79196604D01*
X115519666Y-79080476D01*
X115624021Y-78970575D01*
X115719940Y-78869304D01*
X115805124Y-78779063D01*
X115877275Y-78702253D01*
X116006194Y-78564539D01*
X116006781Y-78681852D01*
X116007368Y-78799164D01*
X115209286Y-79638485D01*
X114411204Y-80477807D01*
X114395250Y-80669106D01*
X114331419Y-81434528D01*
X114320138Y-81570287D01*
X114306140Y-81740154D01*
X114293220Y-81898505D01*
X114281627Y-82042228D01*
X114271607Y-82168210D01*
X114263407Y-82273338D01*
X114257274Y-82354501D01*
X114253456Y-82408586D01*
X114252199Y-82432480D01*
X114255517Y-82443429D01*
X114270429Y-82467071D01*
X114298709Y-82502703D01*
X114312358Y-82518277D01*
X114341864Y-82551948D01*
X114401399Y-82616428D01*
X114478820Y-82697768D01*
X114575632Y-82797591D01*
X114693342Y-82917520D01*
X114833454Y-83059179D01*
X114925628Y-83152136D01*
X115054119Y-83281795D01*
X115182159Y-83411079D01*
X115305900Y-83536097D01*
X115421492Y-83652959D01*
X115525085Y-83757774D01*
X115612831Y-83846652D01*
X115680881Y-83915702D01*
X115947617Y-84186757D01*
X115899169Y-84237326D01*
X115887743Y-84248719D01*
X115854035Y-84276697D01*
X115830910Y-84287895D01*
X115812805Y-84278335D01*
X115779145Y-84249649D01*
X115738792Y-84208520D01*
X115714230Y-84182542D01*
X115668423Y-84135104D01*
X115603683Y-84068566D01*
X115522295Y-83985263D01*
X115426545Y-83887528D01*
X115318721Y-83777695D01*
X115201108Y-83658096D01*
X115075992Y-83531066D01*
X114945659Y-83398938D01*
X114224831Y-82668732D01*
X114195469Y-83048017D01*
X114189068Y-83128972D01*
X114179721Y-83237793D01*
X114171290Y-83320217D01*
X114163151Y-83380575D01*
X114154679Y-83423200D01*
X114145250Y-83452424D01*
X114134237Y-83472580D01*
X114118825Y-83500750D01*
X114106143Y-83552539D01*
X114102368Y-83627152D01*
X114102368Y-83736447D01*
X113801579Y-83736447D01*
X113801579Y-83502500D01*
X112677832Y-83502500D01*
X112612875Y-83576295D01*
X112595110Y-83595511D01*
X112498831Y-83672712D01*
X112390049Y-83720239D01*
X112272262Y-83736447D01*
X112168327Y-83727854D01*
X112050770Y-83691628D01*
X111950134Y-83626882D01*
X111930520Y-83608378D01*
X111881503Y-83548475D01*
X111838497Y-83478693D01*
X111807658Y-83409909D01*
X111795141Y-83353002D01*
X111794899Y-83344741D01*
X111793099Y-83314471D01*
X111788392Y-83293563D01*
X111778544Y-83283669D01*
X111761323Y-83286444D01*
X111734494Y-83303540D01*
X111695824Y-83336610D01*
X111643080Y-83387307D01*
X111574028Y-83457285D01*
X111486434Y-83548197D01*
X111378065Y-83661695D01*
X111320342Y-83722280D01*
X111223855Y-83823718D01*
X111132568Y-83919889D01*
X111050059Y-84007013D01*
X110979906Y-84081311D01*
X110925685Y-84139003D01*
X110890974Y-84176310D01*
X110796092Y-84279539D01*
X110737449Y-84221052D01*
X110678805Y-84162566D01*
X111404179Y-83402237D01*
X111449916Y-83354263D01*
X111612633Y-83182940D01*
X111752313Y-83034738D01*
X111869373Y-82909198D01*
X111964233Y-82805861D01*
X112031309Y-82730967D01*
X112305947Y-82730967D01*
X112308106Y-82748589D01*
X112308483Y-82750430D01*
X112326480Y-82792171D01*
X112362428Y-82811620D01*
X112473237Y-82853083D01*
X112571963Y-82922156D01*
X112649611Y-83013524D01*
X112702828Y-83123195D01*
X112728258Y-83247173D01*
X112736681Y-83352105D01*
X113998482Y-83352105D01*
X114007280Y-83314506D01*
X114008836Y-83305279D01*
X114013672Y-83264018D01*
X114020271Y-83197304D01*
X114028142Y-83110453D01*
X114036797Y-83008777D01*
X114045743Y-82897592D01*
X114075409Y-82518277D01*
X113675532Y-82112198D01*
X113602187Y-82037961D01*
X113512447Y-81947837D01*
X113431940Y-81867775D01*
X113363488Y-81800542D01*
X113309917Y-81748910D01*
X113274052Y-81715646D01*
X113258715Y-81703521D01*
X113248431Y-81709314D01*
X113217801Y-81735675D01*
X113171705Y-81779709D01*
X113114265Y-81837444D01*
X113049605Y-81904911D01*
X113032738Y-81922804D01*
X112957107Y-82002839D01*
X112866984Y-82097977D01*
X112769155Y-82201067D01*
X112670405Y-82304956D01*
X112577520Y-82402493D01*
X112571940Y-82408346D01*
X112485584Y-82499214D01*
X112419690Y-82569577D01*
X112371651Y-82622783D01*
X112338863Y-82662177D01*
X112318720Y-82691108D01*
X112308616Y-82712922D01*
X112305947Y-82730967D01*
X112031309Y-82730967D01*
X112037311Y-82724266D01*
X112089026Y-82663955D01*
X112119796Y-82624466D01*
X112130040Y-82605342D01*
X112130041Y-82605229D01*
X112128636Y-82581394D01*
X112124531Y-82527967D01*
X112118048Y-82448584D01*
X112109508Y-82346880D01*
X112099233Y-82226493D01*
X112087544Y-82091057D01*
X112074763Y-81944211D01*
X112061212Y-81789590D01*
X112047212Y-81630830D01*
X112033085Y-81471568D01*
X112019153Y-81315441D01*
X112005736Y-81166083D01*
X111993157Y-81027133D01*
X111981738Y-80902226D01*
X111971799Y-80794998D01*
X111963662Y-80709087D01*
X111957650Y-80648127D01*
X111954083Y-80615756D01*
X111946891Y-80561538D01*
X112118573Y-80561538D01*
X112120772Y-80602630D01*
X112125611Y-80671735D01*
X112132848Y-80765870D01*
X112142241Y-80882053D01*
X112153547Y-81017299D01*
X112166523Y-81168627D01*
X112180929Y-81333054D01*
X112196521Y-81507597D01*
X112208710Y-81642206D01*
X112223976Y-81809145D01*
X112238269Y-81963618D01*
X112251305Y-82102649D01*
X112262800Y-82223264D01*
X112272470Y-82322489D01*
X112280030Y-82397348D01*
X112285197Y-82444867D01*
X112287686Y-82462072D01*
X112295236Y-82456742D01*
X112322922Y-82430578D01*
X112367909Y-82385637D01*
X112427100Y-82325191D01*
X112497399Y-82252509D01*
X112575708Y-82170864D01*
X112658930Y-82083526D01*
X112743969Y-81993767D01*
X112827727Y-81904858D01*
X112907107Y-81820070D01*
X112979013Y-81742673D01*
X113040347Y-81675941D01*
X113088013Y-81623142D01*
X113118913Y-81587550D01*
X113127941Y-81575186D01*
X113369574Y-81575186D01*
X113735971Y-81941299D01*
X113825569Y-82030679D01*
X113910013Y-82114320D01*
X113975427Y-82178027D01*
X114024208Y-82223868D01*
X114058753Y-82253909D01*
X114081459Y-82270218D01*
X114094722Y-82274862D01*
X114100940Y-82269908D01*
X114102509Y-82257423D01*
X114103515Y-82237363D01*
X114107140Y-82185712D01*
X114113130Y-82107320D01*
X114121198Y-82005759D01*
X114131055Y-81884602D01*
X114142413Y-81747421D01*
X114154984Y-81597787D01*
X114168480Y-81439271D01*
X114180395Y-81299563D01*
X114192811Y-81152414D01*
X114203943Y-81018805D01*
X114213526Y-80902028D01*
X114221290Y-80805378D01*
X114226969Y-80732145D01*
X114230297Y-80685624D01*
X114231004Y-80669106D01*
X114230444Y-80669416D01*
X114214663Y-80684623D01*
X114179606Y-80720303D01*
X114128363Y-80773220D01*
X114064019Y-80840139D01*
X113989664Y-80917823D01*
X113908385Y-81003036D01*
X113823270Y-81092541D01*
X113737406Y-81183102D01*
X113653881Y-81271483D01*
X113575784Y-81354448D01*
X113506202Y-81428760D01*
X113372141Y-81572434D01*
X113369574Y-81575186D01*
X113127941Y-81575186D01*
X113129951Y-81572434D01*
X113119131Y-81557785D01*
X113087674Y-81522722D01*
X113038503Y-81470265D01*
X112974544Y-81403372D01*
X112898723Y-81324999D01*
X112813967Y-81238103D01*
X112723202Y-81145641D01*
X112629356Y-81050569D01*
X112535354Y-80955845D01*
X112444124Y-80864424D01*
X112358591Y-80779265D01*
X112281683Y-80703323D01*
X112216326Y-80639556D01*
X112165446Y-80590920D01*
X112131970Y-80560372D01*
X112118824Y-80550868D01*
X112118573Y-80561538D01*
X111946891Y-80561538D01*
X111944663Y-80544737D01*
X111579079Y-80544737D01*
X111578641Y-80264835D01*
X111578414Y-80119584D01*
X111712763Y-80119584D01*
X111712763Y-80411052D01*
X111821382Y-80411052D01*
X111831045Y-80411044D01*
X111885604Y-80409880D01*
X111915276Y-80404902D01*
X111927571Y-80393477D01*
X111930000Y-80372971D01*
X111919301Y-80342829D01*
X111882654Y-80292687D01*
X111821382Y-80227237D01*
X111712763Y-80119584D01*
X111578414Y-80119584D01*
X111578204Y-79984934D01*
X110977885Y-79375000D01*
X110377567Y-78765066D01*
X110376744Y-78649337D01*
X110375921Y-78533610D01*
X111095969Y-79263449D01*
X111165564Y-79333944D01*
X111309975Y-79479828D01*
X111433442Y-79603875D01*
X111537560Y-79707611D01*
X111623925Y-79792562D01*
X111694132Y-79860256D01*
X111749776Y-79912219D01*
X111792452Y-79949977D01*
X111823756Y-79975057D01*
X111845282Y-79988986D01*
X111858625Y-79993289D01*
X111881125Y-79991986D01*
X111893756Y-79982468D01*
X111895934Y-79956427D01*
X111890697Y-79905559D01*
X111887086Y-79873533D01*
X111882061Y-79820002D01*
X111880037Y-79784408D01*
X111879045Y-79772138D01*
X111869386Y-79758996D01*
X111842703Y-79754641D01*
X111790902Y-79756542D01*
X111777676Y-79757287D01*
X111724733Y-79756447D01*
X111687073Y-79744813D01*
X111660529Y-79725921D01*
X112036974Y-79725921D01*
X112042504Y-79788585D01*
X112045058Y-79817017D01*
X112053018Y-79894642D01*
X112060861Y-79945769D01*
X112070031Y-79975711D01*
X112081973Y-79989780D01*
X112098129Y-79993289D01*
X112112656Y-79995679D01*
X112122289Y-80007098D01*
X112127672Y-80033645D01*
X112130015Y-80081414D01*
X112130526Y-80156502D01*
X112130526Y-80319715D01*
X112183948Y-80372971D01*
X112314342Y-80502960D01*
X112498158Y-80686206D01*
X112498158Y-80544737D01*
X113500790Y-80544737D01*
X113500790Y-80862237D01*
X112678827Y-80862237D01*
X112957589Y-81150493D01*
X113010984Y-81205548D01*
X113084817Y-81281120D01*
X113148929Y-81346082D01*
X113199961Y-81397060D01*
X113234557Y-81430681D01*
X113249357Y-81443574D01*
X113254983Y-81440018D01*
X113281363Y-81416118D01*
X113326849Y-81371862D01*
X113389012Y-81309708D01*
X113465422Y-81232115D01*
X113553649Y-81141540D01*
X113651262Y-81040441D01*
X113755833Y-80931275D01*
X113860940Y-80820964D01*
X113963974Y-80712246D01*
X114047530Y-80623136D01*
X114113654Y-80551271D01*
X114164387Y-80494289D01*
X114201775Y-80449828D01*
X114227860Y-80415525D01*
X114244687Y-80389017D01*
X114254298Y-80367942D01*
X114258739Y-80349939D01*
X114259916Y-80341169D01*
X114265136Y-80292847D01*
X114271742Y-80221707D01*
X114279008Y-80135861D01*
X114286207Y-80043421D01*
X114288648Y-80011225D01*
X114295701Y-79924236D01*
X114302425Y-79849203D01*
X114308160Y-79793255D01*
X114312240Y-79763520D01*
X114320242Y-79725921D01*
X112036974Y-79725921D01*
X111660529Y-79725921D01*
X111649956Y-79718396D01*
X111643563Y-79712835D01*
X111591285Y-79645487D01*
X111570581Y-79575526D01*
X112023481Y-79575526D01*
X113903306Y-79575526D01*
X113900583Y-79508684D01*
X114185921Y-79508684D01*
X114185921Y-79575526D01*
X114261706Y-79575526D01*
X114284412Y-79575366D01*
X114318054Y-79572442D01*
X114327766Y-79562970D01*
X114320227Y-79543267D01*
X114317999Y-79539511D01*
X114292990Y-79510623D01*
X114256757Y-79478563D01*
X114220613Y-79452560D01*
X114195874Y-79441842D01*
X114193650Y-79443536D01*
X114188131Y-79466810D01*
X114185921Y-79508684D01*
X113900583Y-79508684D01*
X113898397Y-79455007D01*
X113893487Y-79334488D01*
X113793224Y-79314348D01*
X113742943Y-79305214D01*
X113658975Y-79292425D01*
X113580165Y-79282776D01*
X113467368Y-79271345D01*
X113467368Y-79408421D01*
X112698684Y-79408421D01*
X112698684Y-79287596D01*
X112602599Y-79299065D01*
X112455787Y-79323646D01*
X112308032Y-79368089D01*
X112185814Y-79430062D01*
X112087062Y-79510413D01*
X112023481Y-79575526D01*
X111570581Y-79575526D01*
X111568281Y-79567754D01*
X111575328Y-79486211D01*
X111613203Y-79407434D01*
X111616868Y-79402529D01*
X111667486Y-79360327D01*
X111733474Y-79335365D01*
X111804607Y-79328725D01*
X111870664Y-79341492D01*
X111921419Y-79374750D01*
X111938604Y-79391729D01*
X111955345Y-79395844D01*
X111979318Y-79383115D01*
X112019799Y-79351332D01*
X112032219Y-79341564D01*
X112128111Y-79279911D01*
X112241715Y-79225084D01*
X112334630Y-79191184D01*
X112832368Y-79191184D01*
X112832368Y-79274737D01*
X113333684Y-79274737D01*
X113333684Y-79191184D01*
X112832368Y-79191184D01*
X112334630Y-79191184D01*
X112362453Y-79181033D01*
X112479746Y-79151706D01*
X112583017Y-79141052D01*
X112593988Y-79140968D01*
X112654970Y-79135031D01*
X112688460Y-79118385D01*
X112698684Y-79089133D01*
X112699885Y-79079917D01*
X112706449Y-79071991D01*
X112722391Y-79066189D01*
X112751719Y-79062181D01*
X112798440Y-79059639D01*
X112866559Y-79058230D01*
X112960086Y-79057628D01*
X113083026Y-79057500D01*
X113198219Y-79057725D01*
X113296126Y-79058635D01*
X113367800Y-79060469D01*
X113417001Y-79063466D01*
X113447490Y-79067863D01*
X113463025Y-79073898D01*
X113467368Y-79081808D01*
X113481653Y-79101232D01*
X113521678Y-79113627D01*
X113536997Y-79115796D01*
X113589230Y-79123430D01*
X113658737Y-79133778D01*
X113734737Y-79145240D01*
X113776651Y-79151075D01*
X113837992Y-79157394D01*
X113881273Y-79158918D01*
X113899057Y-79155197D01*
X113902094Y-79152773D01*
X113930130Y-79146785D01*
X113980564Y-79142617D01*
X114045274Y-79141052D01*
X114185921Y-79141052D01*
X114185937Y-79191184D01*
X114185938Y-79195362D01*
G37*
%TD*%
M02*
