M48
; DRILL file KiCad 10.0.4 date 2026-08-17T23:14:11
; FORMAT={-:-/ absolute / metric / decimal}
; #@! TF.CreationDate,2026-08-17T23:14:11+07:00
; #@! TF.GenerationSoftware,Kicad,Pcbnew,10.0.4
; #@! TF.FileFunction,Plated,1,2,PTH
FMAT,2
METRIC
; #@! TA.AperFunction,Plated,PTH,ViaDrill
T1C0.300
; #@! TA.AperFunction,Plated,PTH,ComponentDrill
T2C0.300
; #@! TA.AperFunction,Plated,PTH,ViaDrill
T3C0.500
; #@! TA.AperFunction,Plated,PTH,ComponentDrill
T4C0.600
; #@! TA.AperFunction,Plated,PTH,ComponentDrill
T5C1.000
; #@! TA.AperFunction,Plated,PTH,ComponentDrill
T6C1.100
; #@! TA.AperFunction,Plated,PTH,ComponentDrill
T7C1.520
%
G90
G05
T1
X92.5Y-60.5
X94.0Y-72.0
X98.0Y-75.0
X99.0Y-74.0
X103.15Y-86.95
T2
X105.725Y-61.857
X105.725Y-63.383
X106.487Y-61.095
X106.487Y-62.62
X106.487Y-64.145
X107.25Y-61.857
X107.25Y-63.383
X108.012Y-61.095
X108.012Y-62.62
X108.012Y-64.145
X108.775Y-61.857
X108.775Y-63.383
T3
X62.6Y-88.45
X65.2Y-75.1
X68.05Y-87.1
X71.1Y-87.35
X72.25Y-78.2
X72.55Y-82.95
X73.55Y-78.6
X74.05Y-87.35
X76.2Y-72.95
X77.3Y-87.1
X79.125Y-74.025
X80.35Y-86.9
X81.25Y-72.55
X81.275Y-74.3
X81.86Y-81.35
X83.0Y-63.5
X83.45Y-80.35
X84.7Y-79.6
X85.125Y-77.375
X85.2Y-81.75
X85.209Y-78.55
X87.1Y-81.85
X87.1Y-83.15
X89.5Y-54.35
X89.75Y-49.8
X91.0Y-67.95
X91.2Y-51.3
X91.265Y-85.685
X92.3Y-85.75
X92.5Y-57.5
X93.15Y-49.7
X94.92Y-69.02
X95.5Y-50.5
X96.55Y-49.7
X99.3Y-78.55
X100.025Y-49.65
X100.149Y-77.751
X100.4Y-51.85
X100.85Y-58.6
X103.0Y-69.0
X103.15Y-78.4
X103.63Y-83.1
X103.85Y-77.35
X104.25Y-70.1
X105.05Y-83.1
X105.35Y-51.15
X105.6Y-86.75
X106.9Y-43.75
X107.15Y-87.85
X107.781Y-88.626
X108.25Y-70.4
X111.45Y-48.5
T5
X31.662Y-79.627
X36.663Y-50.547
X41.663Y-50.547
X46.663Y-79.627
X106.05Y-76.2
X108.59Y-76.2
X111.13Y-76.2
X113.67Y-76.2
T6
X53.7Y-66.05
X58.4Y-47.55
X58.4Y-54.55
X58.4Y-66.05
X62.533Y-66.05
X67.233Y-47.55
X67.233Y-54.55
X67.233Y-66.05
X71.367Y-66.05
X76.067Y-47.55
X76.067Y-54.55
X76.067Y-66.05
X80.2Y-66.05
X84.9Y-47.55
X84.9Y-54.55
X84.9Y-66.05
T7
X38.62Y-41.05
X43.7Y-41.05
X48.78Y-41.05
X53.86Y-41.05
X58.94Y-41.05
X64.02Y-41.05
X78.4Y-41.05
X83.48Y-41.05
X88.56Y-41.05
X93.64Y-41.05
X98.72Y-41.05
X103.8Y-41.05
T4
X100.07Y-85.59G85X100.07Y-86.69
G05
X100.07Y-90.02G85X100.07Y-90.62
G05
X108.71Y-85.59G85X108.71Y-86.69
G05
X108.71Y-90.02G85X108.71Y-90.62
G05
M30
