%TF.GenerationSoftware,KiCad,Pcbnew,10.0.4*%
%TF.CreationDate,2026-08-17T23:14:09+07:00*%
%TF.ProjectId,smarthome_v0.1,736d6172-7468-46f6-9d65-5f76302e312e,rev?*%
%TF.SameCoordinates,Original*%
%TF.FileFunction,Copper,L2,Bot*%
%TF.FilePolarity,Positive*%
%FSLAX46Y46*%
G04 Gerber Fmt 4.6, Leading zero omitted, Abs format (unit mm)*
G04 Created by KiCad (PCBNEW 10.0.4) date 2026-08-17 23:14:09*
%MOMM*%
%LPD*%
G01*
G04 APERTURE LIST*
%TA.AperFunction,ComponentPad*%
%ADD10R,3.000000X3.000000*%
%TD*%
%TA.AperFunction,ComponentPad*%
%ADD11C,3.000000*%
%TD*%
%TA.AperFunction,HeatsinkPad*%
%ADD12O,1.000000X2.100000*%
%TD*%
%TA.AperFunction,HeatsinkPad*%
%ADD13O,1.000000X1.600000*%
%TD*%
%TA.AperFunction,ComponentPad*%
%ADD14R,1.650000X1.650000*%
%TD*%
%TA.AperFunction,ComponentPad*%
%ADD15C,1.650000*%
%TD*%
%TA.AperFunction,ComponentPad*%
%ADD16R,2.000000X1.700000*%
%TD*%
%TA.AperFunction,ComponentPad*%
%ADD17O,2.000000X1.700000*%
%TD*%
%TA.AperFunction,HeatsinkPad*%
%ADD18C,0.600000*%
%TD*%
%TA.AperFunction,ComponentPad*%
%ADD19R,1.700000X1.700000*%
%TD*%
%TA.AperFunction,ComponentPad*%
%ADD20O,1.700000X1.700000*%
%TD*%
%TA.AperFunction,ViaPad*%
%ADD21C,0.800000*%
%TD*%
%TA.AperFunction,ViaPad*%
%ADD22C,0.600000*%
%TD*%
%TA.AperFunction,Conductor*%
%ADD23C,2.000000*%
%TD*%
%TA.AperFunction,Conductor*%
%ADD24C,0.500000*%
%TD*%
%TA.AperFunction,Conductor*%
%ADD25C,0.300000*%
%TD*%
%TA.AperFunction,Conductor*%
%ADD26C,0.200000*%
%TD*%
G04 APERTURE END LIST*
D10*
%TO.P,J2,1,Pin_1*%
%TO.N,N*%
X38620000Y-41050000D03*
D11*
%TO.P,J2,2,Pin_2*%
%TO.N,P*%
X43700000Y-41050000D03*
%TO.P,J2,3,Pin_3*%
%TO.N,Net-(J2-Pin_3)*%
X48780000Y-41050000D03*
%TO.P,J2,4,Pin_4*%
%TO.N,Net-(J2-Pin_4)*%
X53860000Y-41050000D03*
%TO.P,J2,5,Pin_5*%
%TO.N,Net-(J2-Pin_5)*%
X58940000Y-41050000D03*
%TO.P,J2,6,Pin_6*%
%TO.N,Net-(J2-Pin_6)*%
X64020000Y-41050000D03*
%TD*%
D12*
%TO.P,J1,S1,SHIELD*%
%TO.N,GND*%
X100070000Y-86140000D03*
D13*
X100070000Y-90320000D03*
D12*
X108710000Y-86140000D03*
D13*
X108710000Y-90320000D03*
%TD*%
D14*
%TO.P,K2,1*%
%TO.N,RELAY_5V*%
X62533333Y-66050000D03*
D15*
%TO.P,K2,2*%
%TO.N,RELAY_2*%
X67233333Y-66050000D03*
%TO.P,K2,3*%
%TO.N,P*%
X67233333Y-54550000D03*
%TO.P,K2,4*%
%TO.N,Net-(J2-Pin_4)*%
X67233333Y-47550000D03*
%TD*%
D16*
%TO.P,PS1,1,AC/L*%
%TO.N,P*%
X41662500Y-50547500D03*
D17*
%TO.P,PS1,2,AC/N*%
%TO.N,N*%
X36662500Y-50547500D03*
%TO.P,PS1,3,-Vout*%
%TO.N,GND*%
X46662500Y-79627500D03*
%TO.P,PS1,4,+Vout*%
%TO.N,+5V*%
X31662500Y-79627500D03*
%TD*%
D10*
%TO.P,J3,1,Pin_1*%
%TO.N,EXTRA{slash}IO17*%
X78400000Y-41050000D03*
D11*
%TO.P,J3,2,Pin_2*%
%TO.N,SWITCH_1{slash}IO13*%
X83480000Y-41050000D03*
%TO.P,J3,3,Pin_3*%
%TO.N,SWITCH_2{slash}IO12*%
X88560000Y-41050000D03*
%TO.P,J3,4,Pin_4*%
%TO.N,SWITCH_3{slash}IO27*%
X93640000Y-41050000D03*
%TO.P,J3,5,Pin_5*%
%TO.N,SWITCH_4{slash}IO14*%
X98720000Y-41050000D03*
%TO.P,J3,6,Pin_6*%
%TO.N,GND*%
X103800000Y-41050000D03*
%TD*%
D14*
%TO.P,K3,1*%
%TO.N,RELAY_5V*%
X71366667Y-66050000D03*
D15*
%TO.P,K3,2*%
%TO.N,RELAY_3*%
X76066667Y-66050000D03*
%TO.P,K3,3*%
%TO.N,P*%
X76066667Y-54550000D03*
%TO.P,K3,4*%
%TO.N,Net-(J2-Pin_5)*%
X76066667Y-47550000D03*
%TD*%
D14*
%TO.P,K4,1*%
%TO.N,RELAY_5V*%
X80200000Y-66050000D03*
D15*
%TO.P,K4,2*%
%TO.N,RELAY_4*%
X84900000Y-66050000D03*
%TO.P,K4,3*%
%TO.N,P*%
X84900000Y-54550000D03*
%TO.P,K4,4*%
%TO.N,Net-(J2-Pin_6)*%
X84900000Y-47550000D03*
%TD*%
D14*
%TO.P,K1,1*%
%TO.N,RELAY_5V*%
X53700000Y-66050000D03*
D15*
%TO.P,K1,2*%
%TO.N,RELAY_1*%
X58400000Y-66050000D03*
%TO.P,K1,3*%
%TO.N,P*%
X58400000Y-54550000D03*
%TO.P,K1,4*%
%TO.N,Net-(J2-Pin_3)*%
X58400000Y-47550000D03*
%TD*%
D18*
%TO.P,U4,39,GND*%
%TO.N,GND*%
X108012500Y-61095000D03*
X106487500Y-61095000D03*
X108775000Y-61857500D03*
X107250000Y-61857500D03*
X105725000Y-61857500D03*
X108012500Y-62620000D03*
X106487500Y-62620000D03*
X108775000Y-63382500D03*
X107250000Y-63382500D03*
X105725000Y-63382500D03*
X108012500Y-64145000D03*
X106487500Y-64145000D03*
%TD*%
D19*
%TO.P,J4,1,Pin_1*%
%TO.N,GND*%
X106050000Y-76200000D03*
D20*
%TO.P,J4,2,Pin_2*%
%TO.N,SDA*%
X108590000Y-76200000D03*
%TO.P,J4,3,Pin_3*%
%TO.N,SCL*%
X111130000Y-76200000D03*
%TO.P,J4,4,Pin_4*%
%TO.N,+5V*%
X113670000Y-76200000D03*
%TD*%
D21*
%TO.N,RELAY_5V*%
X81250000Y-72550000D03*
X81275000Y-74300000D03*
%TO.N,RELAY_4*%
X80350000Y-86900000D03*
X79125000Y-74025000D03*
%TO.N,+3V3*%
X65200000Y-75100000D03*
X83000000Y-63500000D03*
%TO.N,ESP_3V3*%
X89500000Y-54350000D03*
X100025000Y-49650000D03*
X96550000Y-49700000D03*
X93150000Y-49700000D03*
X89750000Y-49800000D03*
%TO.N,GND*%
X91200000Y-51300000D03*
D22*
X94000000Y-72000000D03*
D21*
X72550000Y-82950000D03*
D22*
X98000000Y-75000000D03*
D21*
X85200000Y-81750000D03*
X68050000Y-87100000D03*
X106900000Y-43750000D03*
D22*
X99000000Y-74000000D03*
X92500000Y-60500000D03*
D21*
X111450000Y-48500000D03*
X62600000Y-88450000D03*
%TO.N,SIG_1{slash}IO25*%
X85125000Y-77375000D03*
X103000000Y-69000000D03*
%TO.N,SIG_2{slash}IO23*%
X104250000Y-70100000D03*
X85208521Y-78550000D03*
%TO.N,SIG_3{slash}IO19*%
X84700000Y-79600000D03*
X99300000Y-78550000D03*
%TO.N,SIG_4{slash}IO18*%
X83450000Y-80350000D03*
X100149000Y-77751000D03*
%TO.N,RELAY_3*%
X77300000Y-87100000D03*
X76200000Y-72950000D03*
%TO.N,RELAY_2*%
X74050000Y-87350000D03*
X73550000Y-78600000D03*
%TO.N,RELAY_1*%
X71100000Y-87350000D03*
X72250000Y-78200000D03*
%TO.N,LED{slash}IO2*%
X94920000Y-69020000D03*
X81860000Y-81350000D03*
%TO.N,Net-(J1-CC1)*%
X107781266Y-88625570D03*
D22*
X103150000Y-86950000D03*
D21*
%TO.N,D+*%
X105050000Y-83100000D03*
X91265000Y-85685000D03*
%TO.N,D-*%
X92300000Y-85750000D03*
X103630000Y-83100000D03*
%TO.N,Net-(J1-CC2)*%
X107150000Y-87850000D03*
X105600000Y-86750000D03*
%TO.N,EXTRA{slash}IO17*%
X92500000Y-57500000D03*
X100850000Y-58600000D03*
%TO.N,SWITCH_3{slash}IO27*%
X100400000Y-51850000D03*
X95500000Y-50500000D03*
%TO.N,EN*%
X105350000Y-51150000D03*
X91000000Y-67950000D03*
%TO.N,SDA*%
X108250000Y-70400000D03*
%TO.N,RXD*%
X103150000Y-78400000D03*
X87100000Y-81850000D03*
%TO.N,TXD*%
X87100000Y-83150000D03*
X103850000Y-77350000D03*
%TD*%
%TO.N,N*%
D23*
X36662500Y-46787500D02*
X36662500Y-50547500D01*
X38620000Y-44830000D02*
X36662500Y-46787500D01*
X38620000Y-41050000D02*
X38620000Y-44830000D01*
%TO.N,P*%
X43700000Y-44750000D02*
X41662500Y-46787500D01*
X43700000Y-41050000D02*
X43700000Y-44750000D01*
X41662500Y-52712500D02*
X43500000Y-54550000D01*
X84900000Y-54550000D02*
X58400000Y-54550000D01*
X41662500Y-46787500D02*
X41662500Y-50547500D01*
X43500000Y-54550000D02*
X58400000Y-54550000D01*
X41662500Y-50547500D02*
X41662500Y-52712500D01*
%TO.N,Net-(J2-Pin_3)*%
X48780000Y-46230000D02*
X50100000Y-47550000D01*
X48780000Y-41050000D02*
X48780000Y-46230000D01*
X50100000Y-47550000D02*
X58400000Y-47550000D01*
%TO.N,Net-(J2-Pin_4)*%
X62100000Y-47550000D02*
X67233333Y-47550000D01*
X53860000Y-41050000D02*
X53860000Y-43510000D01*
X58886342Y-44336342D02*
X62100000Y-47550000D01*
X54686342Y-44336342D02*
X58886342Y-44336342D01*
X53860000Y-43510000D02*
X54686342Y-44336342D01*
%TO.N,Net-(J2-Pin_5)*%
X74600000Y-47550000D02*
X71300000Y-44250000D01*
X60940000Y-43050000D02*
X59440000Y-41550000D01*
X76066667Y-47550000D02*
X74600000Y-47550000D01*
X59300000Y-41550000D02*
X58940000Y-41190000D01*
X71300000Y-44250000D02*
X62140000Y-44250000D01*
X58940000Y-41190000D02*
X58940000Y-41050000D01*
X61000000Y-43110000D02*
X61000000Y-43050000D01*
X59440000Y-41550000D02*
X59300000Y-41550000D01*
X62140000Y-44250000D02*
X61000000Y-43110000D01*
%TO.N,Net-(J2-Pin_6)*%
X75400000Y-44550000D02*
X71900000Y-41050000D01*
X84900000Y-47550000D02*
X81700000Y-47550000D01*
X71900000Y-41050000D02*
X64020000Y-41050000D01*
X81700000Y-47550000D02*
X78700000Y-44550000D01*
X78700000Y-44550000D02*
X75400000Y-44550000D01*
%TO.N,RELAY_5V*%
D24*
X81275000Y-74225000D02*
X81250000Y-74200000D01*
X81250000Y-74200000D02*
X81250000Y-72550000D01*
X81275000Y-74300000D02*
X81275000Y-74225000D01*
%TO.N,RELAY_4*%
D25*
X80350000Y-86900000D02*
X80350000Y-75250000D01*
X80350000Y-75250000D02*
X79125000Y-74025000D01*
%TO.N,+3V3*%
D24*
X65200000Y-64800000D02*
X66500000Y-63500000D01*
X66500000Y-63500000D02*
X83000000Y-63500000D01*
X65200000Y-75100000D02*
X65200000Y-64800000D01*
%TO.N,ESP_3V3*%
X92700000Y-49800000D02*
X93850000Y-49800000D01*
X100024000Y-49649000D02*
X100025000Y-49650000D01*
X89750000Y-49800000D02*
X92700000Y-49800000D01*
X89500000Y-54350000D02*
X89500000Y-50050000D01*
X94001000Y-49649000D02*
X96000000Y-49649000D01*
X96000000Y-49649000D02*
X100024000Y-49649000D01*
X93850000Y-49800000D02*
X94001000Y-49649000D01*
X96499000Y-49649000D02*
X96550000Y-49700000D01*
X93050000Y-49800000D02*
X93150000Y-49700000D01*
X89500000Y-50050000D02*
X89750000Y-49800000D01*
X92700000Y-49800000D02*
X93050000Y-49800000D01*
X96000000Y-49649000D02*
X96499000Y-49649000D01*
%TO.N,SIG_1{slash}IO25*%
D25*
X86050000Y-77800000D02*
X97700000Y-77800000D01*
X103000000Y-72500000D02*
X103000000Y-69000000D01*
X97700000Y-77800000D02*
X103000000Y-72500000D01*
X85625000Y-77375000D02*
X86050000Y-77800000D01*
X85125000Y-77375000D02*
X85625000Y-77375000D01*
%TO.N,SIG_2{slash}IO23*%
X98050000Y-78550000D02*
X104250000Y-72350000D01*
X85208521Y-78550000D02*
X98050000Y-78550000D01*
X104250000Y-72350000D02*
X104250000Y-70100000D01*
%TO.N,SIG_3{slash}IO19*%
X84700000Y-79600000D02*
X98250000Y-79600000D01*
X98250000Y-79600000D02*
X99300000Y-78550000D01*
%TO.N,SIG_4{slash}IO18*%
X83450000Y-80350000D02*
X98950000Y-80350000D01*
X98950000Y-80350000D02*
X100150000Y-79150000D01*
X100150000Y-79150000D02*
X100150000Y-77752000D01*
X100150000Y-77752000D02*
X100149000Y-77751000D01*
%TO.N,RELAY_3*%
X76200000Y-73400000D02*
X76200000Y-72950000D01*
X77300000Y-87100000D02*
X77300000Y-74500000D01*
X77300000Y-74500000D02*
X76200000Y-73400000D01*
%TO.N,RELAY_2*%
X73550000Y-80250000D02*
X73550000Y-78600000D01*
X74050000Y-80750000D02*
X73550000Y-80250000D01*
X74050000Y-87350000D02*
X74050000Y-80750000D01*
%TO.N,RELAY_1*%
X71100000Y-87350000D02*
X71100000Y-79350000D01*
X71100000Y-79350000D02*
X72250000Y-78200000D01*
%TO.N,LED{slash}IO2*%
X82350000Y-80860000D02*
X81860000Y-81350000D01*
X83330000Y-69020000D02*
X82350000Y-70000000D01*
X94920000Y-69020000D02*
X83330000Y-69020000D01*
X82350000Y-70000000D02*
X82350000Y-80860000D01*
%TO.N,Net-(J1-CC1)*%
X107706836Y-88700000D02*
X104625000Y-88700000D01*
X107781266Y-88625570D02*
X107706836Y-88700000D01*
X104625000Y-88700000D02*
X103500000Y-87575000D01*
X103500000Y-87575000D02*
X103500000Y-86850000D01*
%TO.N,D+*%
D26*
X96948902Y-86100000D02*
X96897902Y-86151000D01*
X92890364Y-86151000D02*
X92590364Y-86451000D01*
X104600000Y-83550000D02*
X104171364Y-83550000D01*
X104171364Y-83550000D02*
X103920364Y-83801000D01*
X96897902Y-86151000D02*
X92890364Y-86151000D01*
X97018198Y-86100000D02*
X96948902Y-86100000D01*
X99568198Y-83550000D02*
X98539112Y-84579086D01*
X98539112Y-84579086D02*
X98079492Y-85038705D01*
X103920364Y-83801000D02*
X103339636Y-83801000D01*
X91958900Y-86451000D02*
X91265000Y-85757100D01*
X92590364Y-86451000D02*
X91958900Y-86451000D01*
X98079492Y-85038705D02*
X97864875Y-85253323D01*
X105050000Y-83100000D02*
X104600000Y-83550000D01*
X97131364Y-85986834D02*
X97018198Y-86100000D01*
X103339636Y-83801000D02*
X103088636Y-83550000D01*
X103088636Y-83550000D02*
X99568198Y-83550000D01*
X91265000Y-85757100D02*
X91265000Y-85685000D01*
X97531461Y-85586737D02*
X97131364Y-85986834D01*
X97864875Y-85253323D02*
X97531461Y-85586737D01*
%TO.N,D-*%
X96731802Y-85750000D02*
X92475000Y-85750000D01*
X98614119Y-83867683D02*
X99073738Y-83408063D01*
X97802813Y-84678989D02*
X97458284Y-85023518D01*
X97458284Y-85023518D02*
X96731802Y-85750000D01*
X99073738Y-83408063D02*
X99280947Y-83200855D01*
X97802813Y-84678989D02*
X98614119Y-83867683D01*
X92475000Y-85750000D02*
X92400000Y-85825000D01*
X99381802Y-83100000D02*
X103630000Y-83100000D01*
X99280947Y-83200855D02*
X99381802Y-83100000D01*
%TO.N,Net-(J1-CC2)*%
D25*
X105550000Y-86800000D02*
X105600000Y-86750000D01*
X107150000Y-87850000D02*
X106000000Y-87850000D01*
X106000000Y-87850000D02*
X105550000Y-87400000D01*
X105550000Y-87400000D02*
X105550000Y-86800000D01*
%TO.N,EXTRA{slash}IO17*%
X99750000Y-57500000D02*
X92500000Y-57500000D01*
X100850000Y-58600000D02*
X99750000Y-57500000D01*
%TO.N,SWITCH_3{slash}IO27*%
X96850000Y-51850000D02*
X95500000Y-50500000D01*
X100400000Y-51850000D02*
X96850000Y-51850000D01*
%TO.N,EN*%
X105350000Y-51150000D02*
X104300000Y-52200000D01*
X103250000Y-67950000D02*
X91000000Y-67950000D01*
X104300000Y-52200000D02*
X104300000Y-66900000D01*
X104300000Y-66900000D02*
X103250000Y-67950000D01*
%TO.N,SDA*%
X108590000Y-75340000D02*
X108590000Y-76200000D01*
X108250000Y-75000000D02*
X108590000Y-75340000D01*
X108250000Y-70400000D02*
X108250000Y-75000000D01*
%TO.N,RXD*%
X103400000Y-81000000D02*
X103400000Y-78650000D01*
X102550000Y-81850000D02*
X103300000Y-81100000D01*
X87100000Y-81850000D02*
X102550000Y-81850000D01*
X103400000Y-78650000D02*
X103150000Y-78400000D01*
X103300000Y-81100000D02*
X103400000Y-81000000D01*
%TO.N,TXD*%
X102850000Y-82500000D02*
X99150000Y-82500000D01*
X104000000Y-81350000D02*
X102850000Y-82500000D01*
X103850000Y-77350000D02*
X103850000Y-78000000D01*
X103850000Y-78000000D02*
X104000000Y-78150000D01*
X104000000Y-78150000D02*
X104000000Y-81350000D01*
X98500000Y-83150000D02*
X87100000Y-83150000D01*
X99150000Y-82500000D02*
X98500000Y-83150000D01*
%TD*%
%TA.AperFunction,Conductor*%
%TO.N,GND*%
G36*
X83000500Y-70442333D02*
G01*
X83000500Y-70320808D01*
X83020185Y-70253769D01*
X83036819Y-70233127D01*
X83563127Y-69706819D01*
X83624450Y-69673334D01*
X83650808Y-69670500D01*
X83737250Y-69670500D01*
X83000500Y-70442333D01*
G37*
%TD.AperFunction*%
%TA.AperFunction,Conductor*%
G36*
X102133735Y-68713448D02*
G01*
X102132405Y-68738239D01*
X102126021Y-68693845D01*
X102133735Y-68713448D01*
G37*
%TD.AperFunction*%
%TA.AperFunction,Conductor*%
G36*
X102108154Y-68648430D02*
G01*
X102113485Y-68661982D01*
X102091063Y-68636105D01*
X102108154Y-68648430D01*
G37*
%TD.AperFunction*%
%TA.AperFunction,Conductor*%
G36*
X102030442Y-68606435D02*
G01*
X102051482Y-68607563D01*
X102063296Y-68616082D01*
X102077268Y-68620185D01*
X102010229Y-68600500D01*
X102030442Y-68606435D01*
G37*
%TD.AperFunction*%
%TA.AperFunction,Conductor*%
G36*
X119203736Y-37550726D02*
G01*
X119493796Y-37568271D01*
X119508659Y-37570076D01*
X119790797Y-37621780D01*
X119805334Y-37625363D01*
X120079182Y-37710698D01*
X120093163Y-37716000D01*
X120354734Y-37833724D01*
X120367987Y-37840680D01*
X120613458Y-37989071D01*
X120625776Y-37997573D01*
X120822379Y-38151602D01*
X120851573Y-38174474D01*
X120862781Y-38184404D01*
X121065595Y-38387218D01*
X121075525Y-38398426D01*
X121188577Y-38542726D01*
X121252422Y-38624217D01*
X121260928Y-38636541D01*
X121409319Y-38882012D01*
X121416277Y-38895269D01*
X121519720Y-39125108D01*
X121529284Y-39194320D01*
X121499911Y-39257716D01*
X121440926Y-39295167D01*
X121406645Y-39300000D01*
X121137519Y-39300000D01*
X121070480Y-39280315D01*
X121024725Y-39227511D01*
X121022958Y-39223452D01*
X120998048Y-39163314D01*
X120998041Y-39163299D01*
X120866924Y-38936196D01*
X120707281Y-38728148D01*
X120707274Y-38728140D01*
X120521860Y-38542726D01*
X120521851Y-38542718D01*
X120313803Y-38383075D01*
X120086700Y-38251958D01*
X120086690Y-38251953D01*
X119844428Y-38151605D01*
X119844421Y-38151603D01*
X119844419Y-38151602D01*
X119591116Y-38083730D01*
X119533339Y-38076123D01*
X119331127Y-38049500D01*
X119331120Y-38049500D01*
X119068880Y-38049500D01*
X119068872Y-38049500D01*
X118837772Y-38079926D01*
X118808884Y-38083730D01*
X118555581Y-38151602D01*
X118555571Y-38151605D01*
X118313309Y-38251953D01*
X118313299Y-38251958D01*
X118086196Y-38383075D01*
X117878148Y-38542718D01*
X117692718Y-38728148D01*
X117533075Y-38936196D01*
X117401958Y-39163299D01*
X117401951Y-39163314D01*
X117377042Y-39223452D01*
X117333201Y-39277856D01*
X117266907Y-39299921D01*
X117262481Y-39300000D01*
X116140000Y-39300000D01*
X116140000Y-53452772D01*
X116120315Y-53519811D01*
X116067511Y-53565566D01*
X116048095Y-53572546D01*
X116006815Y-53583607D01*
X116006814Y-53583607D01*
X115892686Y-53649500D01*
X115892683Y-53649502D01*
X115799502Y-53742683D01*
X115799500Y-53742686D01*
X115733608Y-53856812D01*
X115699500Y-53984108D01*
X115699500Y-72615891D01*
X115733608Y-72743187D01*
X115746014Y-72764674D01*
X115799500Y-72857314D01*
X115892686Y-72950500D01*
X115991521Y-73007563D01*
X116006789Y-73016378D01*
X116006814Y-73016392D01*
X116048094Y-73027453D01*
X116107753Y-73063817D01*
X116138283Y-73126663D01*
X116140000Y-73147227D01*
X116140000Y-87300000D01*
X117829173Y-87300000D01*
X117896212Y-87319685D01*
X117941967Y-87372489D01*
X117951911Y-87441647D01*
X117922886Y-87505203D01*
X117904663Y-87522372D01*
X117883721Y-87538441D01*
X117878141Y-87542724D01*
X117878140Y-87542726D01*
X117692718Y-87728148D01*
X117533075Y-87936196D01*
X117401958Y-88163299D01*
X117401953Y-88163309D01*
X117301605Y-88405571D01*
X117301602Y-88405581D01*
X117233730Y-88658885D01*
X117199500Y-88918872D01*
X117199500Y-89181127D01*
X117224551Y-89371398D01*
X117233730Y-89441116D01*
X117293651Y-89664745D01*
X117301602Y-89694418D01*
X117301605Y-89694428D01*
X117401953Y-89936690D01*
X117401958Y-89936700D01*
X117533075Y-90163803D01*
X117692718Y-90371851D01*
X117692726Y-90371860D01*
X117878140Y-90557274D01*
X117878148Y-90557281D01*
X118086196Y-90716924D01*
X118313299Y-90848041D01*
X118313309Y-90848046D01*
X118555571Y-90948394D01*
X118555581Y-90948398D01*
X118808884Y-91016270D01*
X119068880Y-91050500D01*
X119068887Y-91050500D01*
X119331113Y-91050500D01*
X119331120Y-91050500D01*
X119591116Y-91016270D01*
X119844419Y-90948398D01*
X120021340Y-90875114D01*
X120086690Y-90848046D01*
X120086691Y-90848045D01*
X120086697Y-90848043D01*
X120313803Y-90716924D01*
X120521851Y-90557282D01*
X120521855Y-90557277D01*
X120521860Y-90557274D01*
X120707274Y-90371860D01*
X120707277Y-90371855D01*
X120707282Y-90371851D01*
X120866924Y-90163803D01*
X120998043Y-89936697D01*
X121098398Y-89694419D01*
X121166270Y-89441116D01*
X121200500Y-89181120D01*
X121200500Y-88918880D01*
X121166270Y-88658884D01*
X121098398Y-88405581D01*
X121098394Y-88405571D01*
X120998046Y-88163309D01*
X120998041Y-88163299D01*
X120866924Y-87936196D01*
X120744414Y-87776540D01*
X120707282Y-87728149D01*
X120707281Y-87728148D01*
X120707274Y-87728140D01*
X120521858Y-87542724D01*
X120521853Y-87542720D01*
X120521851Y-87542718D01*
X120495338Y-87522373D01*
X120454137Y-87465946D01*
X120449983Y-87396200D01*
X120484196Y-87335280D01*
X120545914Y-87302528D01*
X120570827Y-87300000D01*
X121575500Y-87300000D01*
X121642539Y-87319685D01*
X121688294Y-87372489D01*
X121699500Y-87424000D01*
X121699500Y-89046249D01*
X121699274Y-89053736D01*
X121681728Y-89343794D01*
X121679923Y-89358659D01*
X121628219Y-89640797D01*
X121624635Y-89655335D01*
X121539304Y-89929174D01*
X121533994Y-89943176D01*
X121416277Y-90204730D01*
X121409319Y-90217987D01*
X121260928Y-90463458D01*
X121252422Y-90475782D01*
X121075525Y-90701573D01*
X121065595Y-90712781D01*
X120862781Y-90915595D01*
X120851573Y-90925525D01*
X120625782Y-91102422D01*
X120613458Y-91110928D01*
X120367987Y-91259319D01*
X120354730Y-91266277D01*
X120093176Y-91383994D01*
X120079174Y-91389304D01*
X119805335Y-91474635D01*
X119790797Y-91478219D01*
X119508659Y-91529923D01*
X119493794Y-91531728D01*
X119203736Y-91549274D01*
X119196249Y-91549500D01*
X109049223Y-91549500D01*
X108982184Y-91529815D01*
X108936429Y-91477011D01*
X108926485Y-91407853D01*
X108955510Y-91344297D01*
X109001770Y-91310939D01*
X109065254Y-91284642D01*
X109065264Y-91284637D01*
X109188096Y-91202563D01*
X109188100Y-91202560D01*
X109292560Y-91098100D01*
X109292563Y-91098096D01*
X109374637Y-90975264D01*
X109374642Y-90975254D01*
X109431177Y-90838767D01*
X109431179Y-90838759D01*
X109459999Y-90693873D01*
X109460000Y-90693871D01*
X109460000Y-90445000D01*
X109010000Y-90445000D01*
X109010000Y-90195000D01*
X109460000Y-90195000D01*
X109460000Y-89946128D01*
X109459999Y-89946126D01*
X109431179Y-89801240D01*
X109431177Y-89801232D01*
X109374642Y-89664745D01*
X109374637Y-89664735D01*
X109292563Y-89541903D01*
X109292560Y-89541899D01*
X109188100Y-89437439D01*
X109188096Y-89437436D01*
X109065264Y-89355362D01*
X109065254Y-89355357D01*
X108928765Y-89298821D01*
X108928761Y-89298820D01*
X108835000Y-89280169D01*
X108835000Y-89745757D01*
X108825796Y-89740444D01*
X108749496Y-89720000D01*
X108670504Y-89720000D01*
X108594204Y-89740444D01*
X108585000Y-89745757D01*
X108585000Y-89280170D01*
X108569768Y-89267670D01*
X108530433Y-89209925D01*
X108528562Y-89140080D01*
X108545328Y-89102926D01*
X108579279Y-89052117D01*
X108647160Y-88888236D01*
X108681766Y-88714261D01*
X108681766Y-88536879D01*
X108681766Y-88536876D01*
X108681765Y-88536874D01*
X108647162Y-88362911D01*
X108647159Y-88362902D01*
X108579282Y-88199029D01*
X108579275Y-88199016D01*
X108480730Y-88051535D01*
X108480727Y-88051531D01*
X108355304Y-87926108D01*
X108355300Y-87926105D01*
X108207810Y-87827555D01*
X108111969Y-87787857D01*
X108057566Y-87744016D01*
X108037805Y-87697487D01*
X108015896Y-87587341D01*
X108015893Y-87587332D01*
X107948016Y-87423459D01*
X107948009Y-87423446D01*
X107849464Y-87275965D01*
X107849461Y-87275961D01*
X107741371Y-87167871D01*
X107707886Y-87106548D01*
X107712870Y-87036856D01*
X107723948Y-87014393D01*
X107731415Y-87002464D01*
X107740515Y-86993365D01*
X107780889Y-86923433D01*
X107782058Y-86921568D01*
X107806602Y-86899784D01*
X107830342Y-86877149D01*
X107832597Y-86876714D01*
X107834315Y-86875190D01*
X107866740Y-86870134D01*
X107898949Y-86863927D01*
X107901079Y-86864780D01*
X107903351Y-86864426D01*
X107933370Y-86877707D01*
X107963814Y-86889895D01*
X107965274Y-86891822D01*
X107967247Y-86892695D01*
X107976035Y-86906020D01*
X108001723Y-86939912D01*
X108045357Y-87045254D01*
X108045362Y-87045264D01*
X108127436Y-87168096D01*
X108127439Y-87168100D01*
X108231899Y-87272560D01*
X108231903Y-87272563D01*
X108354735Y-87354637D01*
X108354745Y-87354642D01*
X108491232Y-87411177D01*
X108491240Y-87411179D01*
X108584999Y-87429829D01*
X108585000Y-87429829D01*
X108585000Y-86964242D01*
X108594204Y-86969556D01*
X108670504Y-86990000D01*
X108749496Y-86990000D01*
X108825796Y-86969556D01*
X108835000Y-86964242D01*
X108835000Y-87429829D01*
X108928759Y-87411179D01*
X108928767Y-87411177D01*
X109065254Y-87354642D01*
X109065264Y-87354637D01*
X109188096Y-87272563D01*
X109188100Y-87272560D01*
X109292560Y-87168100D01*
X109292563Y-87168096D01*
X109374637Y-87045264D01*
X109374642Y-87045254D01*
X109431177Y-86908767D01*
X109431179Y-86908759D01*
X109459999Y-86763873D01*
X109460000Y-86763871D01*
X109460000Y-86265000D01*
X109010000Y-86265000D01*
X109010000Y-86015000D01*
X109460000Y-86015000D01*
X109460000Y-85516128D01*
X109459999Y-85516126D01*
X109431179Y-85371240D01*
X109431177Y-85371232D01*
X109374642Y-85234745D01*
X109374637Y-85234735D01*
X109292563Y-85111903D01*
X109292560Y-85111899D01*
X109188100Y-85007439D01*
X109188096Y-85007436D01*
X109065264Y-84925362D01*
X109065254Y-84925357D01*
X108928765Y-84868821D01*
X108928761Y-84868820D01*
X108835000Y-84850169D01*
X108835000Y-85315757D01*
X108825796Y-85310444D01*
X108749496Y-85290000D01*
X108670504Y-85290000D01*
X108594204Y-85310444D01*
X108585000Y-85315757D01*
X108585000Y-84850170D01*
X108584999Y-84850169D01*
X108491238Y-84868820D01*
X108491234Y-84868821D01*
X108354745Y-84925357D01*
X108354735Y-84925362D01*
X108231903Y-85007436D01*
X108231899Y-85007439D01*
X108127439Y-85111899D01*
X108127436Y-85111903D01*
X108045362Y-85234735D01*
X108045357Y-85234745D01*
X107988822Y-85371232D01*
X107988820Y-85371240D01*
X107960000Y-85516126D01*
X107960000Y-86015000D01*
X108410000Y-86015000D01*
X108410000Y-86265000D01*
X107960000Y-86265000D01*
X107926397Y-86298603D01*
X107865073Y-86332087D01*
X107795382Y-86327102D01*
X107747179Y-86291464D01*
X107746262Y-86292382D01*
X107633367Y-86179487D01*
X107633365Y-86179485D01*
X107540675Y-86125970D01*
X107502136Y-86103719D01*
X107428950Y-86084109D01*
X107355766Y-86064500D01*
X107204234Y-86064500D01*
X107057863Y-86103719D01*
X106926635Y-86179485D01*
X106926632Y-86179487D01*
X106819487Y-86286632D01*
X106819485Y-86286635D01*
X106743719Y-86417865D01*
X106716094Y-86520965D01*
X106713976Y-86528869D01*
X106677611Y-86588529D01*
X106614764Y-86619058D01*
X106545388Y-86610763D01*
X106491510Y-86566278D01*
X106472584Y-86520968D01*
X106465894Y-86487334D01*
X106437119Y-86417865D01*
X106398016Y-86323459D01*
X106398009Y-86323446D01*
X106299464Y-86175965D01*
X106299461Y-86175961D01*
X106174038Y-86050538D01*
X106174034Y-86050535D01*
X106026553Y-85951990D01*
X106026540Y-85951983D01*
X105862667Y-85884106D01*
X105862658Y-85884103D01*
X105688694Y-85849500D01*
X105688691Y-85849500D01*
X105511309Y-85849500D01*
X105511306Y-85849500D01*
X105337341Y-85884103D01*
X105337332Y-85884106D01*
X105173459Y-85951983D01*
X105173446Y-85951990D01*
X105025965Y-86050535D01*
X105025961Y-86050538D01*
X104900538Y-86175961D01*
X104900535Y-86175965D01*
X104801990Y-86323446D01*
X104801983Y-86323459D01*
X104734106Y-86487332D01*
X104734103Y-86487341D01*
X104699500Y-86661304D01*
X104699500Y-86838695D01*
X104734103Y-87012658D01*
X104734106Y-87012667D01*
X104801984Y-87176542D01*
X104801985Y-87176543D01*
X104801987Y-87176547D01*
X104878602Y-87291208D01*
X104883424Y-87304603D01*
X104890297Y-87313219D01*
X104894818Y-87336250D01*
X104898854Y-87347460D01*
X104899500Y-87353765D01*
X104899500Y-87464069D01*
X104921666Y-87575501D01*
X104922803Y-87581221D01*
X104922805Y-87581233D01*
X104924497Y-87589739D01*
X104924500Y-87589746D01*
X104969345Y-87698013D01*
X104973535Y-87708127D01*
X105035255Y-87800499D01*
X105044726Y-87814673D01*
X105067872Y-87837819D01*
X105078484Y-87857255D01*
X105092985Y-87873989D01*
X105094901Y-87887320D01*
X105101357Y-87899142D01*
X105099777Y-87921228D01*
X105102929Y-87943147D01*
X105097333Y-87955398D01*
X105096373Y-87968834D01*
X105083102Y-87986560D01*
X105073904Y-88006703D01*
X105062572Y-88013985D01*
X105054501Y-88024767D01*
X105033755Y-88032504D01*
X105015126Y-88044477D01*
X104993207Y-88047628D01*
X104989037Y-88049184D01*
X104980191Y-88049500D01*
X104945808Y-88049500D01*
X104878769Y-88029815D01*
X104858127Y-88013181D01*
X104186819Y-87341873D01*
X104153334Y-87280550D01*
X104150500Y-87254192D01*
X104150500Y-86785928D01*
X104125502Y-86660261D01*
X104125501Y-86660260D01*
X104125501Y-86660256D01*
X104085727Y-86564234D01*
X104076466Y-86541875D01*
X104076461Y-86541866D01*
X104005276Y-86435331D01*
X104005273Y-86435327D01*
X103914672Y-86344726D01*
X103914668Y-86344723D01*
X103808133Y-86273538D01*
X103808124Y-86273533D01*
X103689744Y-86224499D01*
X103689738Y-86224497D01*
X103564071Y-86199500D01*
X103564069Y-86199500D01*
X103454604Y-86199500D01*
X103407152Y-86190061D01*
X103383497Y-86180263D01*
X103383489Y-86180261D01*
X103228845Y-86149500D01*
X103228842Y-86149500D01*
X103071158Y-86149500D01*
X103071155Y-86149500D01*
X102916510Y-86180261D01*
X102916498Y-86180264D01*
X102770827Y-86240602D01*
X102770814Y-86240609D01*
X102639711Y-86328210D01*
X102639707Y-86328213D01*
X102528213Y-86439707D01*
X102528210Y-86439711D01*
X102440609Y-86570814D01*
X102440602Y-86570827D01*
X102380264Y-86716498D01*
X102380261Y-86716510D01*
X102349500Y-86871153D01*
X102349500Y-87028846D01*
X102380261Y-87183489D01*
X102380264Y-87183501D01*
X102440602Y-87329172D01*
X102440609Y-87329185D01*
X102528210Y-87460288D01*
X102528213Y-87460292D01*
X102639710Y-87571789D01*
X102700889Y-87612667D01*
X102770821Y-87659394D01*
X102799736Y-87671370D01*
X102854138Y-87715209D01*
X102872703Y-87758917D01*
X102872729Y-87758910D01*
X102872801Y-87759147D01*
X102873898Y-87761730D01*
X102874495Y-87764732D01*
X102874498Y-87764742D01*
X102889310Y-87800500D01*
X102923535Y-87883127D01*
X102978839Y-87965896D01*
X102994726Y-87989673D01*
X104210327Y-89205274D01*
X104210330Y-89205276D01*
X104267067Y-89243186D01*
X104316873Y-89276465D01*
X104435256Y-89325501D01*
X104435260Y-89325501D01*
X104435261Y-89325502D01*
X104560928Y-89350500D01*
X104560931Y-89350500D01*
X107207728Y-89350500D01*
X107274767Y-89370185D01*
X107276567Y-89371363D01*
X107354719Y-89423583D01*
X107354721Y-89423584D01*
X107354725Y-89423586D01*
X107477629Y-89474493D01*
X107518600Y-89491464D01*
X107518602Y-89491464D01*
X107518607Y-89491466D01*
X107692570Y-89526069D01*
X107692573Y-89526070D01*
X107692575Y-89526070D01*
X107869958Y-89526070D01*
X107880844Y-89523904D01*
X107896173Y-89520855D01*
X107965764Y-89527081D01*
X108020942Y-89569943D01*
X108044188Y-89635833D01*
X108034927Y-89689924D01*
X107988823Y-89801228D01*
X107988820Y-89801240D01*
X107960000Y-89946126D01*
X107960000Y-90195000D01*
X108410000Y-90195000D01*
X108410000Y-90445000D01*
X107960000Y-90445000D01*
X107960000Y-90693873D01*
X107988820Y-90838759D01*
X107988822Y-90838767D01*
X108045357Y-90975254D01*
X108045362Y-90975264D01*
X108127436Y-91098096D01*
X108127439Y-91098100D01*
X108231899Y-91202560D01*
X108231903Y-91202563D01*
X108354735Y-91284637D01*
X108354745Y-91284642D01*
X108418230Y-91310939D01*
X108472633Y-91354780D01*
X108494698Y-91421074D01*
X108477419Y-91488774D01*
X108426281Y-91536384D01*
X108370777Y-91549500D01*
X100409223Y-91549500D01*
X100342184Y-91529815D01*
X100296429Y-91477011D01*
X100286485Y-91407853D01*
X100315510Y-91344297D01*
X100361770Y-91310939D01*
X100425254Y-91284642D01*
X100425264Y-91284637D01*
X100548096Y-91202563D01*
X100548100Y-91202560D01*
X100652560Y-91098100D01*
X100652563Y-91098096D01*
X100734637Y-90975264D01*
X100734642Y-90975254D01*
X100791177Y-90838767D01*
X100791179Y-90838759D01*
X100819999Y-90693873D01*
X100820000Y-90693871D01*
X100820000Y-90445000D01*
X100370000Y-90445000D01*
X100370000Y-90195000D01*
X100820000Y-90195000D01*
X100820000Y-89946128D01*
X100819999Y-89946126D01*
X100791179Y-89801240D01*
X100791177Y-89801232D01*
X100734642Y-89664745D01*
X100734637Y-89664735D01*
X100652563Y-89541903D01*
X100652560Y-89541899D01*
X100548100Y-89437439D01*
X100548096Y-89437436D01*
X100425264Y-89355362D01*
X100425254Y-89355357D01*
X100288765Y-89298821D01*
X100288761Y-89298820D01*
X100195000Y-89280169D01*
X100195000Y-89745757D01*
X100185796Y-89740444D01*
X100109496Y-89720000D01*
X100030504Y-89720000D01*
X99954204Y-89740444D01*
X99945000Y-89745757D01*
X99945000Y-89280170D01*
X99944999Y-89280169D01*
X99851238Y-89298820D01*
X99851234Y-89298821D01*
X99714745Y-89355357D01*
X99714735Y-89355362D01*
X99591903Y-89437436D01*
X99591899Y-89437439D01*
X99487439Y-89541899D01*
X99487436Y-89541903D01*
X99405362Y-89664735D01*
X99405357Y-89664745D01*
X99348822Y-89801232D01*
X99348820Y-89801240D01*
X99320000Y-89946126D01*
X99320000Y-90195000D01*
X99770000Y-90195000D01*
X99770000Y-90445000D01*
X99320000Y-90445000D01*
X99320000Y-90693873D01*
X99348820Y-90838759D01*
X99348822Y-90838767D01*
X99405357Y-90975254D01*
X99405362Y-90975264D01*
X99487436Y-91098096D01*
X99487439Y-91098100D01*
X99591899Y-91202560D01*
X99591903Y-91202563D01*
X99714735Y-91284637D01*
X99714745Y-91284642D01*
X99778230Y-91310939D01*
X99832633Y-91354780D01*
X99854698Y-91421074D01*
X99837419Y-91488774D01*
X99786281Y-91536384D01*
X99730777Y-91549500D01*
X30203751Y-91549500D01*
X30196264Y-91549274D01*
X29906205Y-91531728D01*
X29891340Y-91529923D01*
X29609202Y-91478219D01*
X29594664Y-91474635D01*
X29320825Y-91389304D01*
X29306827Y-91383995D01*
X29086063Y-91284637D01*
X29045269Y-91266277D01*
X29032012Y-91259319D01*
X28786541Y-91110928D01*
X28774217Y-91102422D01*
X28768700Y-91098100D01*
X28548426Y-90925525D01*
X28537218Y-90915595D01*
X28334404Y-90712781D01*
X28324474Y-90701573D01*
X28211428Y-90557281D01*
X28147573Y-90475776D01*
X28139071Y-90463458D01*
X27990680Y-90217987D01*
X27983722Y-90204730D01*
X27911692Y-90044687D01*
X27866000Y-89943163D01*
X27860698Y-89929182D01*
X27775363Y-89655334D01*
X27771780Y-89640797D01*
X27720076Y-89358659D01*
X27718271Y-89343794D01*
X27717164Y-89325501D01*
X27700726Y-89053736D01*
X27700500Y-89046249D01*
X27700500Y-88918872D01*
X28199500Y-88918872D01*
X28199500Y-89181127D01*
X28224551Y-89371398D01*
X28233730Y-89441116D01*
X28293651Y-89664745D01*
X28301602Y-89694418D01*
X28301605Y-89694428D01*
X28401953Y-89936690D01*
X28401958Y-89936700D01*
X28533075Y-90163803D01*
X28692718Y-90371851D01*
X28692726Y-90371860D01*
X28878140Y-90557274D01*
X28878148Y-90557281D01*
X29086196Y-90716924D01*
X29313299Y-90848041D01*
X29313309Y-90848046D01*
X29555571Y-90948394D01*
X29555581Y-90948398D01*
X29808884Y-91016270D01*
X30068880Y-91050500D01*
X30068887Y-91050500D01*
X30331113Y-91050500D01*
X30331120Y-91050500D01*
X30591116Y-91016270D01*
X30844419Y-90948398D01*
X31021340Y-90875114D01*
X31086690Y-90848046D01*
X31086691Y-90848045D01*
X31086697Y-90848043D01*
X31313803Y-90716924D01*
X31521851Y-90557282D01*
X31521855Y-90557277D01*
X31521860Y-90557274D01*
X31707274Y-90371860D01*
X31707277Y-90371855D01*
X31707282Y-90371851D01*
X31866924Y-90163803D01*
X31998043Y-89936697D01*
X32001159Y-89929174D01*
X32016315Y-89892586D01*
X32098394Y-89694428D01*
X32098398Y-89694419D01*
X32166270Y-89441116D01*
X32200500Y-89181120D01*
X32200500Y-88918880D01*
X32166270Y-88658884D01*
X32098398Y-88405581D01*
X32098394Y-88405571D01*
X31998046Y-88163309D01*
X31998041Y-88163299D01*
X31866924Y-87936196D01*
X31744414Y-87776540D01*
X31707282Y-87728149D01*
X31707281Y-87728148D01*
X31707274Y-87728140D01*
X31521860Y-87542726D01*
X31521851Y-87542718D01*
X31313803Y-87383075D01*
X31278345Y-87362604D01*
X31102888Y-87261304D01*
X70199500Y-87261304D01*
X70199500Y-87438695D01*
X70234103Y-87612658D01*
X70234106Y-87612667D01*
X70301983Y-87776540D01*
X70301990Y-87776553D01*
X70400535Y-87924034D01*
X70400538Y-87924038D01*
X70525961Y-88049461D01*
X70525965Y-88049464D01*
X70673446Y-88148009D01*
X70673459Y-88148016D01*
X70796363Y-88198923D01*
X70837334Y-88215894D01*
X70837336Y-88215894D01*
X70837341Y-88215896D01*
X71011304Y-88250499D01*
X71011307Y-88250500D01*
X71011309Y-88250500D01*
X71188693Y-88250500D01*
X71188694Y-88250499D01*
X71246682Y-88238964D01*
X71362658Y-88215896D01*
X71362661Y-88215894D01*
X71362666Y-88215894D01*
X71526547Y-88148013D01*
X71674035Y-88049464D01*
X71799464Y-87924035D01*
X71898013Y-87776547D01*
X71903875Y-87762396D01*
X71940474Y-87674035D01*
X71965894Y-87612666D01*
X71970454Y-87589744D01*
X72000499Y-87438695D01*
X72000500Y-87438693D01*
X72000500Y-87261306D01*
X72000499Y-87261304D01*
X71965896Y-87087341D01*
X71965893Y-87087332D01*
X71898016Y-86923459D01*
X71898009Y-86923446D01*
X71799464Y-86775965D01*
X71799461Y-86775961D01*
X71786819Y-86763319D01*
X71753334Y-86701996D01*
X71750500Y-86675638D01*
X71750500Y-79670808D01*
X71770185Y-79603769D01*
X71786819Y-79583127D01*
X72233127Y-79136819D01*
X72294450Y-79103334D01*
X72320808Y-79100500D01*
X72338693Y-79100500D01*
X72338694Y-79100499D01*
X72396682Y-79088964D01*
X72512658Y-79065896D01*
X72512661Y-79065894D01*
X72512666Y-79065894D01*
X72626683Y-79018666D01*
X72656251Y-79015487D01*
X72685422Y-79009743D01*
X72690606Y-79011794D01*
X72696152Y-79011198D01*
X72722747Y-79024510D01*
X72750391Y-79035448D01*
X72755430Y-79040870D01*
X72758631Y-79042473D01*
X72774850Y-79060892D01*
X72776080Y-79062605D01*
X72850536Y-79174035D01*
X72870324Y-79193823D01*
X72876215Y-79202025D01*
X72884567Y-79225845D01*
X72896665Y-79247999D01*
X72898579Y-79265805D01*
X72899335Y-79267959D01*
X72898974Y-79269472D01*
X72899500Y-79274361D01*
X72899500Y-80314069D01*
X72906747Y-80350499D01*
X72906747Y-80350502D01*
X72916197Y-80398012D01*
X72924499Y-80439744D01*
X72973535Y-80558127D01*
X73040006Y-80657609D01*
X73044726Y-80664673D01*
X73044727Y-80664674D01*
X73363181Y-80983127D01*
X73396666Y-81044450D01*
X73399500Y-81070808D01*
X73399500Y-86675638D01*
X73379815Y-86742677D01*
X73363181Y-86763319D01*
X73350538Y-86775961D01*
X73350535Y-86775965D01*
X73251990Y-86923446D01*
X73251983Y-86923459D01*
X73184106Y-87087332D01*
X73184103Y-87087341D01*
X73149500Y-87261304D01*
X73149500Y-87438695D01*
X73184103Y-87612658D01*
X73184106Y-87612667D01*
X73251983Y-87776540D01*
X73251990Y-87776553D01*
X73350535Y-87924034D01*
X73350538Y-87924038D01*
X73475961Y-88049461D01*
X73475965Y-88049464D01*
X73623446Y-88148009D01*
X73623459Y-88148016D01*
X73746363Y-88198923D01*
X73787334Y-88215894D01*
X73787336Y-88215894D01*
X73787341Y-88215896D01*
X73961304Y-88250499D01*
X73961307Y-88250500D01*
X73961309Y-88250500D01*
X74138693Y-88250500D01*
X74138694Y-88250499D01*
X74196682Y-88238964D01*
X74312658Y-88215896D01*
X74312661Y-88215894D01*
X74312666Y-88215894D01*
X74476547Y-88148013D01*
X74624035Y-88049464D01*
X74749464Y-87924035D01*
X74848013Y-87776547D01*
X74853875Y-87762396D01*
X74890474Y-87674035D01*
X74915894Y-87612666D01*
X74920454Y-87589744D01*
X74950499Y-87438695D01*
X74950500Y-87438693D01*
X74950500Y-87261306D01*
X74950499Y-87261304D01*
X74915896Y-87087341D01*
X74915893Y-87087332D01*
X74848016Y-86923459D01*
X74848009Y-86923446D01*
X74749464Y-86775965D01*
X74749461Y-86775961D01*
X74736819Y-86763319D01*
X74703334Y-86701996D01*
X74700500Y-86675638D01*
X74700500Y-80685928D01*
X74675502Y-80560261D01*
X74675501Y-80560260D01*
X74675501Y-80560256D01*
X74626465Y-80441873D01*
X74597159Y-80398013D01*
X74597159Y-80398012D01*
X74555275Y-80335328D01*
X74236819Y-80016872D01*
X74203334Y-79955549D01*
X74200500Y-79929191D01*
X74200500Y-79274361D01*
X74220185Y-79207322D01*
X74236816Y-79186682D01*
X74249464Y-79174035D01*
X74348013Y-79026547D01*
X74415894Y-78862666D01*
X74423078Y-78826553D01*
X74450499Y-78688695D01*
X74450500Y-78688693D01*
X74450500Y-78511306D01*
X74450499Y-78511304D01*
X74415896Y-78337341D01*
X74415893Y-78337332D01*
X74348016Y-78173459D01*
X74348009Y-78173446D01*
X74249464Y-78025965D01*
X74249461Y-78025961D01*
X74124038Y-77900538D01*
X74124034Y-77900535D01*
X73976553Y-77801990D01*
X73976540Y-77801983D01*
X73812667Y-77734106D01*
X73812658Y-77734103D01*
X73638694Y-77699500D01*
X73638691Y-77699500D01*
X73461309Y-77699500D01*
X73461306Y-77699500D01*
X73287341Y-77734103D01*
X73287337Y-77734105D01*
X73287335Y-77734105D01*
X73287334Y-77734106D01*
X73258183Y-77746180D01*
X73173315Y-77781333D01*
X73103846Y-77788800D01*
X73041367Y-77757525D01*
X73022762Y-77735662D01*
X72949464Y-77625965D01*
X72949461Y-77625961D01*
X72824038Y-77500538D01*
X72824034Y-77500535D01*
X72676553Y-77401990D01*
X72676540Y-77401983D01*
X72512667Y-77334106D01*
X72512658Y-77334103D01*
X72338694Y-77299500D01*
X72338691Y-77299500D01*
X72161309Y-77299500D01*
X72161306Y-77299500D01*
X71987341Y-77334103D01*
X71987332Y-77334106D01*
X71823459Y-77401983D01*
X71823446Y-77401990D01*
X71675965Y-77500535D01*
X71675961Y-77500538D01*
X71550538Y-77625961D01*
X71550535Y-77625965D01*
X71451990Y-77773446D01*
X71451983Y-77773459D01*
X71384106Y-77937332D01*
X71384103Y-77937341D01*
X71349500Y-78111304D01*
X71349500Y-78129191D01*
X71329815Y-78196230D01*
X71313181Y-78216872D01*
X70594727Y-78935325D01*
X70594724Y-78935328D01*
X70552840Y-78998012D01*
X70552841Y-78998013D01*
X70523534Y-79041874D01*
X70474499Y-79160255D01*
X70474497Y-79160261D01*
X70449500Y-79285928D01*
X70449500Y-86675638D01*
X70429815Y-86742677D01*
X70413181Y-86763319D01*
X70400538Y-86775961D01*
X70400535Y-86775965D01*
X70301990Y-86923446D01*
X70301983Y-86923459D01*
X70234106Y-87087332D01*
X70234103Y-87087341D01*
X70199500Y-87261304D01*
X31102888Y-87261304D01*
X31086700Y-87251958D01*
X31086690Y-87251953D01*
X30844428Y-87151605D01*
X30844421Y-87151603D01*
X30844419Y-87151602D01*
X30591116Y-87083730D01*
X30533339Y-87076123D01*
X30331127Y-87049500D01*
X30331120Y-87049500D01*
X30068880Y-87049500D01*
X30068872Y-87049500D01*
X29837772Y-87079926D01*
X29808884Y-87083730D01*
X29723726Y-87106548D01*
X29555581Y-87151602D01*
X29555571Y-87151605D01*
X29313309Y-87251953D01*
X29313299Y-87251958D01*
X29086196Y-87383075D01*
X28878148Y-87542718D01*
X28692718Y-87728148D01*
X28533075Y-87936196D01*
X28401958Y-88163299D01*
X28401953Y-88163309D01*
X28301605Y-88405571D01*
X28301602Y-88405581D01*
X28233730Y-88658885D01*
X28199500Y-88918872D01*
X27700500Y-88918872D01*
X27700500Y-79521213D01*
X30162000Y-79521213D01*
X30162000Y-79733787D01*
X30195254Y-79943743D01*
X30229700Y-80049757D01*
X30260944Y-80145914D01*
X30357451Y-80335320D01*
X30482390Y-80507286D01*
X30632713Y-80657609D01*
X30804679Y-80782548D01*
X30804681Y-80782549D01*
X30804684Y-80782551D01*
X30994088Y-80879057D01*
X31196257Y-80944746D01*
X31406213Y-80978000D01*
X31406214Y-80978000D01*
X31918786Y-80978000D01*
X31918787Y-80978000D01*
X32128743Y-80944746D01*
X32330912Y-80879057D01*
X32520316Y-80782551D01*
X32554378Y-80757804D01*
X32692286Y-80657609D01*
X32692288Y-80657606D01*
X32692292Y-80657604D01*
X32842604Y-80507292D01*
X32842606Y-80507288D01*
X32842609Y-80507286D01*
X32967548Y-80335320D01*
X32967547Y-80335320D01*
X32967551Y-80335316D01*
X33064057Y-80145912D01*
X33129746Y-79943743D01*
X33163000Y-79733787D01*
X33163000Y-79521213D01*
X33160036Y-79502500D01*
X45418586Y-79502500D01*
X46178356Y-79502500D01*
X46162500Y-79561674D01*
X46162500Y-79693326D01*
X46178356Y-79752500D01*
X45418586Y-79752500D01*
X45439586Y-79885085D01*
X45493091Y-80049757D01*
X45571695Y-80204024D01*
X45673467Y-80344102D01*
X45795897Y-80466532D01*
X45935975Y-80568304D01*
X46090242Y-80646908D01*
X46254915Y-80700414D01*
X46425929Y-80727500D01*
X46537500Y-80727500D01*
X46537500Y-80111644D01*
X46596674Y-80127500D01*
X46728326Y-80127500D01*
X46787500Y-80111644D01*
X46787500Y-80727500D01*
X46899071Y-80727500D01*
X47070084Y-80700414D01*
X47234757Y-80646908D01*
X47389024Y-80568304D01*
X47529102Y-80466532D01*
X47651532Y-80344102D01*
X47753304Y-80204024D01*
X47831908Y-80049757D01*
X47885413Y-79885085D01*
X47906414Y-79752500D01*
X47146644Y-79752500D01*
X47162500Y-79693326D01*
X47162500Y-79561674D01*
X47146644Y-79502500D01*
X47906414Y-79502500D01*
X47885413Y-79369914D01*
X47831908Y-79205242D01*
X47753304Y-79050975D01*
X47651532Y-78910897D01*
X47529102Y-78788467D01*
X47389024Y-78686695D01*
X47234757Y-78608091D01*
X47070084Y-78554585D01*
X46899071Y-78527500D01*
X46787500Y-78527500D01*
X46787500Y-79143355D01*
X46728326Y-79127500D01*
X46596674Y-79127500D01*
X46537500Y-79143355D01*
X46537500Y-78527500D01*
X46425929Y-78527500D01*
X46254915Y-78554585D01*
X46090242Y-78608091D01*
X45935975Y-78686695D01*
X45795897Y-78788467D01*
X45673467Y-78910897D01*
X45571695Y-79050975D01*
X45493091Y-79205242D01*
X45439586Y-79369914D01*
X45418586Y-79502500D01*
X33160036Y-79502500D01*
X33129746Y-79311257D01*
X33064057Y-79109088D01*
X32967551Y-78919684D01*
X32967549Y-78919681D01*
X32967548Y-78919679D01*
X32842609Y-78747713D01*
X32692286Y-78597390D01*
X32520320Y-78472451D01*
X32330914Y-78375944D01*
X32330913Y-78375943D01*
X32330912Y-78375943D01*
X32128743Y-78310254D01*
X32128741Y-78310253D01*
X32128740Y-78310253D01*
X31967457Y-78284708D01*
X31918787Y-78277000D01*
X31406213Y-78277000D01*
X31357542Y-78284708D01*
X31196260Y-78310253D01*
X30994085Y-78375944D01*
X30804679Y-78472451D01*
X30632713Y-78597390D01*
X30482390Y-78747713D01*
X30357451Y-78919679D01*
X30260944Y-79109085D01*
X30260943Y-79109087D01*
X30260943Y-79109088D01*
X30239841Y-79174033D01*
X30195253Y-79311260D01*
X30185013Y-79375916D01*
X30162000Y-79521213D01*
X27700500Y-79521213D01*
X27700500Y-75011304D01*
X64299500Y-75011304D01*
X64299500Y-75188695D01*
X64334103Y-75362658D01*
X64334106Y-75362667D01*
X64401983Y-75526540D01*
X64401990Y-75526553D01*
X64500535Y-75674034D01*
X64500538Y-75674038D01*
X64625961Y-75799461D01*
X64625965Y-75799464D01*
X64773446Y-75898009D01*
X64773459Y-75898016D01*
X64896363Y-75948923D01*
X64937334Y-75965894D01*
X64937336Y-75965894D01*
X64937341Y-75965896D01*
X65111304Y-76000499D01*
X65111307Y-76000500D01*
X65111309Y-76000500D01*
X65288693Y-76000500D01*
X65288694Y-76000499D01*
X65346682Y-75988964D01*
X65462658Y-75965896D01*
X65462661Y-75965894D01*
X65462666Y-75965894D01*
X65626547Y-75898013D01*
X65774035Y-75799464D01*
X65899464Y-75674035D01*
X65998013Y-75526547D01*
X66065894Y-75362666D01*
X66073313Y-75325371D01*
X66091964Y-75231603D01*
X66100500Y-75188691D01*
X66100500Y-75011309D01*
X66100500Y-75011306D01*
X66100499Y-75011304D01*
X66065896Y-74837341D01*
X66065893Y-74837332D01*
X66037774Y-74769446D01*
X65998013Y-74673453D01*
X65998011Y-74673451D01*
X65998011Y-74673449D01*
X65971398Y-74633620D01*
X65950520Y-74566942D01*
X65950500Y-74564729D01*
X65950500Y-72861304D01*
X75299500Y-72861304D01*
X75299500Y-73038695D01*
X75334103Y-73212658D01*
X75334106Y-73212667D01*
X75401983Y-73376540D01*
X75401990Y-73376553D01*
X75500534Y-73524033D01*
X75500535Y-73524034D01*
X75500536Y-73524035D01*
X75562895Y-73586394D01*
X75589773Y-73626620D01*
X75623533Y-73708124D01*
X75623534Y-73708126D01*
X75623535Y-73708127D01*
X75659754Y-73762334D01*
X75694726Y-73814673D01*
X75694727Y-73814674D01*
X76613181Y-74733127D01*
X76646666Y-74794450D01*
X76649500Y-74820808D01*
X76649500Y-86425638D01*
X76629815Y-86492677D01*
X76613181Y-86513319D01*
X76600538Y-86525961D01*
X76600535Y-86525965D01*
X76501990Y-86673446D01*
X76501983Y-86673459D01*
X76434106Y-86837332D01*
X76434103Y-86837341D01*
X76399500Y-87011304D01*
X76399500Y-87188695D01*
X76434103Y-87362658D01*
X76434106Y-87362667D01*
X76501983Y-87526540D01*
X76501990Y-87526553D01*
X76600535Y-87674034D01*
X76600538Y-87674038D01*
X76725961Y-87799461D01*
X76725965Y-87799464D01*
X76873446Y-87898009D01*
X76873459Y-87898016D01*
X76941276Y-87926106D01*
X77037334Y-87965894D01*
X77037336Y-87965894D01*
X77037341Y-87965896D01*
X77211304Y-88000499D01*
X77211307Y-88000500D01*
X77211309Y-88000500D01*
X77388693Y-88000500D01*
X77388694Y-88000499D01*
X77458772Y-87986560D01*
X77562658Y-87965896D01*
X77562661Y-87965894D01*
X77562666Y-87965894D01*
X77702535Y-87907958D01*
X77726540Y-87898016D01*
X77726540Y-87898015D01*
X77726547Y-87898013D01*
X77874035Y-87799464D01*
X77999464Y-87674035D01*
X78098013Y-87526547D01*
X78165894Y-87362666D01*
X78165907Y-87362604D01*
X78195167Y-87215500D01*
X78200500Y-87188691D01*
X78200500Y-87011309D01*
X78200500Y-87011306D01*
X78200499Y-87011304D01*
X78165896Y-86837341D01*
X78165893Y-86837332D01*
X78098016Y-86673459D01*
X78098009Y-86673446D01*
X77999464Y-86525965D01*
X77999461Y-86525961D01*
X77986819Y-86513319D01*
X77953334Y-86451996D01*
X77950500Y-86425638D01*
X77950500Y-74435928D01*
X77925502Y-74310261D01*
X77925501Y-74310260D01*
X77925501Y-74310256D01*
X77876465Y-74191873D01*
X77805277Y-74085331D01*
X77805275Y-74085329D01*
X77805273Y-74085326D01*
X77737845Y-74017898D01*
X77656251Y-73936304D01*
X78224500Y-73936304D01*
X78224500Y-74113695D01*
X78259103Y-74287658D01*
X78259106Y-74287667D01*
X78326983Y-74451540D01*
X78326990Y-74451553D01*
X78425535Y-74599034D01*
X78425538Y-74599038D01*
X78550961Y-74724461D01*
X78550965Y-74724464D01*
X78698446Y-74823009D01*
X78698459Y-74823016D01*
X78821363Y-74873923D01*
X78862334Y-74890894D01*
X78862336Y-74890894D01*
X78862341Y-74890896D01*
X79036304Y-74925499D01*
X79036307Y-74925500D01*
X79036309Y-74925500D01*
X79054192Y-74925500D01*
X79121231Y-74945185D01*
X79141873Y-74961819D01*
X79663181Y-75483127D01*
X79696666Y-75544450D01*
X79699500Y-75570808D01*
X79699500Y-86225638D01*
X79679815Y-86292677D01*
X79663181Y-86313319D01*
X79650538Y-86325961D01*
X79650535Y-86325965D01*
X79551990Y-86473446D01*
X79551983Y-86473459D01*
X79484106Y-86637332D01*
X79484103Y-86637341D01*
X79449500Y-86811304D01*
X79449500Y-86988695D01*
X79484103Y-87162658D01*
X79484106Y-87162667D01*
X79551983Y-87326540D01*
X79551990Y-87326553D01*
X79650535Y-87474034D01*
X79650538Y-87474038D01*
X79775961Y-87599461D01*
X79775965Y-87599464D01*
X79923446Y-87698009D01*
X79923459Y-87698016D01*
X80034515Y-87744016D01*
X80087334Y-87765894D01*
X80087336Y-87765894D01*
X80087341Y-87765896D01*
X80261304Y-87800499D01*
X80261307Y-87800500D01*
X80261309Y-87800500D01*
X80438693Y-87800500D01*
X80438694Y-87800499D01*
X80502251Y-87787857D01*
X80612658Y-87765896D01*
X80612661Y-87765894D01*
X80612666Y-87765894D01*
X80776547Y-87698013D01*
X80924035Y-87599464D01*
X81049464Y-87474035D01*
X81148013Y-87326547D01*
X81156709Y-87305554D01*
X81167065Y-87280550D01*
X81215894Y-87162666D01*
X81218095Y-87151605D01*
X81242513Y-87028842D01*
X81250500Y-86988691D01*
X81250500Y-86811309D01*
X81250500Y-86811306D01*
X81250499Y-86811304D01*
X81215896Y-86637341D01*
X81215893Y-86637332D01*
X81209467Y-86621819D01*
X81194424Y-86585500D01*
X81148016Y-86473459D01*
X81148009Y-86473446D01*
X81049464Y-86325965D01*
X81049461Y-86325961D01*
X81036819Y-86313319D01*
X81003334Y-86251996D01*
X81000500Y-86225638D01*
X81000500Y-82063362D01*
X81020185Y-81996323D01*
X81072989Y-81950568D01*
X81142147Y-81940624D01*
X81205703Y-81969649D01*
X81212181Y-81975681D01*
X81285961Y-82049461D01*
X81285965Y-82049464D01*
X81433446Y-82148009D01*
X81433459Y-82148016D01*
X81538086Y-82191353D01*
X81597334Y-82215894D01*
X81597336Y-82215894D01*
X81597341Y-82215896D01*
X81771304Y-82250499D01*
X81771307Y-82250500D01*
X81771309Y-82250500D01*
X81948693Y-82250500D01*
X81948694Y-82250499D01*
X82031124Y-82234103D01*
X82122658Y-82215896D01*
X82122661Y-82215894D01*
X82122666Y-82215894D01*
X82286547Y-82148013D01*
X82434035Y-82049464D01*
X82559464Y-81924035D01*
X82658013Y-81776547D01*
X82725894Y-81612666D01*
X82730932Y-81587341D01*
X82760499Y-81438695D01*
X82760500Y-81438693D01*
X82760500Y-81420808D01*
X82767489Y-81397004D01*
X82770355Y-81372364D01*
X82778094Y-81360888D01*
X82780185Y-81353769D01*
X82788626Y-81342168D01*
X82792495Y-81337450D01*
X82855277Y-81274669D01*
X82904859Y-81200462D01*
X82908707Y-81195772D01*
X82932758Y-81179380D01*
X82955090Y-81160717D01*
X82961284Y-81159938D01*
X82966443Y-81156423D01*
X82995539Y-81155636D01*
X83024415Y-81152009D01*
X83033566Y-81154607D01*
X83036287Y-81154534D01*
X83038921Y-81156127D01*
X83052032Y-81159850D01*
X83187334Y-81215894D01*
X83187336Y-81215894D01*
X83187341Y-81215896D01*
X83361304Y-81250499D01*
X83361307Y-81250500D01*
X83361309Y-81250500D01*
X83538693Y-81250500D01*
X83538694Y-81250499D01*
X83596682Y-81238964D01*
X83712658Y-81215896D01*
X83712661Y-81215894D01*
X83712666Y-81215894D01*
X83876547Y-81148013D01*
X84024035Y-81049464D01*
X84029049Y-81044450D01*
X84036681Y-81036819D01*
X84098004Y-81003334D01*
X84124362Y-81000500D01*
X86376638Y-81000500D01*
X86443677Y-81020185D01*
X86489432Y-81072989D01*
X86499376Y-81142147D01*
X86470351Y-81205703D01*
X86464319Y-81212181D01*
X86400538Y-81275961D01*
X86400535Y-81275965D01*
X86301990Y-81423446D01*
X86301983Y-81423459D01*
X86234106Y-81587332D01*
X86234103Y-81587341D01*
X86199500Y-81761304D01*
X86199500Y-81938695D01*
X86234103Y-82112658D01*
X86234106Y-82112667D01*
X86301983Y-82276540D01*
X86301990Y-82276553D01*
X86403920Y-82429100D01*
X86402131Y-82430295D01*
X86425635Y-82485672D01*
X86413829Y-82554537D01*
X86403495Y-82570616D01*
X86403920Y-82570900D01*
X86301990Y-82723446D01*
X86301983Y-82723459D01*
X86234106Y-82887332D01*
X86234103Y-82887341D01*
X86199500Y-83061304D01*
X86199500Y-83238695D01*
X86234103Y-83412658D01*
X86234106Y-83412667D01*
X86301983Y-83576540D01*
X86301990Y-83576553D01*
X86400535Y-83724034D01*
X86400538Y-83724038D01*
X86525961Y-83849461D01*
X86525965Y-83849464D01*
X86673446Y-83948009D01*
X86673459Y-83948016D01*
X86796363Y-83998923D01*
X86837334Y-84015894D01*
X86837336Y-84015894D01*
X86837341Y-84015896D01*
X87011304Y-84050499D01*
X87011307Y-84050500D01*
X87011309Y-84050500D01*
X87188693Y-84050500D01*
X87188694Y-84050499D01*
X87289137Y-84030520D01*
X87362658Y-84015896D01*
X87362661Y-84015894D01*
X87362666Y-84015894D01*
X87526547Y-83948013D01*
X87674035Y-83849464D01*
X87674038Y-83849461D01*
X87686681Y-83836819D01*
X87748004Y-83803334D01*
X87774362Y-83800500D01*
X97532704Y-83800500D01*
X97599743Y-83820185D01*
X97645498Y-83872989D01*
X97655442Y-83942147D01*
X97626417Y-84005703D01*
X97620385Y-84012181D01*
X97434097Y-84198469D01*
X97082501Y-84550064D01*
X97082498Y-84550067D01*
X96519386Y-85113181D01*
X96458063Y-85146666D01*
X96431705Y-85149500D01*
X93024361Y-85149500D01*
X92957322Y-85129815D01*
X92936684Y-85113185D01*
X92874035Y-85050536D01*
X92874034Y-85050535D01*
X92874033Y-85050534D01*
X92726553Y-84951990D01*
X92726540Y-84951983D01*
X92562667Y-84884106D01*
X92562658Y-84884103D01*
X92388694Y-84849500D01*
X92388691Y-84849500D01*
X92211309Y-84849500D01*
X92211306Y-84849500D01*
X92037341Y-84884103D01*
X92037332Y-84884106D01*
X91882445Y-84948262D01*
X91812976Y-84955731D01*
X91766102Y-84936803D01*
X91691552Y-84886990D01*
X91691540Y-84886983D01*
X91527667Y-84819106D01*
X91527658Y-84819103D01*
X91353694Y-84784500D01*
X91353691Y-84784500D01*
X91176309Y-84784500D01*
X91176306Y-84784500D01*
X91002341Y-84819103D01*
X91002332Y-84819106D01*
X90838459Y-84886983D01*
X90838446Y-84886990D01*
X90690965Y-84985535D01*
X90690961Y-84985538D01*
X90565538Y-85110961D01*
X90565535Y-85110965D01*
X90466990Y-85258446D01*
X90466983Y-85258459D01*
X90399106Y-85422332D01*
X90399103Y-85422341D01*
X90364500Y-85596304D01*
X90364500Y-85773695D01*
X90399103Y-85947658D01*
X90399106Y-85947667D01*
X90466983Y-86111540D01*
X90466990Y-86111553D01*
X90565535Y-86259034D01*
X90565538Y-86259038D01*
X90690961Y-86384461D01*
X90690965Y-86384464D01*
X90838446Y-86483009D01*
X90838459Y-86483016D01*
X90930078Y-86520965D01*
X91002334Y-86550894D01*
X91002336Y-86550894D01*
X91002341Y-86550896D01*
X91176304Y-86585499D01*
X91176307Y-86585500D01*
X91176309Y-86585500D01*
X91192802Y-86585500D01*
X91259841Y-86605185D01*
X91280483Y-86621819D01*
X91590184Y-86931520D01*
X91727115Y-87010577D01*
X91879843Y-87051501D01*
X91879846Y-87051501D01*
X92045554Y-87051501D01*
X92045570Y-87051500D01*
X92503695Y-87051500D01*
X92503711Y-87051501D01*
X92511307Y-87051501D01*
X92669418Y-87051501D01*
X92669421Y-87051501D01*
X92822149Y-87010577D01*
X92885644Y-86973918D01*
X92959080Y-86931520D01*
X93070884Y-86819716D01*
X93070884Y-86819714D01*
X93081090Y-86809509D01*
X93081096Y-86809502D01*
X93102782Y-86787817D01*
X93164106Y-86754333D01*
X93190461Y-86751500D01*
X96811233Y-86751500D01*
X96811249Y-86751501D01*
X96818845Y-86751501D01*
X96976956Y-86751501D01*
X96976959Y-86751501D01*
X97129687Y-86710577D01*
X97176215Y-86683713D01*
X97187777Y-86677823D01*
X97196682Y-86673858D01*
X97249983Y-86659577D01*
X97315788Y-86621584D01*
X97386914Y-86580520D01*
X97498718Y-86468716D01*
X97498718Y-86468714D01*
X97508919Y-86458514D01*
X97508923Y-86458508D01*
X97611883Y-86355550D01*
X97611882Y-86355550D01*
X98011981Y-85955453D01*
X98011982Y-85955451D01*
X98345395Y-85622039D01*
X98345395Y-85622037D01*
X98362833Y-85604600D01*
X98362835Y-85604597D01*
X98451306Y-85516126D01*
X99320000Y-85516126D01*
X99320000Y-86015000D01*
X99770000Y-86015000D01*
X99770000Y-86265000D01*
X99320000Y-86265000D01*
X99320000Y-86763873D01*
X99348820Y-86908759D01*
X99348822Y-86908767D01*
X99405357Y-87045254D01*
X99405362Y-87045264D01*
X99487436Y-87168096D01*
X99487439Y-87168100D01*
X99591899Y-87272560D01*
X99591903Y-87272563D01*
X99714735Y-87354637D01*
X99714745Y-87354642D01*
X99851232Y-87411177D01*
X99851240Y-87411179D01*
X99944999Y-87429829D01*
X99945000Y-87429829D01*
X99945000Y-86964242D01*
X99954204Y-86969556D01*
X100030504Y-86990000D01*
X100109496Y-86990000D01*
X100185796Y-86969556D01*
X100195000Y-86964242D01*
X100195000Y-87429829D01*
X100288759Y-87411179D01*
X100288767Y-87411177D01*
X100425254Y-87354642D01*
X100425264Y-87354637D01*
X100548096Y-87272563D01*
X100548100Y-87272560D01*
X100652560Y-87168100D01*
X100652563Y-87168096D01*
X100734637Y-87045264D01*
X100734644Y-87045251D01*
X100778276Y-86939913D01*
X100822116Y-86885509D01*
X100888410Y-86863444D01*
X100956110Y-86880723D01*
X101000223Y-86925364D01*
X101039480Y-86993358D01*
X101039483Y-86993362D01*
X101039485Y-86993365D01*
X101146635Y-87100515D01*
X101233274Y-87150536D01*
X101263298Y-87167871D01*
X101277865Y-87176281D01*
X101424234Y-87215500D01*
X101424236Y-87215500D01*
X101575764Y-87215500D01*
X101575766Y-87215500D01*
X101722135Y-87176281D01*
X101853365Y-87100515D01*
X101960515Y-86993365D01*
X102036281Y-86862135D01*
X102075500Y-86715766D01*
X102075500Y-86564234D01*
X102036281Y-86417865D01*
X101960515Y-86286635D01*
X101853365Y-86179485D01*
X101760675Y-86125970D01*
X101722136Y-86103719D01*
X101648950Y-86084109D01*
X101575766Y-86064500D01*
X101424234Y-86064500D01*
X101277863Y-86103719D01*
X101146635Y-86179485D01*
X101146632Y-86179487D01*
X101033738Y-86292382D01*
X101032785Y-86291429D01*
X100983216Y-86327615D01*
X100913470Y-86331762D01*
X100853602Y-86298602D01*
X100820000Y-86265000D01*
X100370000Y-86265000D01*
X100370000Y-86015000D01*
X100820000Y-86015000D01*
X100820000Y-85516128D01*
X100819999Y-85516126D01*
X100791179Y-85371240D01*
X100791177Y-85371232D01*
X100734642Y-85234745D01*
X100734637Y-85234735D01*
X100652563Y-85111903D01*
X100652560Y-85111899D01*
X100548100Y-85007439D01*
X100548096Y-85007436D01*
X100425264Y-84925362D01*
X100425254Y-84925357D01*
X100288765Y-84868821D01*
X100288761Y-84868820D01*
X100195000Y-84850169D01*
X100195000Y-85315757D01*
X100185796Y-85310444D01*
X100109496Y-85290000D01*
X100030504Y-85290000D01*
X99954204Y-85310444D01*
X99945000Y-85315757D01*
X99945000Y-84850170D01*
X99944999Y-84850169D01*
X99851238Y-84868820D01*
X99851234Y-84868821D01*
X99714745Y-84925357D01*
X99714735Y-84925362D01*
X99591903Y-85007436D01*
X99591899Y-85007439D01*
X99487439Y-85111899D01*
X99487436Y-85111903D01*
X99405362Y-85234735D01*
X99405357Y-85234745D01*
X99348822Y-85371232D01*
X99348820Y-85371240D01*
X99320000Y-85516126D01*
X98451306Y-85516126D01*
X98560012Y-85407420D01*
X98560011Y-85407420D01*
X99019631Y-84947802D01*
X99780614Y-84186819D01*
X99841937Y-84153334D01*
X99868295Y-84150500D01*
X102788538Y-84150500D01*
X102855577Y-84170185D01*
X102876219Y-84186819D01*
X102970920Y-84281520D01*
X102970922Y-84281521D01*
X102970926Y-84281524D01*
X103107845Y-84360573D01*
X103107852Y-84360577D01*
X103260579Y-84401501D01*
X103260581Y-84401501D01*
X103426290Y-84401501D01*
X103426306Y-84401500D01*
X103833695Y-84401500D01*
X103833711Y-84401501D01*
X103841307Y-84401501D01*
X103999418Y-84401501D01*
X103999421Y-84401501D01*
X104152149Y-84360577D01*
X104202268Y-84331639D01*
X104289080Y-84281520D01*
X104383782Y-84186817D01*
X104410713Y-84172111D01*
X104436527Y-84155523D01*
X104442726Y-84154631D01*
X104445103Y-84153334D01*
X104471462Y-84150500D01*
X104513331Y-84150500D01*
X104513347Y-84150501D01*
X104520943Y-84150501D01*
X104679054Y-84150501D01*
X104679057Y-84150501D01*
X104831785Y-84109577D01*
X104885632Y-84078488D01*
X104968716Y-84030520D01*
X104973464Y-84025771D01*
X104986138Y-84018168D01*
X105013366Y-84011076D01*
X105039612Y-84000930D01*
X105049931Y-84000500D01*
X105138693Y-84000500D01*
X105138694Y-84000499D01*
X105196682Y-83988964D01*
X105312658Y-83965896D01*
X105312661Y-83965894D01*
X105312666Y-83965894D01*
X105476547Y-83898013D01*
X105624035Y-83799464D01*
X105749464Y-83674035D01*
X105848013Y-83526547D01*
X105915894Y-83362666D01*
X105950500Y-83188691D01*
X105950500Y-83011309D01*
X105950500Y-83011306D01*
X105950499Y-83011304D01*
X105915896Y-82837341D01*
X105915893Y-82837332D01*
X105848016Y-82673459D01*
X105848009Y-82673446D01*
X105749464Y-82525965D01*
X105749461Y-82525961D01*
X105624038Y-82400538D01*
X105624034Y-82400535D01*
X105476553Y-82301990D01*
X105476540Y-82301983D01*
X105312667Y-82234106D01*
X105312658Y-82234103D01*
X105138694Y-82199500D01*
X105138691Y-82199500D01*
X104961309Y-82199500D01*
X104961306Y-82199500D01*
X104787341Y-82234103D01*
X104787332Y-82234106D01*
X104623459Y-82301983D01*
X104623446Y-82301990D01*
X104475965Y-82400535D01*
X104475961Y-82400538D01*
X104427681Y-82448819D01*
X104425827Y-82449830D01*
X104424755Y-82451651D01*
X104395302Y-82466498D01*
X104366358Y-82482304D01*
X104364250Y-82482153D01*
X104362365Y-82483104D01*
X104329573Y-82479673D01*
X104296666Y-82477320D01*
X104294312Y-82475984D01*
X104292875Y-82475834D01*
X104286119Y-82471333D01*
X104262470Y-82457911D01*
X104257139Y-82453640D01*
X104204035Y-82400536D01*
X104124620Y-82347472D01*
X104120432Y-82344117D01*
X104103373Y-82319696D01*
X104084266Y-82296834D01*
X104083578Y-82291360D01*
X104080420Y-82286839D01*
X104079271Y-82257069D01*
X104075559Y-82227509D01*
X104077939Y-82222533D01*
X104077727Y-82217021D01*
X104092857Y-82191353D01*
X104105714Y-82164481D01*
X104110240Y-82159704D01*
X104505277Y-81764669D01*
X104576466Y-81658126D01*
X104625501Y-81539743D01*
X104637915Y-81477333D01*
X104650500Y-81414071D01*
X104650500Y-78085928D01*
X104625502Y-77960261D01*
X104625501Y-77960260D01*
X104625501Y-77960256D01*
X104620853Y-77949035D01*
X104612505Y-77928880D01*
X104605036Y-77859411D01*
X104623964Y-77812538D01*
X104648013Y-77776547D01*
X104715894Y-77612666D01*
X104718019Y-77601987D01*
X104750499Y-77438695D01*
X104750500Y-77438693D01*
X104750500Y-77261306D01*
X104749464Y-77256100D01*
X104749462Y-77256094D01*
X104715894Y-77087334D01*
X104671385Y-76979879D01*
X104648016Y-76923459D01*
X104648009Y-76923446D01*
X104549464Y-76775965D01*
X104549461Y-76775961D01*
X104424038Y-76650538D01*
X104424034Y-76650535D01*
X104276553Y-76551990D01*
X104276540Y-76551983D01*
X104112667Y-76484106D01*
X104112658Y-76484103D01*
X103938694Y-76449500D01*
X103938691Y-76449500D01*
X103761309Y-76449500D01*
X103761306Y-76449500D01*
X103587341Y-76484103D01*
X103587332Y-76484106D01*
X103423459Y-76551983D01*
X103423446Y-76551990D01*
X103275965Y-76650535D01*
X103275961Y-76650538D01*
X103150538Y-76775961D01*
X103150535Y-76775965D01*
X103051990Y-76923446D01*
X103051983Y-76923459D01*
X102984106Y-77087332D01*
X102984103Y-77087341D01*
X102949500Y-77261304D01*
X102949500Y-77425501D01*
X102929815Y-77492540D01*
X102877011Y-77538295D01*
X102872953Y-77540062D01*
X102723455Y-77601985D01*
X102723446Y-77601990D01*
X102575965Y-77700535D01*
X102575961Y-77700538D01*
X102450538Y-77825961D01*
X102450535Y-77825965D01*
X102351990Y-77973446D01*
X102351983Y-77973459D01*
X102284106Y-78137332D01*
X102284103Y-78137341D01*
X102249500Y-78311304D01*
X102249500Y-78488695D01*
X102284103Y-78662658D01*
X102284106Y-78662667D01*
X102351983Y-78826540D01*
X102351990Y-78826553D01*
X102450535Y-78974034D01*
X102450538Y-78974038D01*
X102575961Y-79099461D01*
X102575965Y-79099464D01*
X102686686Y-79173446D01*
X102694391Y-79178594D01*
X102739196Y-79232206D01*
X102749500Y-79281696D01*
X102749500Y-80679192D01*
X102729815Y-80746231D01*
X102713181Y-80766873D01*
X102316873Y-81163181D01*
X102255550Y-81196666D01*
X102229192Y-81199500D01*
X99222352Y-81199500D01*
X99155313Y-81179815D01*
X99109558Y-81127011D01*
X99099614Y-81057853D01*
X99128639Y-80994297D01*
X99174900Y-80960939D01*
X99258125Y-80926466D01*
X99258127Y-80926465D01*
X99282385Y-80910257D01*
X99329082Y-80879055D01*
X99364669Y-80855277D01*
X100655276Y-79564670D01*
X100726465Y-79458127D01*
X100730039Y-79449500D01*
X100747817Y-79406579D01*
X100775501Y-79339744D01*
X100776312Y-79335665D01*
X100800500Y-79214069D01*
X100800500Y-78424361D01*
X100820185Y-78357322D01*
X100836822Y-78336677D01*
X100848462Y-78325037D01*
X100848464Y-78325035D01*
X100947013Y-78177547D01*
X101014894Y-78013666D01*
X101015646Y-78009888D01*
X101049499Y-77839695D01*
X101049500Y-77839693D01*
X101049500Y-77662306D01*
X101049499Y-77662304D01*
X101014896Y-77488341D01*
X101014893Y-77488332D01*
X100947016Y-77324459D01*
X100947009Y-77324446D01*
X100848464Y-77176965D01*
X100848461Y-77176961D01*
X100723037Y-77051537D01*
X100713567Y-77045209D01*
X100696026Y-77033489D01*
X100651223Y-76979879D01*
X100642514Y-76910554D01*
X100672668Y-76847527D01*
X100677218Y-76842726D01*
X102194574Y-75325371D01*
X104950000Y-75325371D01*
X104950000Y-76075000D01*
X105565856Y-76075000D01*
X105550000Y-76134174D01*
X105550000Y-76265826D01*
X105565856Y-76325000D01*
X104950000Y-76325000D01*
X104950000Y-77015497D01*
X104986800Y-77180913D01*
X105019760Y-77230239D01*
X105102455Y-77285494D01*
X105102459Y-77285496D01*
X105175371Y-77299999D01*
X105175374Y-77300000D01*
X105925000Y-77300000D01*
X105925000Y-76684144D01*
X105984174Y-76700000D01*
X106115826Y-76700000D01*
X106175000Y-76684144D01*
X106175000Y-77300000D01*
X106924626Y-77300000D01*
X106924628Y-77299999D01*
X106997540Y-77285496D01*
X106997544Y-77285494D01*
X107080239Y-77230239D01*
X107135494Y-77147544D01*
X107135496Y-77147540D01*
X107149999Y-77074628D01*
X107150000Y-77074626D01*
X107150000Y-76865069D01*
X107169685Y-76798030D01*
X107222489Y-76752275D01*
X107291647Y-76742331D01*
X107355203Y-76771356D01*
X107384484Y-76808772D01*
X107404230Y-76847527D01*
X107434951Y-76907820D01*
X107559890Y-77079786D01*
X107710213Y-77230109D01*
X107882179Y-77355048D01*
X107882181Y-77355049D01*
X107882184Y-77355051D01*
X108071588Y-77451557D01*
X108273757Y-77517246D01*
X108483713Y-77550500D01*
X108483714Y-77550500D01*
X108696286Y-77550500D01*
X108696287Y-77550500D01*
X108906243Y-77517246D01*
X109108412Y-77451557D01*
X109297816Y-77355051D01*
X109339931Y-77324453D01*
X109469786Y-77230109D01*
X109469788Y-77230106D01*
X109469792Y-77230104D01*
X109620104Y-77079792D01*
X109620106Y-77079788D01*
X109620109Y-77079786D01*
X109745048Y-76907820D01*
X109745047Y-76907820D01*
X109745051Y-76907816D01*
X109749514Y-76899054D01*
X109797488Y-76848259D01*
X109865308Y-76831463D01*
X109931444Y-76853999D01*
X109970486Y-76899056D01*
X109974951Y-76907820D01*
X110099890Y-77079786D01*
X110250213Y-77230109D01*
X110422179Y-77355048D01*
X110422181Y-77355049D01*
X110422184Y-77355051D01*
X110611588Y-77451557D01*
X110813757Y-77517246D01*
X111023713Y-77550500D01*
X111023714Y-77550500D01*
X111236286Y-77550500D01*
X111236287Y-77550500D01*
X111446243Y-77517246D01*
X111648412Y-77451557D01*
X111837816Y-77355051D01*
X111879931Y-77324453D01*
X112009786Y-77230109D01*
X112009788Y-77230106D01*
X112009792Y-77230104D01*
X112160104Y-77079792D01*
X112160106Y-77079788D01*
X112160109Y-77079786D01*
X112285048Y-76907820D01*
X112285047Y-76907820D01*
X112285051Y-76907816D01*
X112289514Y-76899054D01*
X112337488Y-76848259D01*
X112405308Y-76831463D01*
X112471444Y-76853999D01*
X112510486Y-76899056D01*
X112514951Y-76907820D01*
X112639890Y-77079786D01*
X112790213Y-77230109D01*
X112962179Y-77355048D01*
X112962181Y-77355049D01*
X112962184Y-77355051D01*
X113151588Y-77451557D01*
X113353757Y-77517246D01*
X113563713Y-77550500D01*
X113563714Y-77550500D01*
X113776286Y-77550500D01*
X113776287Y-77550500D01*
X113986243Y-77517246D01*
X114188412Y-77451557D01*
X114377816Y-77355051D01*
X114419931Y-77324453D01*
X114549786Y-77230109D01*
X114549788Y-77230106D01*
X114549792Y-77230104D01*
X114700104Y-77079792D01*
X114700106Y-77079788D01*
X114700109Y-77079786D01*
X114825048Y-76907820D01*
X114825047Y-76907820D01*
X114825051Y-76907816D01*
X114921557Y-76718412D01*
X114987246Y-76516243D01*
X115020500Y-76306287D01*
X115020500Y-76093713D01*
X114987246Y-75883757D01*
X114921557Y-75681588D01*
X114825051Y-75492184D01*
X114825049Y-75492181D01*
X114825048Y-75492179D01*
X114700109Y-75320213D01*
X114549786Y-75169890D01*
X114377820Y-75044951D01*
X114188414Y-74948444D01*
X114188413Y-74948443D01*
X114188412Y-74948443D01*
X113986243Y-74882754D01*
X113986241Y-74882753D01*
X113986240Y-74882753D01*
X113824957Y-74857208D01*
X113776287Y-74849500D01*
X113563713Y-74849500D01*
X113515042Y-74857208D01*
X113353760Y-74882753D01*
X113151585Y-74948444D01*
X112962179Y-75044951D01*
X112790213Y-75169890D01*
X112639890Y-75320213D01*
X112514949Y-75492182D01*
X112510484Y-75500946D01*
X112462509Y-75551742D01*
X112394688Y-75568536D01*
X112328553Y-75545998D01*
X112289516Y-75500946D01*
X112285050Y-75492182D01*
X112160109Y-75320213D01*
X112009786Y-75169890D01*
X111837820Y-75044951D01*
X111648414Y-74948444D01*
X111648413Y-74948443D01*
X111648412Y-74948443D01*
X111446243Y-74882754D01*
X111446241Y-74882753D01*
X111446240Y-74882753D01*
X111284957Y-74857208D01*
X111236287Y-74849500D01*
X111023713Y-74849500D01*
X110975042Y-74857208D01*
X110813760Y-74882753D01*
X110611585Y-74948444D01*
X110422179Y-75044951D01*
X110250213Y-75169890D01*
X110099890Y-75320213D01*
X109974949Y-75492182D01*
X109970484Y-75500946D01*
X109922509Y-75551742D01*
X109854688Y-75568536D01*
X109788553Y-75545998D01*
X109749516Y-75500946D01*
X109745050Y-75492182D01*
X109620109Y-75320213D01*
X109469786Y-75169890D01*
X109297819Y-75044951D01*
X109297818Y-75044950D01*
X109297816Y-75044949D01*
X109140740Y-74964914D01*
X109108675Y-74941426D01*
X109100448Y-74933070D01*
X109095277Y-74925331D01*
X108936522Y-74766576D01*
X108936140Y-74766188D01*
X108919846Y-74735788D01*
X108903334Y-74705549D01*
X108903257Y-74704839D01*
X108903133Y-74704607D01*
X108903175Y-74704073D01*
X108900500Y-74679191D01*
X108900500Y-71074361D01*
X108920185Y-71007322D01*
X108936816Y-70986682D01*
X108949464Y-70974035D01*
X109048013Y-70826547D01*
X109115894Y-70662666D01*
X109150500Y-70488691D01*
X109150500Y-70311309D01*
X109150500Y-70311306D01*
X109150499Y-70311304D01*
X109115896Y-70137341D01*
X109115893Y-70137332D01*
X109048016Y-69973459D01*
X109048009Y-69973446D01*
X108949464Y-69825965D01*
X108949461Y-69825961D01*
X108824038Y-69700538D01*
X108824034Y-69700535D01*
X108676553Y-69601990D01*
X108676540Y-69601983D01*
X108512667Y-69534106D01*
X108512658Y-69534103D01*
X108338694Y-69499500D01*
X108338691Y-69499500D01*
X108161309Y-69499500D01*
X108161306Y-69499500D01*
X107987341Y-69534103D01*
X107987332Y-69534106D01*
X107823459Y-69601983D01*
X107823446Y-69601990D01*
X107675965Y-69700535D01*
X107675961Y-69700538D01*
X107550538Y-69825961D01*
X107550535Y-69825965D01*
X107451990Y-69973446D01*
X107451983Y-69973459D01*
X107384106Y-70137332D01*
X107384103Y-70137341D01*
X107349500Y-70311304D01*
X107349500Y-70488695D01*
X107384103Y-70662658D01*
X107384106Y-70662667D01*
X107451983Y-70826540D01*
X107451990Y-70826553D01*
X107550534Y-70974033D01*
X107550535Y-70974034D01*
X107550536Y-70974035D01*
X107563180Y-70986679D01*
X107596665Y-71047999D01*
X107599500Y-71074361D01*
X107599500Y-75064070D01*
X107619755Y-75165893D01*
X107619756Y-75165897D01*
X107622496Y-75179673D01*
X107616267Y-75249264D01*
X107588561Y-75291542D01*
X107559895Y-75320208D01*
X107434951Y-75492180D01*
X107384485Y-75591225D01*
X107336510Y-75642021D01*
X107268689Y-75658816D01*
X107202554Y-75636279D01*
X107159103Y-75581563D01*
X107150000Y-75534930D01*
X107150000Y-75325373D01*
X107149999Y-75325371D01*
X107135496Y-75252459D01*
X107135494Y-75252455D01*
X107080239Y-75169760D01*
X106997544Y-75114505D01*
X106997540Y-75114503D01*
X106924627Y-75100000D01*
X106175000Y-75100000D01*
X106175000Y-75715855D01*
X106115826Y-75700000D01*
X105984174Y-75700000D01*
X105925000Y-75715855D01*
X105925000Y-75100000D01*
X105175373Y-75100000D01*
X105102459Y-75114503D01*
X105102455Y-75114505D01*
X105019760Y-75169760D01*
X104964505Y-75252455D01*
X104964503Y-75252459D01*
X104950000Y-75325371D01*
X102194574Y-75325371D01*
X104755277Y-72764669D01*
X104826465Y-72658127D01*
X104875501Y-72539744D01*
X104876379Y-72535331D01*
X104878744Y-72523446D01*
X104900500Y-72414071D01*
X104900500Y-70774361D01*
X104920185Y-70707322D01*
X104936816Y-70686682D01*
X104949464Y-70674035D01*
X105048013Y-70526547D01*
X105115894Y-70362666D01*
X105150500Y-70188691D01*
X105150500Y-70011309D01*
X105150500Y-70011306D01*
X105150499Y-70011304D01*
X105115896Y-69837341D01*
X105115893Y-69837332D01*
X105048016Y-69673459D01*
X105048009Y-69673446D01*
X104949464Y-69525965D01*
X104949461Y-69525961D01*
X104824038Y-69400538D01*
X104824034Y-69400535D01*
X104676553Y-69301990D01*
X104676540Y-69301983D01*
X104512667Y-69234106D01*
X104512658Y-69234103D01*
X104338694Y-69199500D01*
X104338691Y-69199500D01*
X104161309Y-69199500D01*
X104161304Y-69199500D01*
X104048138Y-69222010D01*
X103978546Y-69215783D01*
X103923369Y-69172919D01*
X103900125Y-69107030D01*
X103900500Y-69090243D01*
X103900500Y-68911306D01*
X103900499Y-68911304D01*
X103865896Y-68737341D01*
X103865893Y-68737332D01*
X103798016Y-68573459D01*
X103798009Y-68573446D01*
X103753805Y-68507290D01*
X103732927Y-68440612D01*
X103751412Y-68373232D01*
X103769221Y-68350723D01*
X104805276Y-67314670D01*
X104876465Y-67208127D01*
X104925501Y-67089744D01*
X104933506Y-67049500D01*
X104950500Y-66964069D01*
X104950500Y-52520808D01*
X104970185Y-52453769D01*
X104986819Y-52433127D01*
X105333127Y-52086819D01*
X105394450Y-52053334D01*
X105420808Y-52050500D01*
X105438693Y-52050500D01*
X105438694Y-52050499D01*
X105496682Y-52038964D01*
X105612658Y-52015896D01*
X105612661Y-52015894D01*
X105612666Y-52015894D01*
X105776547Y-51948013D01*
X105924035Y-51849464D01*
X106049464Y-51724035D01*
X106148013Y-51576547D01*
X106215894Y-51412666D01*
X106218315Y-51400499D01*
X106250499Y-51238695D01*
X106250500Y-51238693D01*
X106250500Y-51061306D01*
X106250499Y-51061304D01*
X106215896Y-50887341D01*
X106215893Y-50887332D01*
X106148016Y-50723459D01*
X106148009Y-50723446D01*
X106049464Y-50575965D01*
X106049461Y-50575961D01*
X105924038Y-50450538D01*
X105924034Y-50450535D01*
X105776553Y-50351990D01*
X105776540Y-50351983D01*
X105612667Y-50284106D01*
X105612658Y-50284103D01*
X105438694Y-50249500D01*
X105438691Y-50249500D01*
X105261309Y-50249500D01*
X105261306Y-50249500D01*
X105087341Y-50284103D01*
X105087332Y-50284106D01*
X104923459Y-50351983D01*
X104923446Y-50351990D01*
X104775965Y-50450535D01*
X104775961Y-50450538D01*
X104650538Y-50575961D01*
X104650535Y-50575965D01*
X104551990Y-50723446D01*
X104551983Y-50723459D01*
X104484106Y-50887332D01*
X104484103Y-50887341D01*
X104449500Y-51061304D01*
X104449500Y-51079191D01*
X104429815Y-51146230D01*
X104413181Y-51166872D01*
X103794727Y-51785325D01*
X103794724Y-51785328D01*
X103737041Y-51871659D01*
X103723535Y-51891871D01*
X103674499Y-52010255D01*
X103674497Y-52010261D01*
X103649500Y-52135928D01*
X103649500Y-66579192D01*
X103629815Y-66646231D01*
X103613181Y-66666873D01*
X103016873Y-67263181D01*
X102955550Y-67296666D01*
X102929192Y-67299500D01*
X91674362Y-67299500D01*
X91607323Y-67279815D01*
X91586681Y-67263181D01*
X91574038Y-67250538D01*
X91574034Y-67250535D01*
X91426553Y-67151990D01*
X91426540Y-67151983D01*
X91262667Y-67084106D01*
X91262658Y-67084103D01*
X91088694Y-67049500D01*
X91088691Y-67049500D01*
X90911309Y-67049500D01*
X90911306Y-67049500D01*
X90737341Y-67084103D01*
X90737332Y-67084106D01*
X90573459Y-67151983D01*
X90573446Y-67151990D01*
X90425965Y-67250535D01*
X90425961Y-67250538D01*
X90300538Y-67375961D01*
X90300535Y-67375965D01*
X90201990Y-67523446D01*
X90201983Y-67523459D01*
X90134106Y-67687332D01*
X90134103Y-67687341D01*
X90099500Y-67861304D01*
X90099500Y-68038695D01*
X90135294Y-68218641D01*
X90133234Y-68219050D01*
X90133766Y-68279385D01*
X90096511Y-68338494D01*
X90033214Y-68368078D01*
X90014486Y-68369500D01*
X83265929Y-68369500D01*
X83140261Y-68394497D01*
X83140255Y-68394499D01*
X83021870Y-68443535D01*
X82915331Y-68514722D01*
X82915324Y-68514728D01*
X81844725Y-69585328D01*
X81844724Y-69585329D01*
X81791436Y-69665083D01*
X81791435Y-69665083D01*
X81773536Y-69691870D01*
X81773534Y-69691874D01*
X81724499Y-69810255D01*
X81724497Y-69810261D01*
X81699500Y-69935928D01*
X81699500Y-71575916D01*
X81679815Y-71642955D01*
X81627011Y-71688710D01*
X81557853Y-71698654D01*
X81528050Y-71690478D01*
X81512667Y-71684106D01*
X81512658Y-71684103D01*
X81338694Y-71649500D01*
X81338691Y-71649500D01*
X81161309Y-71649500D01*
X81161306Y-71649500D01*
X80987341Y-71684103D01*
X80987332Y-71684106D01*
X80823459Y-71751983D01*
X80823446Y-71751990D01*
X80675965Y-71850535D01*
X80675961Y-71850538D01*
X80550538Y-71975961D01*
X80550535Y-71975965D01*
X80451990Y-72123446D01*
X80451983Y-72123459D01*
X80384106Y-72287332D01*
X80384103Y-72287341D01*
X80349500Y-72461304D01*
X80349500Y-72638695D01*
X80384103Y-72812658D01*
X80384106Y-72812667D01*
X80451984Y-72976542D01*
X80451985Y-72976543D01*
X80451987Y-72976547D01*
X80478602Y-73016378D01*
X80499480Y-73083055D01*
X80499500Y-73085269D01*
X80499500Y-73802144D01*
X80479815Y-73869183D01*
X80478602Y-73871035D01*
X80476988Y-73873449D01*
X80476987Y-73873452D01*
X80409106Y-74037332D01*
X80409104Y-74037340D01*
X80395992Y-74103259D01*
X80391282Y-74112263D01*
X80390557Y-74122401D01*
X80375360Y-74142700D01*
X80363607Y-74165170D01*
X80354774Y-74170199D01*
X80348685Y-74178334D01*
X80324929Y-74187194D01*
X80302891Y-74199744D01*
X80292742Y-74199199D01*
X80283221Y-74202751D01*
X80258442Y-74197360D01*
X80233121Y-74196003D01*
X80223060Y-74189663D01*
X80214948Y-74187899D01*
X80186694Y-74166748D01*
X80061819Y-74041873D01*
X80028334Y-73980550D01*
X80025500Y-73954192D01*
X80025500Y-73936306D01*
X80025499Y-73936304D01*
X79990896Y-73762341D01*
X79990893Y-73762332D01*
X79923016Y-73598459D01*
X79923009Y-73598446D01*
X79824464Y-73450965D01*
X79824461Y-73450961D01*
X79699038Y-73325538D01*
X79699034Y-73325535D01*
X79551553Y-73226990D01*
X79551540Y-73226983D01*
X79387667Y-73159106D01*
X79387658Y-73159103D01*
X79213694Y-73124500D01*
X79213691Y-73124500D01*
X79036309Y-73124500D01*
X79036306Y-73124500D01*
X78862341Y-73159103D01*
X78862332Y-73159106D01*
X78698459Y-73226983D01*
X78698446Y-73226990D01*
X78550965Y-73325535D01*
X78550961Y-73325538D01*
X78425538Y-73450961D01*
X78425535Y-73450965D01*
X78326990Y-73598446D01*
X78326983Y-73598459D01*
X78259106Y-73762332D01*
X78259103Y-73762341D01*
X78224500Y-73936304D01*
X77656251Y-73936304D01*
X77085443Y-73365497D01*
X77051958Y-73304174D01*
X77056942Y-73234483D01*
X77058564Y-73230361D01*
X77065894Y-73212666D01*
X77100500Y-73038691D01*
X77100500Y-72861309D01*
X77100500Y-72861306D01*
X77100499Y-72861304D01*
X77065896Y-72687341D01*
X77065893Y-72687332D01*
X76998016Y-72523459D01*
X76998009Y-72523446D01*
X76899464Y-72375965D01*
X76899461Y-72375961D01*
X76774038Y-72250538D01*
X76774034Y-72250535D01*
X76626553Y-72151990D01*
X76626540Y-72151983D01*
X76462667Y-72084106D01*
X76462658Y-72084103D01*
X76288694Y-72049500D01*
X76288691Y-72049500D01*
X76111309Y-72049500D01*
X76111306Y-72049500D01*
X75937341Y-72084103D01*
X75937332Y-72084106D01*
X75773459Y-72151983D01*
X75773446Y-72151990D01*
X75625965Y-72250535D01*
X75625961Y-72250538D01*
X75500538Y-72375961D01*
X75500535Y-72375965D01*
X75401990Y-72523446D01*
X75401983Y-72523459D01*
X75334106Y-72687332D01*
X75334103Y-72687341D01*
X75299500Y-72861304D01*
X65950500Y-72861304D01*
X65950500Y-66921040D01*
X65970185Y-66854001D01*
X66022989Y-66808246D01*
X66092147Y-66798302D01*
X66155703Y-66827327D01*
X66174814Y-66848150D01*
X66222298Y-66913505D01*
X66369828Y-67061035D01*
X66538619Y-67183670D01*
X66586619Y-67208127D01*
X66724512Y-67278387D01*
X66724514Y-67278387D01*
X66724517Y-67278389D01*
X66780768Y-67296666D01*
X66922943Y-67342862D01*
X67129009Y-67375500D01*
X67129014Y-67375500D01*
X67337657Y-67375500D01*
X67543722Y-67342862D01*
X67742149Y-67278389D01*
X67928047Y-67183670D01*
X68096838Y-67061035D01*
X68244368Y-66913505D01*
X68367003Y-66744714D01*
X68461722Y-66558816D01*
X68526195Y-66360389D01*
X68558833Y-66154324D01*
X68558833Y-65945675D01*
X68526195Y-65739610D01*
X68461720Y-65541179D01*
X68367002Y-65355285D01*
X68288104Y-65246692D01*
X68288103Y-65246689D01*
X68244372Y-65186501D01*
X68244368Y-65186495D01*
X68235008Y-65177135D01*
X70041167Y-65177135D01*
X70041167Y-66922870D01*
X70041168Y-66922876D01*
X70047575Y-66982483D01*
X70097869Y-67117328D01*
X70097873Y-67117335D01*
X70184119Y-67232544D01*
X70184122Y-67232547D01*
X70299331Y-67318793D01*
X70299338Y-67318797D01*
X70434184Y-67369091D01*
X70434183Y-67369091D01*
X70441111Y-67369835D01*
X70493794Y-67375500D01*
X72239539Y-67375499D01*
X72299150Y-67369091D01*
X72433998Y-67318796D01*
X72549213Y-67232546D01*
X72635463Y-67117331D01*
X72685758Y-66982483D01*
X72692167Y-66922873D01*
X72692166Y-65945675D01*
X74741167Y-65945675D01*
X74741167Y-66154324D01*
X74773804Y-66360389D01*
X74838279Y-66558820D01*
X74893335Y-66666873D01*
X74932997Y-66744714D01*
X75055632Y-66913505D01*
X75203162Y-67061035D01*
X75371953Y-67183670D01*
X75419953Y-67208127D01*
X75557846Y-67278387D01*
X75557848Y-67278387D01*
X75557851Y-67278389D01*
X75614102Y-67296666D01*
X75756277Y-67342862D01*
X75962343Y-67375500D01*
X75962348Y-67375500D01*
X76170991Y-67375500D01*
X76377056Y-67342862D01*
X76575483Y-67278389D01*
X76761381Y-67183670D01*
X76930172Y-67061035D01*
X77077702Y-66913505D01*
X77200337Y-66744714D01*
X77295056Y-66558816D01*
X77359529Y-66360389D01*
X77392167Y-66154324D01*
X77392167Y-65945675D01*
X77359529Y-65739610D01*
X77295054Y-65541179D01*
X77200336Y-65355285D01*
X77121438Y-65246692D01*
X77121437Y-65246689D01*
X77077706Y-65186501D01*
X77077702Y-65186495D01*
X77068342Y-65177135D01*
X78874500Y-65177135D01*
X78874500Y-66922870D01*
X78874501Y-66922876D01*
X78880908Y-66982483D01*
X78931202Y-67117328D01*
X78931206Y-67117335D01*
X79017452Y-67232544D01*
X79017455Y-67232547D01*
X79132664Y-67318793D01*
X79132671Y-67318797D01*
X79267517Y-67369091D01*
X79267516Y-67369091D01*
X79274444Y-67369835D01*
X79327127Y-67375500D01*
X81072872Y-67375499D01*
X81132483Y-67369091D01*
X81267331Y-67318796D01*
X81382546Y-67232546D01*
X81468796Y-67117331D01*
X81519091Y-66982483D01*
X81525500Y-66922873D01*
X81525499Y-65945675D01*
X83574500Y-65945675D01*
X83574500Y-66154324D01*
X83607137Y-66360389D01*
X83671612Y-66558820D01*
X83726668Y-66666873D01*
X83766330Y-66744714D01*
X83888965Y-66913505D01*
X84036495Y-67061035D01*
X84205286Y-67183670D01*
X84253286Y-67208127D01*
X84391179Y-67278387D01*
X84391181Y-67278387D01*
X84391184Y-67278389D01*
X84447435Y-67296666D01*
X84589610Y-67342862D01*
X84795676Y-67375500D01*
X84795681Y-67375500D01*
X85004324Y-67375500D01*
X85210389Y-67342862D01*
X85408816Y-67278389D01*
X85594714Y-67183670D01*
X85763505Y-67061035D01*
X85911035Y-66913505D01*
X86033670Y-66744714D01*
X86128389Y-66558816D01*
X86192862Y-66360389D01*
X86225500Y-66154324D01*
X86225500Y-65945675D01*
X86192862Y-65739610D01*
X86128387Y-65541179D01*
X86033669Y-65355285D01*
X85954771Y-65246692D01*
X85911035Y-65186495D01*
X85763505Y-65038965D01*
X85594714Y-64916330D01*
X85408820Y-64821612D01*
X85210389Y-64757137D01*
X85004324Y-64724500D01*
X85004319Y-64724500D01*
X84795681Y-64724500D01*
X84795676Y-64724500D01*
X84589610Y-64757137D01*
X84391179Y-64821612D01*
X84205285Y-64916330D01*
X84036493Y-65038966D01*
X83888966Y-65186493D01*
X83766330Y-65355285D01*
X83671612Y-65541179D01*
X83607137Y-65739610D01*
X83574500Y-65945675D01*
X81525499Y-65945675D01*
X81525499Y-65177128D01*
X81519091Y-65117517D01*
X81497421Y-65059418D01*
X81468797Y-64982671D01*
X81468793Y-64982664D01*
X81382547Y-64867455D01*
X81382544Y-64867452D01*
X81267335Y-64781206D01*
X81267328Y-64781202D01*
X81132482Y-64730908D01*
X81132483Y-64730908D01*
X81072883Y-64724501D01*
X81072881Y-64724500D01*
X81072873Y-64724500D01*
X81072864Y-64724500D01*
X79327129Y-64724500D01*
X79327123Y-64724501D01*
X79267516Y-64730908D01*
X79132671Y-64781202D01*
X79132664Y-64781206D01*
X79017455Y-64867452D01*
X79017452Y-64867455D01*
X78931206Y-64982664D01*
X78931202Y-64982671D01*
X78880908Y-65117517D01*
X78874501Y-65177116D01*
X78874501Y-65177123D01*
X78874500Y-65177135D01*
X77068342Y-65177135D01*
X76930172Y-65038965D01*
X76761381Y-64916330D01*
X76575487Y-64821612D01*
X76377056Y-64757137D01*
X76170991Y-64724500D01*
X76170986Y-64724500D01*
X75962348Y-64724500D01*
X75962343Y-64724500D01*
X75756277Y-64757137D01*
X75557846Y-64821612D01*
X75371952Y-64916330D01*
X75203160Y-65038966D01*
X75055633Y-65186493D01*
X74932997Y-65355285D01*
X74838279Y-65541179D01*
X74773804Y-65739610D01*
X74741167Y-65945675D01*
X72692166Y-65945675D01*
X72692166Y-65177128D01*
X72685758Y-65117517D01*
X72664088Y-65059418D01*
X72635464Y-64982671D01*
X72635460Y-64982664D01*
X72549214Y-64867455D01*
X72549211Y-64867452D01*
X72434002Y-64781206D01*
X72433995Y-64781202D01*
X72299149Y-64730908D01*
X72299150Y-64730908D01*
X72239550Y-64724501D01*
X72239548Y-64724500D01*
X72239540Y-64724500D01*
X72239531Y-64724500D01*
X70493796Y-64724500D01*
X70493790Y-64724501D01*
X70434183Y-64730908D01*
X70299338Y-64781202D01*
X70299331Y-64781206D01*
X70184122Y-64867452D01*
X70184119Y-64867455D01*
X70097873Y-64982664D01*
X70097869Y-64982671D01*
X70047575Y-65117517D01*
X70041168Y-65177116D01*
X70041168Y-65177123D01*
X70041167Y-65177135D01*
X68235008Y-65177135D01*
X68096838Y-65038965D01*
X67928047Y-64916330D01*
X67742153Y-64821612D01*
X67543722Y-64757137D01*
X67337657Y-64724500D01*
X67337652Y-64724500D01*
X67129014Y-64724500D01*
X67129009Y-64724500D01*
X66922943Y-64757137D01*
X66724512Y-64821612D01*
X66538618Y-64916330D01*
X66373994Y-65035938D01*
X66308187Y-65059418D01*
X66240133Y-65043593D01*
X66191439Y-64993487D01*
X66177563Y-64925009D01*
X66202912Y-64859900D01*
X66213419Y-64847947D01*
X66774548Y-64286819D01*
X66835871Y-64253334D01*
X66862229Y-64250500D01*
X82464730Y-64250500D01*
X82531769Y-64270185D01*
X82533622Y-64271399D01*
X82573447Y-64298010D01*
X82573450Y-64298011D01*
X82573453Y-64298013D01*
X82737334Y-64365894D01*
X82737336Y-64365894D01*
X82737341Y-64365896D01*
X82911304Y-64400499D01*
X82911307Y-64400500D01*
X82911309Y-64400500D01*
X83088693Y-64400500D01*
X83088694Y-64400499D01*
X83146682Y-64388964D01*
X83262658Y-64365896D01*
X83262661Y-64365894D01*
X83262666Y-64365894D01*
X83426547Y-64298013D01*
X83574035Y-64199464D01*
X83699464Y-64074035D01*
X83798013Y-63926547D01*
X83865894Y-63762666D01*
X83900500Y-63588691D01*
X83900500Y-63411309D01*
X83900500Y-63411306D01*
X83900499Y-63411304D01*
X83865896Y-63237341D01*
X83865893Y-63237332D01*
X83798016Y-63073459D01*
X83798009Y-63073446D01*
X83699464Y-62925965D01*
X83699461Y-62925961D01*
X83574038Y-62800538D01*
X83574034Y-62800535D01*
X83426553Y-62701990D01*
X83426540Y-62701983D01*
X83262667Y-62634106D01*
X83262658Y-62634103D01*
X83088694Y-62599500D01*
X83088691Y-62599500D01*
X82911309Y-62599500D01*
X82911306Y-62599500D01*
X82737341Y-62634103D01*
X82737332Y-62634106D01*
X82573452Y-62701987D01*
X82573447Y-62701989D01*
X82533622Y-62728601D01*
X82466945Y-62749480D01*
X82464730Y-62749500D01*
X66426076Y-62749500D01*
X66397242Y-62755234D01*
X66397243Y-62755235D01*
X66281093Y-62778339D01*
X66281083Y-62778342D01*
X66201081Y-62811479D01*
X66201082Y-62811480D01*
X66144505Y-62834915D01*
X66062372Y-62889795D01*
X66021585Y-62917047D01*
X66021581Y-62917050D01*
X64617045Y-64321586D01*
X64587444Y-64365891D01*
X64587442Y-64365894D01*
X64534914Y-64444507D01*
X64478343Y-64581082D01*
X64478340Y-64581092D01*
X64449500Y-64726079D01*
X64449500Y-74564729D01*
X64429815Y-74631768D01*
X64428602Y-74633620D01*
X64401988Y-74673449D01*
X64401987Y-74673452D01*
X64334106Y-74837332D01*
X64334103Y-74837341D01*
X64299500Y-75011304D01*
X27700500Y-75011304D01*
X27700500Y-65177135D01*
X52374500Y-65177135D01*
X52374500Y-66922870D01*
X52374501Y-66922876D01*
X52380908Y-66982483D01*
X52431202Y-67117328D01*
X52431206Y-67117335D01*
X52517452Y-67232544D01*
X52517455Y-67232547D01*
X52632664Y-67318793D01*
X52632671Y-67318797D01*
X52767517Y-67369091D01*
X52767516Y-67369091D01*
X52774444Y-67369835D01*
X52827127Y-67375500D01*
X54572872Y-67375499D01*
X54632483Y-67369091D01*
X54767331Y-67318796D01*
X54882546Y-67232546D01*
X54968796Y-67117331D01*
X55019091Y-66982483D01*
X55025500Y-66922873D01*
X55025499Y-65945675D01*
X57074500Y-65945675D01*
X57074500Y-66154324D01*
X57107137Y-66360389D01*
X57171612Y-66558820D01*
X57226668Y-66666873D01*
X57266330Y-66744714D01*
X57388965Y-66913505D01*
X57536495Y-67061035D01*
X57705286Y-67183670D01*
X57753286Y-67208127D01*
X57891179Y-67278387D01*
X57891181Y-67278387D01*
X57891184Y-67278389D01*
X57947435Y-67296666D01*
X58089610Y-67342862D01*
X58295676Y-67375500D01*
X58295681Y-67375500D01*
X58504324Y-67375500D01*
X58710389Y-67342862D01*
X58908816Y-67278389D01*
X59094714Y-67183670D01*
X59263505Y-67061035D01*
X59411035Y-66913505D01*
X59533670Y-66744714D01*
X59628389Y-66558816D01*
X59692862Y-66360389D01*
X59725500Y-66154324D01*
X59725500Y-65945675D01*
X59692862Y-65739610D01*
X59628387Y-65541179D01*
X59533669Y-65355285D01*
X59454771Y-65246692D01*
X59454770Y-65246689D01*
X59411039Y-65186501D01*
X59411035Y-65186495D01*
X59401675Y-65177135D01*
X61207833Y-65177135D01*
X61207833Y-66922870D01*
X61207834Y-66922876D01*
X61214241Y-66982483D01*
X61264535Y-67117328D01*
X61264539Y-67117335D01*
X61350785Y-67232544D01*
X61350788Y-67232547D01*
X61465997Y-67318793D01*
X61466004Y-67318797D01*
X61600850Y-67369091D01*
X61600849Y-67369091D01*
X61607777Y-67369835D01*
X61660460Y-67375500D01*
X63406205Y-67375499D01*
X63465816Y-67369091D01*
X63600664Y-67318796D01*
X63715879Y-67232546D01*
X63802129Y-67117331D01*
X63852424Y-66982483D01*
X63858833Y-66922873D01*
X63858832Y-65177128D01*
X63852424Y-65117517D01*
X63830754Y-65059418D01*
X63802130Y-64982671D01*
X63802126Y-64982664D01*
X63715880Y-64867455D01*
X63715877Y-64867452D01*
X63600668Y-64781206D01*
X63600661Y-64781202D01*
X63465815Y-64730908D01*
X63465816Y-64730908D01*
X63406216Y-64724501D01*
X63406214Y-64724500D01*
X63406206Y-64724500D01*
X63406197Y-64724500D01*
X61660462Y-64724500D01*
X61660456Y-64724501D01*
X61600849Y-64730908D01*
X61466004Y-64781202D01*
X61465997Y-64781206D01*
X61350788Y-64867452D01*
X61350785Y-64867455D01*
X61264539Y-64982664D01*
X61264535Y-64982671D01*
X61214241Y-65117517D01*
X61207834Y-65177116D01*
X61207834Y-65177123D01*
X61207833Y-65177135D01*
X59401675Y-65177135D01*
X59263505Y-65038965D01*
X59094714Y-64916330D01*
X58908820Y-64821612D01*
X58710389Y-64757137D01*
X58504324Y-64724500D01*
X58504319Y-64724500D01*
X58295681Y-64724500D01*
X58295676Y-64724500D01*
X58089610Y-64757137D01*
X57891179Y-64821612D01*
X57705285Y-64916330D01*
X57536493Y-65038966D01*
X57388966Y-65186493D01*
X57266330Y-65355285D01*
X57171612Y-65541179D01*
X57107137Y-65739610D01*
X57074500Y-65945675D01*
X55025499Y-65945675D01*
X55025499Y-65177128D01*
X55019091Y-65117517D01*
X54997421Y-65059418D01*
X54968797Y-64982671D01*
X54968793Y-64982664D01*
X54882547Y-64867455D01*
X54882544Y-64867452D01*
X54767335Y-64781206D01*
X54767328Y-64781202D01*
X54632482Y-64730908D01*
X54632483Y-64730908D01*
X54572883Y-64724501D01*
X54572881Y-64724500D01*
X54572873Y-64724500D01*
X54572864Y-64724500D01*
X52827129Y-64724500D01*
X52827123Y-64724501D01*
X52767516Y-64730908D01*
X52632671Y-64781202D01*
X52632664Y-64781206D01*
X52517455Y-64867452D01*
X52517452Y-64867455D01*
X52431206Y-64982664D01*
X52431202Y-64982671D01*
X52380908Y-65117517D01*
X52374501Y-65177116D01*
X52374501Y-65177123D01*
X52374500Y-65177135D01*
X27700500Y-65177135D01*
X27700500Y-61318956D01*
X27720185Y-61251917D01*
X27772989Y-61206162D01*
X27824089Y-61194957D01*
X86750000Y-61000000D01*
X86750000Y-60950000D01*
X86750000Y-60949788D01*
X86738528Y-57588695D01*
X86737923Y-57411304D01*
X91599500Y-57411304D01*
X91599500Y-57588695D01*
X91634103Y-57762658D01*
X91634106Y-57762667D01*
X91701983Y-57926540D01*
X91701990Y-57926553D01*
X91800535Y-58074034D01*
X91800538Y-58074038D01*
X91925961Y-58199461D01*
X91925965Y-58199464D01*
X92073446Y-58298009D01*
X92073459Y-58298016D01*
X92168378Y-58337332D01*
X92237334Y-58365894D01*
X92237336Y-58365894D01*
X92237341Y-58365896D01*
X92411304Y-58400499D01*
X92411307Y-58400500D01*
X92411309Y-58400500D01*
X92588693Y-58400500D01*
X92588694Y-58400499D01*
X92646682Y-58388964D01*
X92762658Y-58365896D01*
X92762661Y-58365894D01*
X92762666Y-58365894D01*
X92926547Y-58298013D01*
X93074035Y-58199464D01*
X93074038Y-58199461D01*
X93086681Y-58186819D01*
X93148004Y-58153334D01*
X93174362Y-58150500D01*
X99429192Y-58150500D01*
X99496231Y-58170185D01*
X99516873Y-58186819D01*
X99913181Y-58583127D01*
X99946666Y-58644450D01*
X99949500Y-58670808D01*
X99949500Y-58688695D01*
X99984103Y-58862658D01*
X99984106Y-58862667D01*
X100051983Y-59026540D01*
X100051990Y-59026553D01*
X100150535Y-59174034D01*
X100150538Y-59174038D01*
X100275961Y-59299461D01*
X100275965Y-59299464D01*
X100423446Y-59398009D01*
X100423459Y-59398016D01*
X100546363Y-59448923D01*
X100587334Y-59465894D01*
X100587336Y-59465894D01*
X100587341Y-59465896D01*
X100761304Y-59500499D01*
X100761307Y-59500500D01*
X100761309Y-59500500D01*
X100938693Y-59500500D01*
X100938694Y-59500499D01*
X100996682Y-59488964D01*
X101112658Y-59465896D01*
X101112661Y-59465894D01*
X101112666Y-59465894D01*
X101276547Y-59398013D01*
X101424035Y-59299464D01*
X101549464Y-59174035D01*
X101648013Y-59026547D01*
X101715894Y-58862666D01*
X101750500Y-58688691D01*
X101750500Y-58511309D01*
X101750500Y-58511306D01*
X101750499Y-58511304D01*
X101715896Y-58337341D01*
X101715893Y-58337332D01*
X101648016Y-58173459D01*
X101648009Y-58173446D01*
X101549464Y-58025965D01*
X101549461Y-58025961D01*
X101424038Y-57900538D01*
X101424034Y-57900535D01*
X101276553Y-57801990D01*
X101276540Y-57801983D01*
X101112667Y-57734106D01*
X101112658Y-57734103D01*
X100938694Y-57699500D01*
X100938691Y-57699500D01*
X100920808Y-57699500D01*
X100853769Y-57679815D01*
X100833127Y-57663181D01*
X100164674Y-56994727D01*
X100164673Y-56994726D01*
X100164669Y-56994723D01*
X100058127Y-56923535D01*
X99939744Y-56874499D01*
X99939738Y-56874497D01*
X99814071Y-56849500D01*
X99814069Y-56849500D01*
X93174362Y-56849500D01*
X93107323Y-56829815D01*
X93086681Y-56813181D01*
X93074038Y-56800538D01*
X93074034Y-56800535D01*
X92926553Y-56701990D01*
X92926540Y-56701983D01*
X92762667Y-56634106D01*
X92762658Y-56634103D01*
X92588694Y-56599500D01*
X92588691Y-56599500D01*
X92411309Y-56599500D01*
X92411306Y-56599500D01*
X92237341Y-56634103D01*
X92237332Y-56634106D01*
X92073459Y-56701983D01*
X92073446Y-56701990D01*
X91925965Y-56800535D01*
X91925961Y-56800538D01*
X91800538Y-56925961D01*
X91800535Y-56925965D01*
X91701990Y-57073446D01*
X91701983Y-57073459D01*
X91634106Y-57237332D01*
X91634103Y-57237341D01*
X91599500Y-57411304D01*
X86737923Y-57411304D01*
X86727172Y-54261304D01*
X88599500Y-54261304D01*
X88599500Y-54438695D01*
X88634103Y-54612658D01*
X88634106Y-54612667D01*
X88701983Y-54776540D01*
X88701990Y-54776553D01*
X88800535Y-54924034D01*
X88800538Y-54924038D01*
X88925961Y-55049461D01*
X88925965Y-55049464D01*
X89073446Y-55148009D01*
X89073459Y-55148016D01*
X89196363Y-55198923D01*
X89237334Y-55215894D01*
X89237336Y-55215894D01*
X89237341Y-55215896D01*
X89411304Y-55250499D01*
X89411307Y-55250500D01*
X89411309Y-55250500D01*
X89588693Y-55250500D01*
X89588694Y-55250499D01*
X89646682Y-55238964D01*
X89762658Y-55215896D01*
X89762661Y-55215894D01*
X89762666Y-55215894D01*
X89926547Y-55148013D01*
X90074035Y-55049464D01*
X90199464Y-54924035D01*
X90298013Y-54776547D01*
X90365894Y-54612666D01*
X90400500Y-54438691D01*
X90400500Y-54261309D01*
X90400500Y-54261306D01*
X90400499Y-54261304D01*
X90365896Y-54087341D01*
X90365893Y-54087332D01*
X90298013Y-53923453D01*
X90298011Y-53923451D01*
X90298011Y-53923449D01*
X90271398Y-53883620D01*
X90250520Y-53816942D01*
X90250500Y-53814729D01*
X90250500Y-50674500D01*
X90270185Y-50607461D01*
X90322989Y-50561706D01*
X90374500Y-50550500D01*
X92626082Y-50550500D01*
X92825505Y-50550500D01*
X92872953Y-50559937D01*
X92887334Y-50565894D01*
X92887338Y-50565894D01*
X92887341Y-50565896D01*
X93061304Y-50600499D01*
X93061307Y-50600500D01*
X93061309Y-50600500D01*
X93238693Y-50600500D01*
X93238694Y-50600499D01*
X93298058Y-50588691D01*
X93412658Y-50565896D01*
X93412659Y-50565895D01*
X93412666Y-50565894D01*
X93427046Y-50559937D01*
X93474495Y-50550500D01*
X93923920Y-50550500D01*
X94021462Y-50531096D01*
X94068913Y-50521658D01*
X94205495Y-50465084D01*
X94258888Y-50429408D01*
X94272380Y-50420392D01*
X94339059Y-50399520D01*
X94341263Y-50399500D01*
X94475500Y-50399500D01*
X94542539Y-50419185D01*
X94588294Y-50471989D01*
X94599500Y-50523500D01*
X94599500Y-50588695D01*
X94634103Y-50762658D01*
X94634106Y-50762667D01*
X94701983Y-50926540D01*
X94701990Y-50926553D01*
X94800535Y-51074034D01*
X94800538Y-51074038D01*
X94925961Y-51199461D01*
X94925965Y-51199464D01*
X95073446Y-51298009D01*
X95073459Y-51298016D01*
X95160172Y-51333933D01*
X95237334Y-51365894D01*
X95237336Y-51365894D01*
X95237341Y-51365896D01*
X95411304Y-51400499D01*
X95411307Y-51400500D01*
X95411309Y-51400500D01*
X95429192Y-51400500D01*
X95496231Y-51420185D01*
X95516873Y-51436819D01*
X96435324Y-52355271D01*
X96435327Y-52355274D01*
X96486917Y-52389745D01*
X96541866Y-52426461D01*
X96541872Y-52426464D01*
X96541873Y-52426465D01*
X96660256Y-52475501D01*
X96660260Y-52475501D01*
X96660261Y-52475502D01*
X96785928Y-52500500D01*
X96785931Y-52500500D01*
X99725638Y-52500500D01*
X99792677Y-52520185D01*
X99813319Y-52536819D01*
X99825961Y-52549461D01*
X99825965Y-52549464D01*
X99973446Y-52648009D01*
X99973459Y-52648016D01*
X100096363Y-52698923D01*
X100137334Y-52715894D01*
X100137336Y-52715894D01*
X100137341Y-52715896D01*
X100311304Y-52750499D01*
X100311307Y-52750500D01*
X100311309Y-52750500D01*
X100488693Y-52750500D01*
X100488694Y-52750499D01*
X100546682Y-52738964D01*
X100662658Y-52715896D01*
X100662661Y-52715894D01*
X100662666Y-52715894D01*
X100826547Y-52648013D01*
X100974035Y-52549464D01*
X101099464Y-52424035D01*
X101198013Y-52276547D01*
X101265894Y-52112666D01*
X101271036Y-52086819D01*
X101298646Y-51948013D01*
X101300500Y-51938691D01*
X101300500Y-51761309D01*
X101300500Y-51761306D01*
X101300499Y-51761304D01*
X101265896Y-51587341D01*
X101265893Y-51587332D01*
X101198016Y-51423459D01*
X101198009Y-51423446D01*
X101099464Y-51275965D01*
X101099461Y-51275961D01*
X100974038Y-51150538D01*
X100974034Y-51150535D01*
X100826553Y-51051990D01*
X100826540Y-51051983D01*
X100662667Y-50984106D01*
X100662658Y-50984103D01*
X100488694Y-50949500D01*
X100488691Y-50949500D01*
X100311309Y-50949500D01*
X100311306Y-50949500D01*
X100137341Y-50984103D01*
X100137332Y-50984106D01*
X99973459Y-51051983D01*
X99973446Y-51051990D01*
X99825965Y-51150535D01*
X99825961Y-51150538D01*
X99813319Y-51163181D01*
X99751996Y-51196666D01*
X99725638Y-51199500D01*
X97170808Y-51199500D01*
X97103769Y-51179815D01*
X97083127Y-51163181D01*
X96704103Y-50784157D01*
X96670618Y-50722834D01*
X96675602Y-50653142D01*
X96717474Y-50597209D01*
X96767589Y-50574860D01*
X96812666Y-50565894D01*
X96976547Y-50498013D01*
X97092706Y-50420397D01*
X97159382Y-50399520D01*
X97161596Y-50399500D01*
X99488234Y-50399500D01*
X99555273Y-50419185D01*
X99557110Y-50420388D01*
X99598453Y-50448013D01*
X99598456Y-50448014D01*
X99598457Y-50448015D01*
X99707707Y-50493267D01*
X99762334Y-50515894D01*
X99762336Y-50515894D01*
X99762341Y-50515896D01*
X99936304Y-50550499D01*
X99936307Y-50550500D01*
X99936309Y-50550500D01*
X100113693Y-50550500D01*
X100113694Y-50550499D01*
X100171682Y-50538964D01*
X100287658Y-50515896D01*
X100287661Y-50515894D01*
X100287666Y-50515894D01*
X100451547Y-50448013D01*
X100599035Y-50349464D01*
X100724464Y-50224035D01*
X100823013Y-50076547D01*
X100890894Y-49912666D01*
X100925500Y-49738691D01*
X100925500Y-49561309D01*
X100925500Y-49561306D01*
X100925499Y-49561304D01*
X100890896Y-49387341D01*
X100890893Y-49387332D01*
X100823016Y-49223459D01*
X100823009Y-49223446D01*
X100724464Y-49075965D01*
X100724461Y-49075961D01*
X100599038Y-48950538D01*
X100599034Y-48950535D01*
X100451553Y-48851990D01*
X100451540Y-48851983D01*
X100287667Y-48784106D01*
X100287658Y-48784103D01*
X100113694Y-48749500D01*
X100113691Y-48749500D01*
X99936309Y-48749500D01*
X99936306Y-48749500D01*
X99762341Y-48784103D01*
X99762332Y-48784106D01*
X99598457Y-48851984D01*
X99598455Y-48851985D01*
X99560118Y-48877602D01*
X99493440Y-48898480D01*
X99491227Y-48898500D01*
X96992793Y-48898500D01*
X96945341Y-48889061D01*
X96812667Y-48834106D01*
X96812658Y-48834103D01*
X96638694Y-48799500D01*
X96638691Y-48799500D01*
X96461309Y-48799500D01*
X96461306Y-48799500D01*
X96287341Y-48834103D01*
X96287332Y-48834106D01*
X96154659Y-48889061D01*
X96107207Y-48898500D01*
X93927080Y-48898500D01*
X93782093Y-48927340D01*
X93782090Y-48927341D01*
X93782088Y-48927341D01*
X93782087Y-48927342D01*
X93767529Y-48933372D01*
X93739858Y-48944833D01*
X93670389Y-48952299D01*
X93623518Y-48933372D01*
X93576552Y-48901990D01*
X93576549Y-48901988D01*
X93576547Y-48901987D01*
X93576544Y-48901985D01*
X93576539Y-48901983D01*
X93412667Y-48834106D01*
X93412658Y-48834103D01*
X93238694Y-48799500D01*
X93238691Y-48799500D01*
X93061309Y-48799500D01*
X93061306Y-48799500D01*
X92887341Y-48834103D01*
X92887332Y-48834106D01*
X92723459Y-48901983D01*
X92723446Y-48901990D01*
X92575965Y-49000535D01*
X92575961Y-49000538D01*
X92563319Y-49013181D01*
X92501996Y-49046666D01*
X92475638Y-49049500D01*
X90285270Y-49049500D01*
X90218231Y-49029815D01*
X90216378Y-49028601D01*
X90176552Y-49001989D01*
X90176547Y-49001987D01*
X90012667Y-48934106D01*
X90012658Y-48934103D01*
X89838694Y-48899500D01*
X89838691Y-48899500D01*
X89661309Y-48899500D01*
X89661306Y-48899500D01*
X89487341Y-48934103D01*
X89487332Y-48934106D01*
X89323459Y-49001983D01*
X89323446Y-49001990D01*
X89175965Y-49100535D01*
X89175961Y-49100538D01*
X89050538Y-49225961D01*
X89050535Y-49225965D01*
X88951990Y-49373446D01*
X88951983Y-49373459D01*
X88884107Y-49537329D01*
X88884104Y-49537339D01*
X88865252Y-49632113D01*
X88846741Y-49676806D01*
X88834916Y-49694505D01*
X88778342Y-49831086D01*
X88778340Y-49831092D01*
X88749500Y-49976079D01*
X88749500Y-53814729D01*
X88729815Y-53881768D01*
X88728602Y-53883620D01*
X88701988Y-53923449D01*
X88701987Y-53923452D01*
X88634106Y-54087332D01*
X88634103Y-54087341D01*
X88599500Y-54261304D01*
X86727172Y-54261304D01*
X86700000Y-46300000D01*
X85772616Y-46300000D01*
X85705577Y-46280315D01*
X85699730Y-46276318D01*
X85686433Y-46266657D01*
X85475996Y-46159433D01*
X85251368Y-46086446D01*
X85018097Y-46049500D01*
X85018092Y-46049500D01*
X82372890Y-46049500D01*
X82305851Y-46029815D01*
X82285209Y-46013181D01*
X79677512Y-43405485D01*
X79677511Y-43405484D01*
X79658825Y-43391908D01*
X79497664Y-43274816D01*
X79455000Y-43219486D01*
X79449021Y-43149873D01*
X79481627Y-43088078D01*
X79542466Y-43053721D01*
X79570551Y-43050499D01*
X79947871Y-43050499D01*
X79947872Y-43050499D01*
X80007483Y-43044091D01*
X80142331Y-42993796D01*
X80257546Y-42907546D01*
X80343796Y-42792331D01*
X80394091Y-42657483D01*
X80400500Y-42597873D01*
X80400499Y-40918872D01*
X81479500Y-40918872D01*
X81479500Y-41181127D01*
X81491423Y-41271684D01*
X81513730Y-41441116D01*
X81559982Y-41613730D01*
X81581602Y-41694418D01*
X81581605Y-41694428D01*
X81681953Y-41936690D01*
X81681958Y-41936700D01*
X81813075Y-42163803D01*
X81972718Y-42371851D01*
X81972726Y-42371860D01*
X82158140Y-42557274D01*
X82158148Y-42557281D01*
X82366196Y-42716924D01*
X82593299Y-42848041D01*
X82593309Y-42848046D01*
X82835571Y-42948394D01*
X82835581Y-42948398D01*
X83088884Y-43016270D01*
X83337188Y-43048960D01*
X83348864Y-43050498D01*
X83348880Y-43050500D01*
X83348887Y-43050500D01*
X83611113Y-43050500D01*
X83611120Y-43050500D01*
X83871116Y-43016270D01*
X84124419Y-42948398D01*
X84301340Y-42875114D01*
X84366690Y-42848046D01*
X84366691Y-42848045D01*
X84366697Y-42848043D01*
X84593803Y-42716924D01*
X84801851Y-42557282D01*
X84801855Y-42557277D01*
X84801860Y-42557274D01*
X84987274Y-42371860D01*
X84987277Y-42371855D01*
X84987282Y-42371851D01*
X85146924Y-42163803D01*
X85278043Y-41936697D01*
X85378398Y-41694419D01*
X85446270Y-41441116D01*
X85480500Y-41181120D01*
X85480500Y-40918880D01*
X85480499Y-40918872D01*
X86559500Y-40918872D01*
X86559500Y-41181127D01*
X86571423Y-41271684D01*
X86593730Y-41441116D01*
X86639982Y-41613730D01*
X86661602Y-41694418D01*
X86661605Y-41694428D01*
X86761953Y-41936690D01*
X86761958Y-41936700D01*
X86893075Y-42163803D01*
X87052718Y-42371851D01*
X87052726Y-42371860D01*
X87238140Y-42557274D01*
X87238148Y-42557281D01*
X87446196Y-42716924D01*
X87673299Y-42848041D01*
X87673309Y-42848046D01*
X87915571Y-42948394D01*
X87915581Y-42948398D01*
X88168884Y-43016270D01*
X88417188Y-43048960D01*
X88428864Y-43050498D01*
X88428880Y-43050500D01*
X88428887Y-43050500D01*
X88691113Y-43050500D01*
X88691120Y-43050500D01*
X88951116Y-43016270D01*
X89204419Y-42948398D01*
X89381340Y-42875114D01*
X89446690Y-42848046D01*
X89446691Y-42848045D01*
X89446697Y-42848043D01*
X89673803Y-42716924D01*
X89881851Y-42557282D01*
X89881855Y-42557277D01*
X89881860Y-42557274D01*
X90067274Y-42371860D01*
X90067277Y-42371855D01*
X90067282Y-42371851D01*
X90226924Y-42163803D01*
X90358043Y-41936697D01*
X90458398Y-41694419D01*
X90526270Y-41441116D01*
X90560500Y-41181120D01*
X90560500Y-40918880D01*
X90560499Y-40918872D01*
X91639500Y-40918872D01*
X91639500Y-41181127D01*
X91651423Y-41271684D01*
X91673730Y-41441116D01*
X91719982Y-41613730D01*
X91741602Y-41694418D01*
X91741605Y-41694428D01*
X91841953Y-41936690D01*
X91841958Y-41936700D01*
X91973075Y-42163803D01*
X92132718Y-42371851D01*
X92132726Y-42371860D01*
X92318140Y-42557274D01*
X92318148Y-42557281D01*
X92526196Y-42716924D01*
X92753299Y-42848041D01*
X92753309Y-42848046D01*
X92995571Y-42948394D01*
X92995581Y-42948398D01*
X93248884Y-43016270D01*
X93497188Y-43048960D01*
X93508864Y-43050498D01*
X93508880Y-43050500D01*
X93508887Y-43050500D01*
X93771113Y-43050500D01*
X93771120Y-43050500D01*
X94031116Y-43016270D01*
X94284419Y-42948398D01*
X94461340Y-42875114D01*
X94526690Y-42848046D01*
X94526691Y-42848045D01*
X94526697Y-42848043D01*
X94753803Y-42716924D01*
X94961851Y-42557282D01*
X94961855Y-42557277D01*
X94961860Y-42557274D01*
X95147274Y-42371860D01*
X95147277Y-42371855D01*
X95147282Y-42371851D01*
X95306924Y-42163803D01*
X95438043Y-41936697D01*
X95538398Y-41694419D01*
X95606270Y-41441116D01*
X95640500Y-41181120D01*
X95640500Y-40918880D01*
X95640499Y-40918872D01*
X96719500Y-40918872D01*
X96719500Y-41181127D01*
X96731423Y-41271684D01*
X96753730Y-41441116D01*
X96799982Y-41613730D01*
X96821602Y-41694418D01*
X96821605Y-41694428D01*
X96921953Y-41936690D01*
X96921958Y-41936700D01*
X97053075Y-42163803D01*
X97212718Y-42371851D01*
X97212726Y-42371860D01*
X97398140Y-42557274D01*
X97398148Y-42557281D01*
X97606196Y-42716924D01*
X97833299Y-42848041D01*
X97833309Y-42848046D01*
X98075571Y-42948394D01*
X98075581Y-42948398D01*
X98328884Y-43016270D01*
X98577188Y-43048960D01*
X98588864Y-43050498D01*
X98588880Y-43050500D01*
X98588887Y-43050500D01*
X98851113Y-43050500D01*
X98851120Y-43050500D01*
X99111116Y-43016270D01*
X99364419Y-42948398D01*
X99541340Y-42875114D01*
X99606690Y-42848046D01*
X99606691Y-42848045D01*
X99606697Y-42848043D01*
X99833803Y-42716924D01*
X100041851Y-42557282D01*
X100041855Y-42557277D01*
X100041860Y-42557274D01*
X100227274Y-42371860D01*
X100227277Y-42371855D01*
X100227282Y-42371851D01*
X100386924Y-42163803D01*
X100518043Y-41936697D01*
X100618398Y-41694419D01*
X100686270Y-41441116D01*
X100720500Y-41181120D01*
X100720500Y-40935305D01*
X102050000Y-40935305D01*
X102050000Y-41164694D01*
X102050001Y-41164710D01*
X102079942Y-41392137D01*
X102139318Y-41613730D01*
X102227102Y-41825659D01*
X102227106Y-41825668D01*
X102341806Y-42024334D01*
X102475133Y-42198088D01*
X103181263Y-41491958D01*
X103209670Y-41534472D01*
X103315528Y-41640330D01*
X103358039Y-41668735D01*
X102651910Y-42374865D01*
X102825665Y-42508192D01*
X102825672Y-42508197D01*
X103024331Y-42622893D01*
X103024340Y-42622897D01*
X103236269Y-42710681D01*
X103457862Y-42770057D01*
X103685289Y-42799998D01*
X103685306Y-42800000D01*
X103914694Y-42800000D01*
X103914710Y-42799998D01*
X104142137Y-42770057D01*
X104363730Y-42710681D01*
X104575659Y-42622897D01*
X104575668Y-42622893D01*
X104774327Y-42508197D01*
X104774344Y-42508186D01*
X104948088Y-42374866D01*
X104948088Y-42374865D01*
X104241959Y-41668735D01*
X104284472Y-41640330D01*
X104390330Y-41534472D01*
X104418735Y-41491959D01*
X105124865Y-42198088D01*
X105124866Y-42198088D01*
X105258186Y-42024344D01*
X105258197Y-42024327D01*
X105372893Y-41825668D01*
X105372897Y-41825659D01*
X105460681Y-41613730D01*
X105520057Y-41392137D01*
X105549998Y-41164710D01*
X105550000Y-41164694D01*
X105550000Y-40935305D01*
X105549998Y-40935289D01*
X105520057Y-40707862D01*
X105460681Y-40486269D01*
X105372897Y-40274340D01*
X105372893Y-40274331D01*
X105258197Y-40075672D01*
X105258192Y-40075665D01*
X105124865Y-39901910D01*
X104418735Y-40608039D01*
X104390330Y-40565528D01*
X104284472Y-40459670D01*
X104241959Y-40431263D01*
X104948088Y-39725133D01*
X104774334Y-39591806D01*
X104575668Y-39477106D01*
X104575659Y-39477102D01*
X104363730Y-39389318D01*
X104142137Y-39329942D01*
X103914710Y-39300001D01*
X103914694Y-39300000D01*
X103685306Y-39300000D01*
X103685289Y-39300001D01*
X103457862Y-39329942D01*
X103236269Y-39389318D01*
X103024340Y-39477102D01*
X103024330Y-39477106D01*
X102825666Y-39591805D01*
X102651910Y-39725132D01*
X102651910Y-39725133D01*
X103358040Y-40431263D01*
X103315528Y-40459670D01*
X103209670Y-40565528D01*
X103181263Y-40608040D01*
X102475133Y-39901910D01*
X102475132Y-39901910D01*
X102341805Y-40075666D01*
X102227106Y-40274330D01*
X102227102Y-40274340D01*
X102139318Y-40486269D01*
X102079942Y-40707862D01*
X102050001Y-40935289D01*
X102050000Y-40935305D01*
X100720500Y-40935305D01*
X100720500Y-40918880D01*
X100686270Y-40658884D01*
X100618398Y-40405581D01*
X100606351Y-40376497D01*
X100518046Y-40163309D01*
X100518041Y-40163299D01*
X100386924Y-39936196D01*
X100342291Y-39878031D01*
X100227282Y-39728149D01*
X100227276Y-39728143D01*
X100227273Y-39728139D01*
X100041860Y-39542726D01*
X100041851Y-39542718D01*
X99833803Y-39383075D01*
X99606700Y-39251958D01*
X99606690Y-39251953D01*
X99364428Y-39151605D01*
X99364421Y-39151603D01*
X99364419Y-39151602D01*
X99111116Y-39083730D01*
X99053339Y-39076123D01*
X98851127Y-39049500D01*
X98851120Y-39049500D01*
X98588880Y-39049500D01*
X98588872Y-39049500D01*
X98357772Y-39079926D01*
X98328884Y-39083730D01*
X98075581Y-39151602D01*
X98075571Y-39151605D01*
X97833309Y-39251953D01*
X97833299Y-39251958D01*
X97606196Y-39383075D01*
X97398148Y-39542718D01*
X97212718Y-39728148D01*
X97053075Y-39936196D01*
X96921958Y-40163299D01*
X96921953Y-40163309D01*
X96821605Y-40405571D01*
X96821602Y-40405581D01*
X96812081Y-40441116D01*
X96753730Y-40658885D01*
X96719500Y-40918872D01*
X95640499Y-40918872D01*
X95606270Y-40658884D01*
X95538398Y-40405581D01*
X95526351Y-40376497D01*
X95438046Y-40163309D01*
X95438041Y-40163299D01*
X95306924Y-39936196D01*
X95147281Y-39728148D01*
X95147274Y-39728140D01*
X94961860Y-39542726D01*
X94961851Y-39542718D01*
X94753803Y-39383075D01*
X94526700Y-39251958D01*
X94526690Y-39251953D01*
X94284428Y-39151605D01*
X94284421Y-39151603D01*
X94284419Y-39151602D01*
X94031116Y-39083730D01*
X93973339Y-39076123D01*
X93771127Y-39049500D01*
X93771120Y-39049500D01*
X93508880Y-39049500D01*
X93508872Y-39049500D01*
X93277772Y-39079926D01*
X93248884Y-39083730D01*
X92995581Y-39151602D01*
X92995571Y-39151605D01*
X92753309Y-39251953D01*
X92753299Y-39251958D01*
X92526196Y-39383075D01*
X92318148Y-39542718D01*
X92132718Y-39728148D01*
X91973075Y-39936196D01*
X91841958Y-40163299D01*
X91841953Y-40163309D01*
X91741605Y-40405571D01*
X91741602Y-40405581D01*
X91732081Y-40441116D01*
X91673730Y-40658885D01*
X91639500Y-40918872D01*
X90560499Y-40918872D01*
X90526270Y-40658884D01*
X90458398Y-40405581D01*
X90446351Y-40376497D01*
X90358046Y-40163309D01*
X90358041Y-40163299D01*
X90226924Y-39936196D01*
X90067281Y-39728148D01*
X90067274Y-39728140D01*
X89881860Y-39542726D01*
X89881851Y-39542718D01*
X89673803Y-39383075D01*
X89446700Y-39251958D01*
X89446690Y-39251953D01*
X89204428Y-39151605D01*
X89204421Y-39151603D01*
X89204419Y-39151602D01*
X88951116Y-39083730D01*
X88893339Y-39076123D01*
X88691127Y-39049500D01*
X88691120Y-39049500D01*
X88428880Y-39049500D01*
X88428872Y-39049500D01*
X88197772Y-39079926D01*
X88168884Y-39083730D01*
X87915581Y-39151602D01*
X87915571Y-39151605D01*
X87673309Y-39251953D01*
X87673299Y-39251958D01*
X87446196Y-39383075D01*
X87238148Y-39542718D01*
X87052718Y-39728148D01*
X86893075Y-39936196D01*
X86761958Y-40163299D01*
X86761953Y-40163309D01*
X86661605Y-40405571D01*
X86661602Y-40405581D01*
X86652081Y-40441116D01*
X86593730Y-40658885D01*
X86559500Y-40918872D01*
X85480499Y-40918872D01*
X85446270Y-40658884D01*
X85378398Y-40405581D01*
X85366351Y-40376497D01*
X85278046Y-40163309D01*
X85278041Y-40163299D01*
X85146924Y-39936196D01*
X84987281Y-39728148D01*
X84987274Y-39728140D01*
X84801860Y-39542726D01*
X84801851Y-39542718D01*
X84593803Y-39383075D01*
X84366700Y-39251958D01*
X84366690Y-39251953D01*
X84124428Y-39151605D01*
X84124421Y-39151603D01*
X84124419Y-39151602D01*
X83871116Y-39083730D01*
X83813339Y-39076123D01*
X83611127Y-39049500D01*
X83611120Y-39049500D01*
X83348880Y-39049500D01*
X83348872Y-39049500D01*
X83117772Y-39079926D01*
X83088884Y-39083730D01*
X82835581Y-39151602D01*
X82835571Y-39151605D01*
X82593309Y-39251953D01*
X82593299Y-39251958D01*
X82366196Y-39383075D01*
X82158148Y-39542718D01*
X81972718Y-39728148D01*
X81813075Y-39936196D01*
X81681958Y-40163299D01*
X81681953Y-40163309D01*
X81581605Y-40405571D01*
X81581602Y-40405581D01*
X81572081Y-40441116D01*
X81513730Y-40658885D01*
X81479500Y-40918872D01*
X80400499Y-40918872D01*
X80400499Y-39502128D01*
X80394091Y-39442517D01*
X80384172Y-39415924D01*
X80343797Y-39307671D01*
X80343793Y-39307664D01*
X80257547Y-39192455D01*
X80257544Y-39192452D01*
X80142335Y-39106206D01*
X80142328Y-39106202D01*
X80007482Y-39055908D01*
X80007483Y-39055908D01*
X79947883Y-39049501D01*
X79947881Y-39049500D01*
X79947873Y-39049500D01*
X79947864Y-39049500D01*
X76852129Y-39049500D01*
X76852123Y-39049501D01*
X76792516Y-39055908D01*
X76657671Y-39106202D01*
X76657664Y-39106206D01*
X76542455Y-39192452D01*
X76542452Y-39192455D01*
X76456206Y-39307664D01*
X76456202Y-39307671D01*
X76405908Y-39442517D01*
X76402190Y-39477106D01*
X76399501Y-39502123D01*
X76399500Y-39502135D01*
X76399500Y-42597870D01*
X76399501Y-42597876D01*
X76405908Y-42657483D01*
X76456202Y-42792328D01*
X76456204Y-42792331D01*
X76500265Y-42851189D01*
X76524683Y-42916652D01*
X76509832Y-42984925D01*
X76460427Y-43034331D01*
X76400999Y-43049500D01*
X76171555Y-43049500D01*
X76104516Y-43029815D01*
X76058761Y-42977011D01*
X76047558Y-42926310D01*
X76013237Y-37675310D01*
X76032483Y-37608144D01*
X76084986Y-37562045D01*
X76137234Y-37550500D01*
X119134108Y-37550500D01*
X119196249Y-37550500D01*
X119203736Y-37550726D01*
G37*
%TD.AperFunction*%
%TD*%
%TA.AperFunction,Conductor*%
%TO.N,GND*%
G36*
X102077268Y-68620185D02*
G01*
X102123023Y-68672989D01*
X102132967Y-68742147D01*
X102131846Y-68748691D01*
X102099500Y-68911304D01*
X102099500Y-69088695D01*
X102134103Y-69262658D01*
X102134106Y-69262667D01*
X102201983Y-69426540D01*
X102201990Y-69426553D01*
X102300534Y-69574033D01*
X102300535Y-69574034D01*
X102300536Y-69574035D01*
X102313180Y-69586679D01*
X102346665Y-69647999D01*
X102349500Y-69674361D01*
X102349500Y-72179192D01*
X102329815Y-72246231D01*
X102313181Y-72266873D01*
X97466873Y-77113181D01*
X97405550Y-77146666D01*
X97379192Y-77149500D01*
X86370808Y-77149500D01*
X86303769Y-77129815D01*
X86283127Y-77113181D01*
X86039674Y-76869727D01*
X86039673Y-76869726D01*
X86039669Y-76869723D01*
X85933127Y-76798535D01*
X85814744Y-76749499D01*
X85799518Y-76746470D01*
X85737610Y-76714084D01*
X85736033Y-76712534D01*
X85699038Y-76675538D01*
X85699034Y-76675535D01*
X85551553Y-76576990D01*
X85551540Y-76576983D01*
X85387667Y-76509106D01*
X85387658Y-76509103D01*
X85213694Y-76474500D01*
X85213691Y-76474500D01*
X85036309Y-76474500D01*
X85036306Y-76474500D01*
X84862341Y-76509103D01*
X84862332Y-76509106D01*
X84698459Y-76576983D01*
X84698446Y-76576990D01*
X84550965Y-76675535D01*
X84550961Y-76675538D01*
X84425538Y-76800961D01*
X84425535Y-76800965D01*
X84326990Y-76948446D01*
X84326983Y-76948459D01*
X84259106Y-77112332D01*
X84259103Y-77112341D01*
X84224500Y-77286304D01*
X84224500Y-77463695D01*
X84259103Y-77637658D01*
X84259106Y-77637667D01*
X84326983Y-77801540D01*
X84326990Y-77801553D01*
X84428920Y-77954100D01*
X84427062Y-77955341D01*
X84450463Y-78010439D01*
X84438670Y-78079306D01*
X84430401Y-78093679D01*
X84410511Y-78123448D01*
X84410504Y-78123460D01*
X84342627Y-78287332D01*
X84342624Y-78287341D01*
X84308021Y-78461304D01*
X84308021Y-78638695D01*
X84316472Y-78681180D01*
X84310245Y-78750772D01*
X84267382Y-78805949D01*
X84263746Y-78808473D01*
X84125965Y-78900535D01*
X84125961Y-78900538D01*
X84000538Y-79025961D01*
X84000535Y-79025965D01*
X83901990Y-79173446D01*
X83901983Y-79173459D01*
X83834106Y-79337332D01*
X83834104Y-79337340D01*
X83825591Y-79380139D01*
X83793206Y-79442050D01*
X83732490Y-79476624D01*
X83679783Y-79477564D01*
X83538695Y-79449500D01*
X83538691Y-79449500D01*
X83361309Y-79449500D01*
X83361306Y-79449500D01*
X83187341Y-79484103D01*
X83187332Y-79484106D01*
X83171950Y-79490478D01*
X83102480Y-79497945D01*
X83040002Y-79466669D01*
X83004351Y-79406579D01*
X83000500Y-79375916D01*
X83000500Y-70442333D01*
X83737250Y-69670500D01*
X94245638Y-69670500D01*
X94312677Y-69690185D01*
X94333319Y-69706819D01*
X94345961Y-69719461D01*
X94345965Y-69719464D01*
X94493446Y-69818009D01*
X94493459Y-69818016D01*
X94616363Y-69868923D01*
X94657334Y-69885894D01*
X94657336Y-69885894D01*
X94657341Y-69885896D01*
X94831304Y-69920499D01*
X94831307Y-69920500D01*
X94831309Y-69920500D01*
X95008693Y-69920500D01*
X95008694Y-69920499D01*
X95066682Y-69908964D01*
X95182658Y-69885896D01*
X95182661Y-69885894D01*
X95182666Y-69885894D01*
X95346547Y-69818013D01*
X95494035Y-69719464D01*
X95619464Y-69594035D01*
X95718013Y-69446547D01*
X95785894Y-69282666D01*
X95789873Y-69262666D01*
X95820499Y-69108695D01*
X95820500Y-69108693D01*
X95820500Y-68931306D01*
X95820499Y-68931304D01*
X95784706Y-68751359D01*
X95786765Y-68750949D01*
X95786234Y-68690615D01*
X95823489Y-68631506D01*
X95886786Y-68601922D01*
X95905514Y-68600500D01*
X102010229Y-68600500D01*
X102077268Y-68620185D01*
G37*
%TD.AperFunction*%
%TD*%
M02*
