%TF.GenerationSoftware,KiCad,Pcbnew,10.0.4*%
%TF.CreationDate,2026-08-17T23:14:10+07:00*%
%TF.ProjectId,smarthome_v0.1,736d6172-7468-46f6-9d65-5f76302e312e,rev?*%
%TF.SameCoordinates,Original*%
%TF.FileFunction,Profile,NP*%
%FSLAX46Y46*%
G04 Gerber Fmt 4.6, Leading zero omitted, Abs format (unit mm)*
G04 Created by KiCad (PCBNEW 10.0.4) date 2026-08-17 23:14:10*
%MOMM*%
%LPD*%
G01*
G04 APERTURE LIST*
%TA.AperFunction,Profile*%
%ADD10C,0.050000*%
%TD*%
G04 APERTURE END LIST*
D10*
X27200000Y-40050000D02*
X27200000Y-89050000D01*
X27200000Y-40050000D02*
G75*
G02*
X30200000Y-37050000I3000000J0D01*
G01*
X30200000Y-37050000D02*
X119200000Y-37050000D01*
X31700000Y-40050000D02*
G75*
G02*
X28700000Y-40050000I-1500000J0D01*
G01*
X28700000Y-40050000D02*
G75*
G02*
X31700000Y-40050000I1500000J0D01*
G01*
X31700000Y-89050000D02*
G75*
G02*
X28700000Y-89050000I-1500000J0D01*
G01*
X28700000Y-89050000D02*
G75*
G02*
X31700000Y-89050000I1500000J0D01*
G01*
X30200000Y-92050000D02*
G75*
G02*
X27200000Y-89050000I0J3000000D01*
G01*
X30200000Y-92050000D02*
X119200000Y-92050000D01*
X116200000Y-54050000D02*
X116200000Y-72550000D01*
X116200000Y-72550000D02*
X122200000Y-72550000D01*
X119200000Y-37050000D02*
G75*
G02*
X122200000Y-40050000I0J-3000000D01*
G01*
X120700000Y-40050000D02*
G75*
G02*
X117700000Y-40050000I-1500000J0D01*
G01*
X117700000Y-40050000D02*
G75*
G02*
X120700000Y-40050000I1500000J0D01*
G01*
X120700000Y-89050000D02*
G75*
G02*
X117700000Y-89050000I-1500000J0D01*
G01*
X117700000Y-89050000D02*
G75*
G02*
X120700000Y-89050000I1500000J0D01*
G01*
X122200000Y-40050000D02*
X122200000Y-54050000D01*
X122200000Y-54050000D02*
X116200000Y-54050000D01*
X122200000Y-72550000D02*
X122200000Y-89050000D01*
X122200000Y-89050000D02*
G75*
G02*
X119200000Y-92050000I-3000000J0D01*
G01*
M02*
